<svg width="24" height="24" viewBox="0 0 24 24" fill="none" xmlns="http://www.w3.org/2000/svg">
<path d="M17.37 12.39L12 16.71L6.64003 12.23C6.53891 12.146 6.42223 12.0827 6.29665 12.0437C6.17106 12.0048 6.03904 11.9909 5.90811 12.003C5.77717 12.0151 5.6499 12.0528 5.53356 12.1141C5.41721 12.1753 5.31407 12.2589 5.23003 12.36C5.14598 12.4611 5.08268 12.5778 5.04372 12.7034C5.00477 12.829 4.99094 12.961 5.00301 13.092C5.01508 13.2229 5.05282 13.3502 5.11408 13.4665C5.17534 13.5828 5.25891 13.686 5.36003 13.77L11.36 18.77C11.539 18.9171 11.7634 18.9975 11.995 18.9975C12.2267 18.9975 12.4511 18.9171 12.63 18.77L18.63 13.94C18.7328 13.8575 18.8182 13.7555 18.8813 13.6399C18.9445 13.5242 18.9842 13.3972 18.9981 13.2662C19.0121 13.1352 19 13.0027 18.9626 12.8764C18.9251 12.75 18.8631 12.6323 18.78 12.53C18.6968 12.428 18.5942 12.3435 18.4782 12.2812C18.3622 12.219 18.2351 12.1802 18.1041 12.1672C17.9731 12.1542 17.8408 12.1672 17.7148 12.2054C17.5889 12.2437 17.4717 12.3064 17.37 12.39Z" fill="#3F4347"/>
<path d="M11.36 11.77C11.539 11.9171 11.7634 11.9975 11.995 11.9975C12.2267 11.9975 12.4511 11.9171 12.63 11.77L18.63 6.93997C18.7328 6.85745 18.8182 6.75544 18.8813 6.6398C18.9445 6.52416 18.9842 6.39718 18.9981 6.26615C19.0121 6.13512 19 6.00263 18.9626 5.87629C18.9251 5.74995 18.8631 5.63226 18.78 5.52997C18.6975 5.42724 18.5955 5.34184 18.4799 5.27867C18.3642 5.21549 18.2372 5.17579 18.1062 5.16185C17.9752 5.14792 17.8427 5.16001 17.7164 5.19744C17.59 5.23487 17.4723 5.2969 17.37 5.37997L12 9.70997L6.64003 5.22997C6.43581 5.06023 6.17253 4.97857 5.90811 5.00295C5.64368 5.02733 5.39977 5.15575 5.23003 5.35997C5.06029 5.56419 4.97863 5.82747 5.00301 6.09189C5.02739 6.35632 5.15581 6.60023 5.36003 6.76997L11.36 11.77Z" fill="#3F4347"/>
</svg>
