<svg width="24" height="24" viewBox="0 0 24 24" fill="none" xmlns="http://www.w3.org/2000/svg">
<path d="M6.63006 11.61L12.0001 7.28999L17.3701 11.77C17.5473 11.9169 17.7699 11.9981 18.0001 12C18.147 12.0002 18.2921 11.9681 18.4252 11.9059C18.5583 11.8437 18.676 11.7529 18.7701 11.64C18.8543 11.5389 18.9177 11.4223 18.9568 11.2967C18.9958 11.1711 19.0097 11.039 18.9976 10.908C18.9855 10.777 18.9477 10.6497 18.8864 10.5334C18.825 10.417 18.7413 10.3139 18.6401 10.23L12.6401 5.22999C12.4611 5.08291 12.2367 5.0025 12.0051 5.0025C11.7734 5.0025 11.549 5.08291 11.3701 5.22999L5.37006 10.06C5.26734 10.1425 5.18193 10.2445 5.11876 10.3602C5.05559 10.4758 5.01589 10.6028 5.00195 10.7338C4.98801 10.8648 5.0001 10.9973 5.03754 11.1237C5.07497 11.25 5.137 11.3677 5.22006 11.47C5.3033 11.572 5.40586 11.6565 5.52185 11.7188C5.63784 11.7811 5.76499 11.8198 5.89599 11.8328C6.02699 11.8458 6.15927 11.8328 6.28524 11.7946C6.41121 11.7564 6.5284 11.6936 6.63006 11.61Z" fill="#3F4347"/>
<path d="M12.6401 12.23C12.4611 12.0829 12.2367 12.0025 12.0051 12.0025C11.7734 12.0025 11.549 12.0829 11.3701 12.23L5.37006 17.06C5.26734 17.1425 5.18193 17.2445 5.11876 17.3602C5.05559 17.4758 5.01589 17.6028 5.00195 17.7338C4.98801 17.8648 5.0001 17.9973 5.03754 18.1237C5.07497 18.25 5.137 18.3677 5.22006 18.47C5.30259 18.5727 5.4046 18.6581 5.52024 18.7213C5.63587 18.7845 5.76285 18.8242 5.89388 18.8381C6.02491 18.852 6.1574 18.84 6.28374 18.8025C6.41008 18.7651 6.52778 18.7031 6.63006 18.62L12.0001 14.29L17.3701 18.77C17.5473 18.9169 17.7699 18.9981 18.0001 19C18.147 19.0002 18.2921 18.9681 18.4252 18.9059C18.5583 18.8437 18.676 18.7529 18.7701 18.64C18.8543 18.5389 18.9177 18.4223 18.9568 18.2967C18.9958 18.1711 19.0097 18.039 18.9976 17.908C18.9855 17.777 18.9477 17.6497 18.8864 17.5334C18.825 17.417 18.7413 17.3139 18.6401 17.23L12.6401 12.23Z" fill="#3F4347"/>
</svg>
