<svg width="43" height="50" viewBox="0 0 43 50" fill="none" xmlns="http://www.w3.org/2000/svg">
<g filter="url(#filter0_b_85_9)">
<g filter="url(#filter1_b_85_9)">
<mask id="path-1-inside-1_85_9" fill="white">
<path fill-rule="evenodd" clip-rule="evenodd" d="M31.1816 18.4902C32.2643 16.3583 32.6039 13.8595 32.6039 11.2691C32.6039 7.45524 30.9784 4.22419 28.7746 2.29759C26.8584 0.62239 24.5782 0 21.6273 0C18.6764 0 16.0641 0.62239 14.1138 2.29759C11.8707 4.22419 10.5033 7.45524 10.5033 11.2691C10.5033 13.8595 10.9275 16.3583 12.035 18.4902C13.976 22.2265 17.5876 24.8359 21.6273 24.8359C25.667 24.8359 29.2841 22.2265 31.1816 18.4902ZM41.9283 43.326C42.3398 42.5526 42.5602 41.7135 42.5602 40.8096C42.5602 37.5146 39.4779 34.0806 35.0109 31.8381C31.2864 29.9683 26.7453 28.884 21.7724 28.884C16.4507 28.884 11.0955 29.9571 7.1116 32.0569C2.90797 34.2725 0 37.7073 0 40.8096C0 41.7135 0.242444 42.5526 0.691406 43.326C3.24388 47.7234 12.4715 50 21.7724 50C31.0734 50 39.5889 47.7234 41.9283 43.326Z"/>
</mask>
<path fill-rule="evenodd" clip-rule="evenodd" d="M31.1816 18.4902C32.2643 16.3583 32.6039 13.8595 32.6039 11.2691C32.6039 7.45524 30.9784 4.22419 28.7746 2.29759C26.8584 0.62239 24.5782 0 21.6273 0C18.6764 0 16.0641 0.62239 14.1138 2.29759C11.8707 4.22419 10.5033 7.45524 10.5033 11.2691C10.5033 13.8595 10.9275 16.3583 12.035 18.4902C13.976 22.2265 17.5876 24.8359 21.6273 24.8359C25.667 24.8359 29.2841 22.2265 31.1816 18.4902ZM41.9283 43.326C42.3398 42.5526 42.5602 41.7135 42.5602 40.8096C42.5602 37.5146 39.4779 34.0806 35.0109 31.8381C31.2864 29.9683 26.7453 28.884 21.7724 28.884C16.4507 28.884 11.0955 29.9571 7.1116 32.0569C2.90797 34.2725 0 37.7073 0 40.8096C0 41.7135 0.242444 42.5526 0.691406 43.326C3.24388 47.7234 12.4715 50 21.7724 50C31.0734 50 39.5889 47.7234 41.9283 43.326Z" fill="url(#paint0_linear_85_9)" fill-opacity="0.9"/>
<path d="M31.1816 18.4902L30.9587 18.377L30.9587 18.377L31.1816 18.4902ZM28.7746 2.29759L28.6101 2.48581L28.6101 2.48581L28.7746 2.29759ZM14.1138 2.29759L14.2767 2.48724L14.2767 2.48724L14.1138 2.29759ZM12.035 18.4902L12.2568 18.3749L12.035 18.4902ZM41.9283 43.326L41.7076 43.2086L41.7076 43.2086L41.9283 43.326ZM35.0109 31.8381L34.8988 32.0615L34.8988 32.0615L35.0109 31.8381ZM7.1116 32.0569L6.99503 31.8357L6.99503 31.8357L7.1116 32.0569ZM0.691406 43.326L0.475191 43.4516L0.475191 43.4516L0.691406 43.326ZM32.3539 11.2691C32.3539 13.8414 32.016 16.2952 30.9587 18.377L31.4045 18.6034C32.5126 16.4214 32.8539 13.8775 32.8539 11.2691H32.3539ZM28.6101 2.48581C30.758 4.36354 32.3539 7.52522 32.3539 11.2691H32.8539C32.8539 7.38525 31.1988 4.08484 28.9391 2.10938L28.6101 2.48581ZM21.6273 0.25C24.5403 0.25 26.7539 0.863138 28.6101 2.48581L28.9391 2.10938C26.9628 0.381642 24.6162 -0.25 21.6273 -0.25V0.25ZM14.2767 2.48724C16.1637 0.866406 18.7073 0.25 21.6273 0.25V-0.25C18.6456 -0.25 15.9645 0.378374 13.9509 2.10795L14.2767 2.48724ZM10.7533 11.2691C10.7533 7.51153 12.1004 4.3565 14.2767 2.48724L13.9509 2.10795C11.6411 4.09188 10.2533 7.39894 10.2533 11.2691H10.7533ZM12.2568 18.3749C11.1738 16.29 10.7533 13.8346 10.7533 11.2691H10.2533C10.2533 13.8844 10.6812 16.4265 11.8131 18.6054L12.2568 18.3749ZM21.6273 24.5859C17.6997 24.5859 14.1642 22.0465 12.2568 18.3749L11.8131 18.6054C13.7877 22.4065 17.4756 25.0859 21.6273 25.0859V24.5859ZM30.9587 18.377C29.0952 22.0463 25.5553 24.5859 21.6273 24.5859V25.0859C25.7787 25.0859 29.4729 22.4068 31.4045 18.6034L30.9587 18.377ZM42.3102 40.8096C42.3102 41.6711 42.1005 42.47 41.7076 43.2086L42.149 43.4435C42.579 42.6352 42.8102 41.7559 42.8102 40.8096H42.3102ZM34.8988 32.0615C37.1088 33.171 38.9676 34.5712 40.2708 36.0918C41.5754 37.6141 42.3102 39.2408 42.3102 40.8096H42.8102C42.8102 39.0834 42.0038 37.3456 40.6505 35.7665C39.2958 34.1858 37.38 32.7477 35.1231 31.6147L34.8988 32.0615ZM21.7724 29.134C26.7096 29.134 31.2118 30.2106 34.8988 32.0615L35.1231 31.6147C31.361 29.726 26.781 28.634 21.7724 28.634V29.134ZM7.22817 32.2781C11.1666 30.2022 16.4791 29.134 21.7724 29.134V28.634C16.4224 28.634 11.0243 29.712 6.99503 31.8357L7.22817 32.2781ZM0.25 40.8096C0.25 39.3356 0.942472 37.7557 2.17256 36.2595C3.40067 34.7657 5.15092 33.3729 7.22817 32.2781L6.99503 31.8357C4.86865 32.9565 3.0631 34.3889 1.78632 35.942C0.511513 37.4926 -0.25 39.1813 -0.25 40.8096H0.25ZM0.907622 43.2005C0.479297 42.4626 0.25 41.6665 0.25 40.8096H-0.25C-0.25 41.7605 0.00559132 42.6425 0.475191 43.4516L0.907622 43.2005ZM21.7724 49.75C17.1399 49.75 12.5325 49.1828 8.77204 48.0723C4.99729 46.9576 2.13345 45.3124 0.907622 43.2005L0.475191 43.4516C1.80183 45.7371 4.82803 47.4289 8.63043 48.5518C12.4471 49.6789 17.104 50.25 21.7724 50.25V49.75ZM41.7076 43.2086C40.5852 45.3183 37.9518 46.9604 34.3864 48.0734C30.8328 49.1828 26.405 49.75 21.7724 49.75V50.25C26.4408 50.25 30.9213 49.679 34.5354 48.5507C38.1379 47.4261 40.9319 45.7312 42.149 43.4435L41.7076 43.2086Z" fill="white" fill-opacity="0.3" mask="url(#path-1-inside-1_85_9)"/>
</g>
</g>
<defs>
<filter id="filter0_b_85_9" x="-7" y="-7" width="56.5601" height="64" filterUnits="userSpaceOnUse" color-interpolation-filters="sRGB">
<feFlood flood-opacity="0" result="BackgroundImageFix"/>
<feGaussianBlur in="BackgroundImageFix" stdDeviation="3.5"/>
<feComposite in2="SourceAlpha" operator="in" result="effect1_backgroundBlur_85_9"/>
<feBlend mode="normal" in="SourceGraphic" in2="effect1_backgroundBlur_85_9" result="shape"/>
</filter>
<filter id="filter1_b_85_9" x="-12" y="-12" width="66.5601" height="74" filterUnits="userSpaceOnUse" color-interpolation-filters="sRGB">
<feFlood flood-opacity="0" result="BackgroundImageFix"/>
<feGaussianBlur in="BackgroundImageFix" stdDeviation="6"/>
<feComposite in2="SourceAlpha" operator="in" result="effect1_backgroundBlur_85_9"/>
<feBlend mode="normal" in="SourceGraphic" in2="effect1_backgroundBlur_85_9" result="shape"/>
</filter>
<linearGradient id="paint0_linear_85_9" x1="-12.9103" y1="8.75274" x2="43.9825" y2="42.2319" gradientUnits="userSpaceOnUse">
<stop stop-color="white" stop-opacity="0.9"/>
<stop offset="0.381146" stop-color="white" stop-opacity="0.6"/>
<stop offset="0.708099" stop-color="white" stop-opacity="0.2"/>
<stop offset="0.947917" stop-color="white" stop-opacity="0"/>
</linearGradient>
</defs>
</svg>
