<svg width="31" height="31" viewBox="0 0 31 31" fill="none" xmlns="http://www.w3.org/2000/svg">
<path d="M27.3454 19.997L24.8429 17.5307V11.4534C24.8762 9.19668 24.0752 7.00435 22.588 5.28122C21.1007 3.5581 19.0275 2.42055 16.7513 2.07862C15.4302 1.90811 14.0873 2.01569 12.812 2.39417C11.5367 2.77265 10.3585 3.41333 9.35583 4.27347C8.35322 5.1336 7.54929 6.19341 6.99771 7.38218C6.44612 8.57095 6.15954 9.86134 6.15711 11.1673V17.5307L3.65455 19.997C3.34021 20.3102 3.12705 20.7073 3.0417 21.1386C2.95636 21.5699 3.00263 22.0163 3.17473 22.422C3.34682 22.8276 3.6371 23.1746 4.00929 23.4195C4.38148 23.6643 4.81905 23.7962 5.26731 23.7987H9.93876V24.262C10.0037 25.6453 10.6255 26.947 11.6679 27.8818C12.7103 28.8166 14.0884 29.3083 15.5 29.2492C16.9116 29.3083 18.2897 28.8166 19.3321 27.8818C20.3745 26.947 20.9963 25.6453 21.0612 24.262V23.7987H25.7327C26.1809 23.7962 26.6185 23.6643 26.9907 23.4195C27.3629 23.1746 27.6532 22.8276 27.8253 22.422C27.9974 22.0163 28.0436 21.5699 27.9583 21.1386C27.873 20.7073 27.6598 20.3102 27.3454 19.997ZM18.2806 24.262C18.2035 24.9174 17.8714 25.5184 17.3534 25.9398C16.8354 26.3611 16.1715 26.5704 15.5 26.5239C14.8285 26.5704 14.1646 26.3611 13.6466 25.9398C13.1286 25.5184 12.7965 24.9174 12.7194 24.262V23.7987H18.2806V24.262ZM6.47688 21.0735L8.11745 19.4656C8.37767 19.2121 8.58413 18.9106 8.72491 18.5785C8.86569 18.2464 8.93802 17.8903 8.93773 17.5307V11.1673C8.93849 10.248 9.13986 9.33962 9.52833 8.50295C9.9168 7.66629 10.4834 6.92074 11.19 6.31635C11.8872 5.69729 12.7132 5.23409 13.611 4.95882C14.5089 4.68355 15.457 4.60278 16.3898 4.72209C17.9977 4.97796 19.4571 5.79448 20.4994 7.02134C21.5417 8.2482 22.0967 9.80279 22.0623 11.3989V17.5307C22.0602 17.8893 22.1303 18.2449 22.2687 18.5769C22.407 18.9089 22.6109 19.2109 22.8686 19.4656L24.5231 21.0735H6.47688Z" fill="black"/>
</svg>
