<svg width="24" height="24" viewBox="0 0 24 24" fill="none" xmlns="http://www.w3.org/2000/svg">
<path d="M11.9986 21.1375C10.0057 21.1375 8.31817 20.4408 6.93592 19.0474C5.55367 17.654 4.86255 15.9517 4.86255 13.9403C4.86255 12.6477 5.07903 11.3468 5.512 10.0374C5.94497 8.72809 6.50489 7.5405 7.19177 6.47465C7.87866 5.40878 8.64738 4.5403 9.49795 3.8692C10.3485 3.1981 11.1821 2.86255 11.9986 2.86255C12.8322 2.86255 13.6707 3.1981 14.5141 3.8692C15.3576 4.5403 16.1225 5.40878 16.8089 6.47465C17.4954 7.5405 18.0551 8.72809 18.4881 10.0374C18.9211 11.3468 19.1375 12.6477 19.1375 13.9403C19.1375 15.9517 18.4459 17.654 17.0627 19.0474C15.6795 20.4408 13.9915 21.1375 11.9986 21.1375ZM12.0015 19.9343C13.6526 19.9343 15.0541 19.3523 16.2062 18.1882C17.3583 17.0242 17.9343 15.6102 17.9343 13.9462C17.9343 12.8622 17.7484 11.7397 17.3766 10.5789C17.0048 9.41811 16.524 8.35758 15.9343 7.39735C15.3446 6.43712 14.7011 5.6418 14.0038 5.0114C13.3065 4.381 12.6366 4.0658 11.9941 4.0658C11.3526 4.0658 10.6825 4.37531 9.98385 4.99435C9.28523 5.61336 8.64429 6.40459 8.06102 7.36802C7.47776 8.33144 6.99941 9.39666 6.62597 10.5637C6.25252 11.7307 6.0658 12.8562 6.0658 13.9403C6.0658 15.6099 6.64232 17.0263 7.79535 18.1895C8.94837 19.3527 10.3504 19.9343 12.0015 19.9343ZM12.4995 17.9631C12.6755 17.9631 12.8218 17.9087 12.9383 17.8C13.0548 17.6913 13.1131 17.5567 13.1131 17.396C13.1131 17.2353 13.0589 17.102 12.9504 16.9962C12.842 16.8904 12.7076 16.8375 12.5473 16.8375C11.6349 16.8375 10.8593 16.5182 10.2206 15.8795C9.58191 15.2408 9.26255 14.4652 9.26255 13.5528C9.26255 13.3925 9.20958 13.2581 9.10365 13.1497C8.99772 13.0412 8.86441 12.987 8.70372 12.987C8.54302 12.987 8.4084 13.0453 8.29985 13.1618C8.19128 13.2783 8.137 13.4245 8.137 13.6006C8.137 14.8075 8.56234 15.8364 9.41302 16.6871C10.2637 17.5378 11.2925 17.9631 12.4995 17.9631Z" fill="#87898A"/>
</svg>
