<svg width="25" height="25" viewBox="0 0 25 25" fill="none" xmlns="http://www.w3.org/2000/svg">
<path d="M14.5835 5.20831L11.4585 5.20831C9.80089 5.20831 8.21118 5.88368 7.03908 7.08583C5.86698 8.28799 5.2085 9.91846 5.2085 11.6186C5.2085 13.3187 5.86698 14.9491 7.03908 16.1513C7.94385 17.0793 9.09746 17.6934 10.3391 17.9252C10.9502 18.0393 11.4585 18.5329 11.4585 19.1546V19.1546C11.4585 19.9553 12.2719 20.5028 13.0051 20.1811C16.6634 18.5762 20.8335 16.1666 20.8335 11.6186C20.8335 9.91846 20.175 8.28799 19.0029 7.08583C17.8308 5.88368 16.2411 5.20831 14.5835 5.20831ZM13.021 17.1999C13.021 16.7726 12.6746 16.4263 12.2474 16.4263H11.4585C10.8429 16.4263 10.2334 16.3019 9.66467 16.0603C9.09595 15.8187 8.57921 15.4646 8.14393 15.0181C7.70866 14.5717 7.36338 14.0417 7.12781 13.4584C6.89224 12.8751 6.771 12.2499 6.771 11.6186C6.771 10.9872 6.89224 10.362 7.12781 9.77875C7.36338 9.19545 7.70866 8.66545 8.14393 8.21902C8.57921 7.77258 9.09595 7.41845 9.66467 7.17684C10.2334 6.93523 10.8429 6.81088 11.4585 6.81088L14.5835 6.81088C15.8267 6.81088 17.019 7.3174 17.8981 8.21902C18.7771 9.12063 19.271 10.3435 19.271 11.6186C19.271 14.2554 17.6726 16.0573 14.1126 17.8813C13.6091 18.1393 13.021 17.7656 13.021 17.1999V17.1999Z" fill="#828689"/>
</svg>
