<svg width="30" height="30" viewBox="0 0 30 30" fill="none" xmlns="http://www.w3.org/2000/svg">
<path d="M28.9121 7.17363C28.915 7.17669 28.9178 7.17957 28.9203 7.18219V7.19833L28.9914 7.31703C29.3079 7.84479 29.4787 8.44696 29.4867 9.06221V20.8505C29.4773 21.5449 29.2699 22.2222 28.8889 22.8028C28.5073 23.3842 27.9675 23.8445 27.333 24.1293L27.333 24.1293L27.3256 24.1328L16.6657 29.1296C16.6653 29.1298 16.6649 29.1299 16.6646 29.1301C16.1382 29.3738 15.5651 29.5 14.985 29.5C14.405 29.5 13.8319 29.3738 13.3055 29.1301C13.3052 29.13 13.3048 29.1298 13.3044 29.1296L2.64447 24.1328L2.64449 24.1327L2.63908 24.1303C2.00284 23.8412 1.46301 23.3755 1.0838 22.7885C0.704716 22.2017 0.50209 21.5184 0.5 20.8198V9.06093C0.505081 8.4114 0.691768 7.77623 1.03897 7.22723L1.04509 7.21756L1.05076 7.20762C1.08346 7.15026 1.12094 7.09584 1.16279 7.04491L1.2585 7.00503L1.37308 6.95729L1.45203 6.8615C1.79751 6.44234 2.22815 6.10143 2.71538 5.86139L13.3701 0.866984C13.3706 0.866759 13.3711 0.866534 13.3716 0.866309C13.8958 0.624969 14.4662 0.5 15.0433 0.5C15.6205 0.5 16.1908 0.624969 16.7151 0.866309C16.7156 0.866534 16.7161 0.866759 16.7166 0.866984L27.3712 5.86133C27.3719 5.86167 27.3726 5.86201 27.3733 5.86235C27.8612 6.09721 28.2911 6.4373 28.6319 6.85816L28.6401 6.86829L28.6488 6.87798L28.7833 7.0274C28.8186 7.07345 28.8545 7.11256 28.8798 7.13952C28.8903 7.15069 28.9022 7.16319 28.9121 7.17363ZM14.3116 2.93604L14.3115 2.93587L14.2993 2.94156L13.1175 3.49144C9.68845 5.08695 9.69021 9.9629 13.1204 11.5559C14.3081 12.1075 15.6786 12.1075 16.8663 11.5559C20.2965 9.9629 20.2982 5.08695 16.8692 3.49144L15.6874 2.94156L15.6875 2.94139L15.6751 2.93604C15.4599 2.84288 15.2279 2.79481 14.9933 2.79481C14.7588 2.79481 14.5268 2.84287 14.3116 2.93604ZM2.83185 20.9038H2.83178L2.83193 20.9125C2.83638 21.1674 2.91665 21.4152 3.06251 21.6242C3.20519 21.8287 3.40429 21.9871 3.63536 22.0802L13.1193 26.4228L13.8274 26.7471V25.9682V14.7732V14.4543L13.5382 14.3198L3.54268 9.67186L2.83185 9.34133V10.1252V20.9038ZM16.8677 26.4227L26.3332 22.0809C26.5772 21.9844 26.7864 21.8163 26.9332 21.5986C27.0823 21.3773 27.1597 21.1155 27.1548 20.8488V10.1252V9.34133L26.444 9.67186L16.4485 14.3198L16.1593 14.4543V14.7732V25.9682V26.7477L16.8677 26.4227Z" fill="#0BC582" stroke="#1F5B46"/>
</svg>
