<svg width="16" height="16" viewBox="0 0 16 16" fill="none" xmlns="http://www.w3.org/2000/svg">
<path d="M7.99992 1.33337C11.6818 1.33337 14.6666 4.31814 14.6666 8.00004C14.6666 11.6819 11.6818 14.6667 7.99992 14.6667C4.31802 14.6667 1.33325 11.6819 1.33325 8.00004C1.33325 4.31814 4.31802 1.33337 7.99992 1.33337ZM10.6695 8.58517C10.4392 8.23557 10.2731 7.98311 9.64139 8.08324C8.44772 8.27271 8.31539 8.48164 8.25839 8.82504L8.24232 8.92957L8.22612 9.03984C8.16099 9.49524 8.16345 9.66751 8.37252 9.88724C9.21599 10.7722 9.72125 11.41 9.87432 11.7831C9.94905 11.9656 10.1412 12.5168 10.009 13.0618C10.8247 12.7378 11.5437 12.2222 12.1101 11.5706C12.1836 11.3214 12.2367 11.0111 12.2367 10.6346V10.5648C12.2367 9.94984 12.2367 9.66937 11.802 9.42097C11.6186 9.31677 11.4817 9.25404 11.3721 9.20431C11.1273 9.09297 10.9652 9.01984 10.7465 8.69997C10.7204 8.66191 10.6949 8.62391 10.6695 8.58517ZM7.99992 2.55559C6.45498 2.55559 5.06033 3.19909 4.06939 4.23268C4.18736 4.31461 4.29017 4.42973 4.36078 4.58841C4.49678 4.89357 4.49678 5.20751 4.49678 5.48513C4.49651 5.70418 4.4962 5.91151 4.56653 6.06205C4.66287 6.2676 5.07752 6.35489 5.44357 6.43161C5.57436 6.45915 5.70922 6.48726 5.8319 6.52121C6.16929 6.61493 6.43028 6.91771 6.63951 7.16084C6.72632 7.26211 6.85452 7.41091 6.91879 7.44784C6.95232 7.42377 7.05992 7.30724 7.11319 7.11571C7.15372 6.96984 7.14219 6.83984 7.08252 6.76957C6.70979 6.32967 6.73005 5.48217 6.84525 5.17001C7.02672 4.67741 7.59359 4.71376 8.00792 4.74069C8.16245 4.75063 8.30832 4.76019 8.41705 4.74655C8.83205 4.69448 8.95965 4.06363 9.04992 3.94004C9.24465 3.67325 9.84039 3.27144 10.2105 3.02307C9.53492 2.72259 8.78692 2.55559 7.99992 2.55559Z" fill="#30A1EE"/>
</svg>
