<svg width="16" height="16" viewBox="0 0 16 16" fill="none" xmlns="http://www.w3.org/2000/svg">
<rect x="1.30908" y="1.7019" width="13.4245" height="13.1571" rx="1.40969" stroke="#1DA1F2" stroke-width="1.75"/>
<path d="M6.55856 7.51463C6.52819 7.40906 6.48553 7.31578 6.43057 7.2348C6.37562 7.15236 6.30837 7.08295 6.22883 7.02655C6.15074 6.9687 6.06108 6.92459 5.95984 6.89422C5.86006 6.86385 5.74942 6.84867 5.62794 6.84867C5.40089 6.84867 5.20132 6.90507 5.02923 7.01787C4.85858 7.13067 4.72553 7.29481 4.63008 7.51029C4.53463 7.72433 4.48691 7.98609 4.48691 8.29557C4.48691 8.60505 4.53391 8.86826 4.62791 9.08518C4.72191 9.30211 4.85496 9.4677 5.02706 9.58195C5.19915 9.69475 5.40234 9.75115 5.63662 9.75115C5.84921 9.75115 6.03071 9.71355 6.18111 9.63835C6.33296 9.5617 6.44865 9.45396 6.52819 9.31513C6.60918 9.17629 6.64967 9.01215 6.64967 8.8227L6.84057 8.8509H5.69519V8.14372H7.55426V8.70339C7.55426 9.09386 7.47182 9.42937 7.30696 9.70993C7.14209 9.98905 6.91504 10.2045 6.62581 10.3564C6.33657 10.5068 6.0054 10.582 5.63228 10.582C5.21578 10.582 4.8499 10.4901 4.53463 10.3065C4.21936 10.1214 3.97351 9.85889 3.79708 9.51904C3.62209 9.17774 3.5346 8.77281 3.5346 8.30425C3.5346 7.94415 3.58666 7.6231 3.69079 7.34109C3.79636 7.05764 3.94387 6.81757 4.13332 6.62089C4.32277 6.42421 4.54331 6.27453 4.79494 6.17185C5.04658 6.06918 5.31918 6.01784 5.61276 6.01784C5.86439 6.01784 6.09868 6.05471 6.3156 6.12847C6.53253 6.20078 6.72487 6.30346 6.89263 6.43651C7.06183 6.56955 7.19994 6.72791 7.30696 6.91158C7.41398 7.09379 7.48267 7.29481 7.51304 7.51463H6.55856ZM9.1991 6.07858V10.5212H8.25981V6.07858H9.1991ZM9.97191 10.5212V6.07858H12.9134V6.853H10.9112V7.91161H12.7182V8.68604H10.9112V10.5212H9.97191Z" fill="#1DA1F2"/>
</svg>
