<svg width="25" height="23" viewBox="0 0 25 23" fill="none" xmlns="http://www.w3.org/2000/svg">
<path fill-rule="evenodd" clip-rule="evenodd" d="M17.7252 6.46751V6.52042H17.8116L17.7252 6.46751ZM22 9.08505L22.3475 9.2978C22.9362 9.65831 23.7057 9.47328 24.0662 8.88453C24.4267 8.29577 24.2417 7.52625 23.653 7.16575L13.5357 0.970765C13.0648 0.682438 12.4736 0.676108 11.9967 0.954283L1.37043 7.15201C0.774097 7.49982 0.572627 8.26521 0.920439 8.86155C1.26825 9.45788 2.03364 9.65935 2.62997 9.31154L3 9.09572V20.0299C3 21.1345 3.89543 22.0299 5 22.0299H20C21.1046 22.0299 22 21.1345 22 20.0299V9.08505Z" fill="#0D1114"/>
<rect x="6.84326" y="12.2318" width="8" height="8" rx="3" transform="rotate(-45 6.84326 12.2318)" fill="white"/>
</svg>
