<svg width="24" height="24" viewBox="0 0 24 24" fill="none" xmlns="http://www.w3.org/2000/svg">
<path fill-rule="evenodd" clip-rule="evenodd" d="M4 4.75H20.0957C20.2338 4.75 20.3457 4.86193 20.3457 5V10.8086H22.0957V5C22.0957 3.89543 21.2003 3 20.0957 3H4C2.89543 3 2 3.89543 2 5V18.5694C2 19.6739 2.89543 20.5694 4 20.5694H13.0526V18.8194H4C3.86193 18.8194 3.75 18.7074 3.75 18.5694V5C3.75 4.86193 3.86193 4.75 4 4.75Z" fill="#3F4347"/>
<path d="M3.00488 8.16742L12.0479 11.5837L21.091 8.16742" stroke="#3F4347" stroke-width="1.75"/>
<path d="M18.579 14.4546L15.8321 17.7079C15.8227 17.7191 15.8227 17.7355 15.8321 17.7466L18.579 21" stroke="#3F4347" stroke-width="1.5" stroke-linecap="round"/>
<path d="M16.3684 17.7273H23" stroke="#3F4347" stroke-width="1.5" stroke-linecap="square"/>
</svg>
