<svg width="24" height="24" viewBox="0 0 24 24" fill="none" xmlns="http://www.w3.org/2000/svg">
<path fill-rule="evenodd" clip-rule="evenodd" d="M4 4.75H18.1818C18.3199 4.75 18.4318 4.86193 18.4318 5V10.1579H20.1818V5C20.1818 3.89543 19.2864 3 18.1818 3H4C2.89543 3 2 3.89543 2 5V17.1053C2 18.2098 2.89543 19.1053 4 19.1053H12V17.3553H4C3.86193 17.3553 3.75 17.2433 3.75 17.1053V5C3.75 4.86193 3.86193 4.75 4 4.75Z" fill="#3F4347"/>
<path d="M2.90918 7.73682L11.091 10.8684L19.2728 7.73682" stroke="#3F4347" stroke-width="1.75"/>
<line x1="14.7273" y1="17.2829" x2="22" y2="17.2829" stroke="#3F4347" stroke-width="1.75"/>
<line x1="18.3977" y1="21" x2="18.3977" y2="13.4211" stroke="#3F4347" stroke-width="1.75"/>
</svg>
