<svg width="25" height="25" viewBox="0 0 25 25" fill="none" xmlns="http://www.w3.org/2000/svg">
<path d="M15.875 6C18.1535 6 20 7.875 20 10.5C20 15.75 14.375 18.75 12.5 19.875C10.625 18.75 5 15.75 5 10.5C5 7.875 6.875 6 9.125 6C10.52 6 11.75 6.75 12.5 7.5C13.25 6.75 14.48 6 15.875 6ZM13.2005 17.703C13.8613 17.286 14.4575 16.8713 15.0155 16.4273C17.2513 14.6498 18.5 12.7073 18.5 10.5C18.5 8.73 17.3473 7.5 15.875 7.5C15.068 7.5 14.195 7.9275 13.5605 8.5605L12.5 9.621L11.4395 8.5605C10.805 7.9275 9.932 7.5 9.125 7.5C7.67 7.5 6.5 8.742 6.5 10.5C6.5 12.708 7.7495 14.6498 9.98375 16.4273C10.5425 16.8713 11.1388 17.286 11.7995 17.7023C12.0238 17.844 12.2458 17.9798 12.5 18.1313C12.7543 17.9798 12.9763 17.844 13.2005 17.703Z" fill="#828689"/>
</svg>
