<svg width="24" height="24" viewBox="0 0 24 24" fill="none" xmlns="http://www.w3.org/2000/svg">
<path d="M12.0007 5.37565C14.1148 3.47801 17.3817 3.54101 19.418 5.5816C21.4544 7.62218 21.5244 10.8732 19.6304 12.9935L11.9997 20.6362L4.36921 12.9935C2.47535 10.8732 2.54615 7.61704 4.58159 5.5816C6.61934 3.54384 9.88054 3.47519 12.0007 5.37565ZM18.144 6.85304C16.7949 5.50112 14.6166 5.44628 13.2031 6.71513L12.0015 7.79365L10.7993 6.71598C9.38176 5.44535 7.20747 5.50124 5.85436 6.85436C4.51362 8.1951 4.44631 10.3425 5.68189 11.7607L11.9997 18.0886L18.3178 11.7607C19.5538 10.3419 19.4868 8.19865 18.144 6.85304Z" fill="#828689"/>
</svg>
