<svg width="23" height="28" viewBox="0 0 23 28" fill="none" xmlns="http://www.w3.org/2000/svg">
<path d="M21.2778 27.88H1.72222C1.39807 27.88 1.08719 27.7358 0.857981 27.479C0.628769 27.2223 0.5 26.8741 0.5 26.511V1.869C0.5 1.50592 0.628769 1.15771 0.857981 0.900971C1.08719 0.644233 1.39807 0.5 1.72222 0.5H21.2778C21.6019 0.5 21.9128 0.644233 22.142 0.900971C22.3712 1.15771 22.5 1.50592 22.5 1.869V26.511C22.5 26.8741 22.3712 27.2223 22.142 27.479C21.9128 27.7358 21.6019 27.88 21.2778 27.88ZM20.0556 25.142V3.238H2.94444V25.142H20.0556ZM6.61111 10.083H16.3889V12.821H6.61111V10.083ZM6.61111 15.559H16.3889V18.297H6.61111V15.559Z" fill="black"/>
</svg>
