<svg width="14" height="16" viewBox="0 0 14 16" fill="none" xmlns="http://www.w3.org/2000/svg">
<path d="M6.78616 13.7815L10.2814 10.3559C10.9726 9.67838 11.4433 8.8152 11.634 7.87551C11.8247 6.93581 11.7268 5.96181 11.3526 5.07665C10.9785 4.1915 10.345 3.43495 9.53217 2.90267C8.71934 2.37039 7.76373 2.08629 6.78616 2.08629C5.80859 2.08629 4.85297 2.37039 4.04015 2.90267C3.22732 3.43495 2.5938 4.1915 2.21967 5.07665C1.84555 5.96181 1.74764 6.93581 1.93832 7.87551C2.12899 8.8152 2.5997 9.67838 3.29091 10.3559L6.78616 13.7815ZM6.78616 15.7386L2.29247 11.3344C1.40371 10.4634 0.798462 9.35358 0.553259 8.14539C0.308056 6.9372 0.433911 5.68488 0.914908 4.54679C1.39591 3.4087 2.21044 2.43596 3.25552 1.75158C4.30059 1.06719 5.52926 0.701904 6.78616 0.701904C8.04306 0.701904 9.27173 1.06719 10.3168 1.75158C11.3619 2.43596 12.1764 3.4087 12.6574 4.54679C13.1384 5.68488 13.2643 6.9372 13.0191 8.14539C12.7739 9.35358 12.1686 10.4634 11.2799 11.3344L6.78616 15.7386ZM6.78616 8.31435C7.1607 8.31435 7.51991 8.16853 7.78475 7.90896C8.04959 7.64939 8.19838 7.29734 8.19838 6.93026C8.19838 6.56318 8.04959 6.21113 7.78475 5.95156C7.51991 5.69199 7.1607 5.54617 6.78616 5.54617C6.41161 5.54617 6.05241 5.69199 5.78757 5.95156C5.52272 6.21113 5.37394 6.56318 5.37394 6.93026C5.37394 7.29734 5.52272 7.64939 5.78757 7.90896C6.05241 8.16853 6.41161 8.31435 6.78616 8.31435ZM6.78616 9.69844C6.03707 9.69844 5.31866 9.4068 4.78897 8.88766C4.25929 8.36853 3.96171 7.66443 3.96171 6.93026C3.96171 6.19609 4.25929 5.49199 4.78897 4.97286C5.31866 4.45372 6.03707 4.16208 6.78616 4.16208C7.53525 4.16208 8.25366 4.45372 8.78334 4.97286C9.31303 5.49199 9.6106 6.19609 9.6106 6.93026C9.6106 7.66443 9.31303 8.36853 8.78334 8.88766C8.25366 9.4068 7.53525 9.69844 6.78616 9.69844Z" fill="#1DA1F2"/>
</svg>
