<svg width="32" height="32" viewBox="0 0 32 32" fill="none" xmlns="http://www.w3.org/2000/svg">
<path d="M17.2532 29.3333H14.7332C14.1391 29.3333 13.5693 29.0973 13.1493 28.6772C12.7292 28.2571 12.4932 27.6874 12.4932 27.0933V25.64C12.4859 25.5543 12.4545 25.4725 12.4026 25.4041C12.3507 25.3356 12.2804 25.2833 12.1998 25.2533C12.1183 25.201 12.0234 25.1732 11.9265 25.1732C11.8296 25.1732 11.7348 25.201 11.6532 25.2533L10.6665 26.32C10.4595 26.5284 10.2134 26.6938 9.94222 26.8067C9.67105 26.9196 9.38023 26.9777 9.0865 26.9777C8.79278 26.9777 8.50196 26.9196 8.23079 26.8067C7.95962 26.6938 7.71347 26.5284 7.5065 26.32L5.67984 24.5333C5.4684 24.3267 5.30047 24.0799 5.18597 23.8074C5.07147 23.5349 5.01271 23.2422 5.01317 22.9466C5.01403 22.342 5.25363 21.7622 5.67984 21.3333L6.6665 20.3466C6.71414 20.2732 6.73949 20.1875 6.73949 20.1C6.73949 20.0124 6.71414 19.9267 6.6665 19.8533C6.5865 19.6533 6.45317 19.5066 6.2665 19.5066H4.9065C4.3112 19.5031 3.74147 19.2641 3.32177 18.8419C2.90207 18.4197 2.66649 17.8486 2.6665 17.2533V14.7333C2.6665 14.1392 2.9025 13.5695 3.32258 13.1494C3.74267 12.7293 4.31242 12.4933 4.9065 12.4933H6.35984C6.44546 12.4861 6.52727 12.4547 6.59573 12.4027C6.66419 12.3508 6.71648 12.2805 6.7465 12.2C6.79877 12.1184 6.82656 12.0235 6.82656 11.9266C6.82656 11.8297 6.79877 11.7349 6.7465 11.6533L5.67984 10.6666C5.47142 10.4597 5.306 10.2135 5.19312 9.94234C5.08025 9.67117 5.02213 9.38035 5.02213 9.08663C5.02213 8.7929 5.08025 8.50208 5.19312 8.23091C5.306 7.95975 5.47142 7.71359 5.67984 7.50663L7.4665 5.67996C7.67103 5.46952 7.9156 5.30213 8.1858 5.18763C8.456 5.07314 8.74638 5.01387 9.03984 5.01329C9.3415 5.01197 9.64046 5.07017 9.91959 5.18457C10.1987 5.29897 10.4525 5.46731 10.6665 5.67996L11.6532 6.66663C11.7266 6.71426 11.8123 6.73961 11.8998 6.73961C11.9874 6.73961 12.0731 6.71426 12.1465 6.66663C12.3465 6.58663 12.4932 6.45329 12.4932 6.26663V4.90663C12.4967 4.31132 12.7357 3.74159 13.1579 3.32189C13.5801 2.90219 14.1512 2.66662 14.7465 2.66663H17.3332C17.9273 2.66663 18.497 2.90263 18.9171 3.32271C19.3372 3.74279 19.5732 4.31254 19.5732 4.90663V6.35996C19.5804 6.44558 19.6118 6.52739 19.6637 6.59585C19.7157 6.66431 19.786 6.7166 19.8665 6.74663C19.9481 6.7989 20.0429 6.82668 20.1398 6.82668C20.2367 6.82668 20.3316 6.7989 20.4132 6.74663L21.3332 5.67996C21.5401 5.47154 21.7863 5.30613 22.0575 5.19325C22.3286 5.08037 22.6194 5.02226 22.9132 5.02226C23.2069 5.02226 23.4977 5.08037 23.7689 5.19325C24.0401 5.30613 24.2862 5.47154 24.4932 5.67996L26.3198 7.46663C26.5307 7.67364 26.6982 7.92054 26.8127 8.19295C26.9271 8.46535 26.9862 8.75782 26.9865 9.05329C26.9929 9.35368 26.937 9.65215 26.8223 9.92984C26.7075 10.2075 26.5364 10.4584 26.3198 10.6666L25.3332 11.6533C25.2855 11.7267 25.2602 11.8124 25.2602 11.9C25.2602 11.9875 25.2855 12.0732 25.3332 12.1466C25.4132 12.3466 25.5465 12.4933 25.7332 12.4933H27.1865C27.7654 12.5207 28.3116 12.7702 28.7113 13.1898C29.1111 13.6095 29.3338 14.167 29.3332 14.7466V17.3333C29.3332 17.9274 29.0972 18.4971 28.6771 18.9172C28.257 19.3373 27.6873 19.5733 27.0932 19.5733H25.6398C25.5542 19.5805 25.4724 19.6119 25.4039 19.6639C25.3355 19.7158 25.2832 19.7861 25.2532 19.8666C25.2055 19.9401 25.1802 20.0257 25.1802 20.1133C25.1802 20.2008 25.2055 20.2865 25.2532 20.36L26.2798 21.3866C26.4883 21.5936 26.6537 21.8397 26.7666 22.1109C26.8794 22.3821 26.9375 22.6729 26.9375 22.9666C26.9375 23.2604 26.8794 23.5512 26.7666 23.8223C26.6537 24.0935 26.4883 24.3397 26.2798 24.5466L24.5332 26.32C24.3286 26.5304 24.0841 26.6978 23.8139 26.8123C23.5437 26.9268 23.2533 26.9861 22.9598 26.9866C22.3645 26.9788 21.7955 26.7397 21.3732 26.32L20.3465 25.3333C20.2731 25.2857 20.1874 25.2603 20.0998 25.2603C20.0123 25.2603 19.9266 25.2857 19.8532 25.3333C19.6532 25.4133 19.5065 25.5466 19.5065 25.7333V27.1866C19.4791 27.7656 19.2296 28.3117 18.81 28.7115C18.3903 29.1112 17.8328 29.3339 17.2532 29.3333ZM15.1598 26.6666H16.8398V25.64C16.8455 25.0251 17.0335 24.4257 17.3801 23.9178C17.7266 23.4099 18.2161 23.0162 18.7865 22.7866C19.3593 22.5363 19.9936 22.4622 20.6087 22.5738C21.2237 22.6854 21.7916 22.9776 22.2398 23.4133L22.9598 24.1333L24.1332 22.96L23.4132 22.2266C22.9803 21.7851 22.6883 21.225 22.5744 20.6172C22.4604 20.0095 22.5296 19.3816 22.7732 18.8133C23.0048 18.2454 23.3994 17.7587 23.9071 17.4147C24.4149 17.0706 25.0132 16.8846 25.6265 16.88H26.6665V15.16H25.6398C25.025 15.1543 24.4256 14.9663 23.9177 14.6197C23.4098 14.2732 23.0161 13.7837 22.7865 13.2133C22.5361 12.6405 22.462 12.0062 22.5737 11.3911C22.6853 10.7761 22.9775 10.2082 23.4132 9.75996L24.1332 9.03996L22.9598 7.86663L22.2265 8.58663C21.7781 8.99618 21.2221 9.26909 20.6238 9.37323C20.0256 9.47737 19.41 9.4084 18.8496 9.17444C18.2892 8.94048 17.8074 8.55127 17.4608 8.05265C17.1141 7.55402 16.9172 6.96674 16.8932 6.35996V5.33329H15.1598V6.35996C15.1542 6.97482 14.9661 7.57417 14.6196 8.08211C14.2731 8.59005 13.7836 8.98373 13.2132 9.21329C12.6404 9.46365 12.0061 9.53776 11.391 9.42615C10.776 9.31453 10.2081 9.02227 9.75984 8.58663L9.03984 7.86663L7.8665 9.03996L8.5865 9.77329C8.99606 10.2217 9.26897 10.7777 9.37311 11.376C9.47725 11.9742 9.40828 12.5898 9.17432 13.1502C8.94036 13.7106 8.55115 14.1924 8.05253 14.539C7.5539 14.8857 6.96662 15.0826 6.35984 15.1066H5.33317V16.7866H6.35984C6.9747 16.7923 7.57405 16.9803 8.08199 17.3269C8.58992 17.6734 8.9836 18.1629 9.21317 18.7333C9.46353 19.3061 9.53763 19.9404 9.42602 20.5554C9.31441 21.1705 9.02215 21.7384 8.5865 22.1866L7.8665 22.9066L9.03984 24.08L9.77317 23.36C10.2215 22.9504 10.7776 22.6775 11.3759 22.5734C11.9741 22.4692 12.5897 22.5382 13.1501 22.7721C13.7104 23.0061 14.1923 23.3953 14.5389 23.8939C14.8855 24.3926 15.0825 24.9798 15.1065 25.5866L15.1598 26.6666Z" fill="#181818"/>
<path d="M16.0002 20.6667C15.0772 20.6667 14.1749 20.393 13.4075 19.8802C12.6401 19.3675 12.0419 18.6386 11.6887 17.7859C11.3355 16.9332 11.2431 15.9949 11.4232 15.0896C11.6032 14.1844 12.0477 13.3529 12.7003 12.7002C13.353 12.0476 14.1845 11.6031 15.0897 11.423C15.995 11.243 16.9333 11.3354 17.786 11.6886C18.6387 12.0418 19.3676 12.64 19.8804 13.4074C20.3931 14.1748 20.6668 15.0771 20.6668 16C20.6668 17.2377 20.1752 18.4247 19.3 19.2999C18.4248 20.175 17.2378 20.6667 16.0002 20.6667ZM16.0002 14C15.6046 14 15.2179 14.1173 14.889 14.3371C14.5601 14.5569 14.3038 14.8692 14.1524 15.2347C14.001 15.6001 13.9614 16.0023 14.0386 16.3902C14.1158 16.7782 14.3062 17.1346 14.586 17.4143C14.8657 17.694 15.222 17.8844 15.61 17.9616C15.9979 18.0388 16.4001 17.9992 16.7655 17.8478C17.131 17.6964 17.4433 17.4401 17.6631 17.1112C17.8829 16.7823 18.0002 16.3956 18.0002 16C18.0002 15.4696 17.7895 14.9609 17.4144 14.5858C17.0393 14.2108 16.5306 14 16.0002 14Z" fill="#181818"/>
</svg>
