<svg width="31" height="31" viewBox="0 0 31 31" fill="none" xmlns="http://www.w3.org/2000/svg">
<path d="M15.5002 13.9242C16.522 13.9242 17.521 13.6272 18.3706 13.0708C19.2203 12.5145 19.8825 11.7237 20.2735 10.7985C20.6646 9.87327 20.7669 8.8552 20.5676 7.87301C20.3682 6.89082 19.8761 5.98862 19.1535 5.2805C18.431 4.57238 17.5104 4.09015 16.5081 3.89478C15.5059 3.69941 14.467 3.79968 13.523 4.18291C12.5789 4.56614 11.772 5.21512 11.2042 6.04778C10.6365 6.88044 10.3335 7.85939 10.3335 8.86082C10.3335 10.2037 10.8778 11.4916 11.8468 12.4411C12.8157 13.3907 14.1299 13.9242 15.5002 13.9242ZM15.5002 6.32915C16.0111 6.32915 16.5106 6.47763 16.9354 6.75582C17.3602 7.034 17.6913 7.42939 17.8869 7.89199C18.0824 8.3546 18.1335 8.86363 18.0339 9.35472C17.9342 9.84582 17.6881 10.2969 17.3269 10.651C16.9656 11.005 16.5053 11.2462 16.0041 11.3438C15.503 11.4415 14.9836 11.3914 14.5116 11.1998C14.0395 11.0082 13.6361 10.6837 13.3522 10.2673C13.0683 9.85101 12.9168 9.36154 12.9168 8.86082C12.9168 8.18938 13.189 7.54544 13.6735 7.07066C14.1579 6.59588 14.815 6.32915 15.5002 6.32915Z" fill="black"/>
<path d="M15.5002 16.4558C13.1022 16.4558 10.8024 17.3894 9.10674 19.0511C7.4111 20.7128 6.4585 22.9666 6.4585 25.3166C6.4585 25.6524 6.59458 25.9743 6.83682 26.2117C7.07905 26.4491 7.40759 26.5825 7.75016 26.5825C8.09273 26.5825 8.42127 26.4491 8.66351 26.2117C8.90574 25.9743 9.04183 25.6524 9.04183 25.3166C9.04183 23.638 9.72226 22.0282 10.9334 20.8412C12.1446 19.6543 13.7873 18.9875 15.5002 18.9875C17.213 18.9875 18.8557 19.6543 20.0669 20.8412C21.2781 22.0282 21.9585 23.638 21.9585 25.3166C21.9585 25.6524 22.0946 25.9743 22.3368 26.2117C22.5791 26.4491 22.9076 26.5825 23.2502 26.5825C23.5927 26.5825 23.9213 26.4491 24.1635 26.2117C24.4057 25.9743 24.5418 25.6524 24.5418 25.3166C24.5418 22.9666 23.5892 20.7128 21.8936 19.0511C20.1979 17.3894 17.8982 16.4558 15.5002 16.4558Z" fill="black"/>
</svg>
