<svg width="25" height="25" viewBox="0 0 25 25" fill="none" xmlns="http://www.w3.org/2000/svg">
<path d="M9.402 18.0913V19.4416C9.4021 19.5081 9.38326 19.5732 9.34767 19.6293C9.31208 19.6855 9.26122 19.7303 9.20106 19.7585C9.1409 19.7868 9.07393 19.7973 9.00801 19.7888C8.94209 19.7803 8.87995 19.7532 8.82888 19.7107L5.94935 17.3113C5.89412 17.2653 5.85444 17.2033 5.83573 17.1339C5.81702 17.0644 5.82019 16.9909 5.8448 16.9233C5.86941 16.8558 5.91427 16.7974 5.97326 16.7563C6.03225 16.7152 6.10249 16.6932 6.1744 16.6935H16.3912C16.7619 16.6935 17.1174 16.5462 17.3796 16.2841C17.6417 16.0219 17.789 15.6664 17.789 15.2956V9.70431H19.1868V15.2956C19.1868 16.0371 18.8923 16.7482 18.368 17.2725C17.8437 17.7968 17.1326 18.0913 16.3912 18.0913H9.402ZM14.9933 6.90865V5.55834C14.9932 5.49188 15.0121 5.42676 15.0477 5.37064C15.0832 5.31451 15.1341 5.26969 15.1943 5.24144C15.2544 5.2132 15.3214 5.20269 15.3873 5.21116C15.4532 5.21963 15.5154 5.24672 15.5664 5.28926L18.446 7.68864C18.5012 7.73466 18.5408 7.79657 18.5595 7.86593C18.5783 7.9353 18.5752 8.00876 18.5506 8.0763C18.5261 8.14384 18.4814 8.20217 18.4225 8.24336C18.3636 8.28455 18.2935 8.30659 18.2216 8.30648H8.00416C7.63343 8.30648 7.27789 8.45375 7.01575 8.7159C6.7536 8.97804 6.60633 9.33358 6.60633 9.70431V15.2956H5.2085V9.70431C5.2085 8.96286 5.50304 8.25177 6.02733 7.72748C6.55162 7.20319 7.26271 6.90865 8.00416 6.90865H14.9933Z" fill="#828689"/>
</svg>
