<svg width="24" height="24" viewBox="0 0 24 24" fill="none" xmlns="http://www.w3.org/2000/svg">
<path d="M19.5 16.075H18.0623L18.0623 9.12503C18.0623 8.2966 17.3907 7.62503 16.5623 7.62503L11.9999 7.62503V6.00001L16.5 6.00001C18.1569 6.00001 19.5 7.34315 19.5 9.00001V16.075Z" fill="#828689"/>
<path d="M20.4687 17.375L18.9374 19L17.4061 17.375L15.8749 15.75L17.0233 15.75H18.9374H20.8515H22L20.4687 17.375Z" fill="#828689"/>
<path d="M5.5 8.92499H6.93771L6.93771 15.875C6.93771 16.7034 7.60928 17.375 8.43771 17.375H13.0001V19H8.5C6.84315 19 5.5 17.6568 5.5 16V8.92499Z" fill="#828689"/>
<path d="M4.5313 7.625L6.06261 6L7.59391 7.625L9.12511 9.25L7.97673 9.25H6.06261H4.14848H3L4.5313 7.625Z" fill="#828689"/>
</svg>
