<svg width="25" height="25" viewBox="0 0 25 25" fill="none" xmlns="http://www.w3.org/2000/svg">
<path d="M10.1935 17.883V19.2333C10.1936 19.2998 10.1748 19.3649 10.1392 19.421C10.1036 19.4771 10.0527 19.522 9.99256 19.5502C9.9324 19.5784 9.86543 19.589 9.79951 19.5805C9.73359 19.572 9.67146 19.5449 9.62039 19.5024L6.74085 17.103C6.68562 17.057 6.64595 16.995 6.62724 16.9255C6.60853 16.8561 6.61169 16.7826 6.63631 16.715C6.66092 16.6474 6.70578 16.5891 6.76476 16.548C6.82375 16.5068 6.89399 16.4849 6.9659 16.4852H17.1827C17.5534 16.4852 17.9089 16.3379 18.1711 16.0758C18.4332 15.8136 18.5805 15.4581 18.5805 15.0873V9.496H19.9783V15.0873C19.9783 15.8288 19.6838 16.5399 19.1595 17.0642C18.6352 17.5885 17.9241 17.883 17.1827 17.883H10.1935ZM15.7848 6.70033V5.35003C15.7847 5.28357 15.8036 5.21845 15.8392 5.16232C15.8748 5.10619 15.9256 5.06138 15.9858 5.03313C16.0459 5.00488 16.1129 4.99438 16.1788 5.00285C16.2447 5.01132 16.3069 5.03841 16.3579 5.08094L19.2375 7.48032C19.2927 7.52634 19.3323 7.58825 19.351 7.65762C19.3698 7.72699 19.3667 7.80045 19.3421 7.86798C19.3176 7.93552 19.2729 7.99386 19.214 8.03505C19.1551 8.07624 19.085 8.09828 19.0131 8.09817H8.79567C8.42494 8.09817 8.06939 8.24544 7.80725 8.50758C7.5451 8.76973 7.39783 9.12527 7.39783 9.496V15.0873H6V9.496C6 8.75454 6.29454 8.04345 6.81883 7.51917C7.34312 6.99488 8.05421 6.70033 8.79567 6.70033H15.7848Z" fill="#0F0F0F"/>
</svg>
