<svg width="22" height="21" viewBox="0 0 22 21" fill="none" xmlns="http://www.w3.org/2000/svg">
<path d="M18.6865 17.0634L15.6979 14.143C16.6622 12.939 17.1854 11.4523 17.1834 9.92174C17.1834 8.55866 16.771 7.2262 15.9983 6.09284C15.2257 4.95949 14.1274 4.07615 12.8425 3.55452C11.5576 3.03289 10.1437 2.89641 8.77968 3.16233C7.41562 3.42826 6.16266 4.08464 5.17923 5.04848C4.1958 6.01232 3.52608 7.24032 3.25475 8.57721C2.98342 9.91409 3.12268 11.2998 3.6549 12.5591C4.18713 13.8184 5.08843 14.8948 6.24482 15.6521C7.40121 16.4094 8.76076 16.8136 10.1515 16.8136C11.7132 16.8155 13.2301 16.3027 14.4586 15.3577L17.4383 18.2867C17.5201 18.3674 17.6173 18.4315 17.7244 18.4753C17.8315 18.519 17.9464 18.5415 18.0624 18.5415C18.1785 18.5415 18.2934 18.519 18.4005 18.4753C18.5076 18.4315 18.6048 18.3674 18.6865 18.2867C18.7689 18.2066 18.8343 18.1113 18.8789 18.0063C18.9235 17.9014 18.9465 17.7888 18.9465 17.675C18.9465 17.5613 18.9235 17.4487 18.8789 17.3437C18.8343 17.2388 18.7689 17.1435 18.6865 17.0634ZM4.87761 9.92174C4.87761 8.89943 5.18692 7.90008 5.76642 7.05007C6.34593 6.20005 7.16961 5.53754 8.13329 5.14632C9.09697 4.7551 10.1574 4.65274 11.1804 4.85218C12.2035 5.05163 13.1432 5.54391 13.8808 6.26679C14.6183 6.98967 15.1206 7.91068 15.3241 8.91334C15.5276 9.916 15.4232 10.9553 15.024 11.8998C14.6248 12.8443 13.9489 13.6515 13.0816 14.2195C12.2143 14.7875 11.1946 15.0906 10.1515 15.0906C8.7528 15.0906 7.41136 14.546 6.42231 13.5767C5.43325 12.6073 4.87761 11.2926 4.87761 9.92174Z" fill="#888686"/>
</svg>
