<svg width="25" height="25" viewBox="0 0 25 25" fill="none" xmlns="http://www.w3.org/2000/svg">
<path d="M7.94271 17.2526C7.94271 17.0282 7.85354 16.8129 7.69482 16.6542C7.53609 16.4954 7.32082 16.4063 7.09635 16.4063C6.87189 16.4063 6.65661 16.4954 6.49789 16.6542C6.33917 16.8129 6.25 17.0282 6.25 17.2526V18.9453C6.25 19.1698 6.33917 19.3851 6.49789 19.5438C6.65661 19.7025 6.87189 19.7917 7.09635 19.7917H18.9453C19.1698 19.7917 19.3851 19.7025 19.5438 19.5438C19.7025 19.3851 19.7917 19.1698 19.7917 18.9453V17.2526C19.7917 17.0282 19.7025 16.8129 19.5438 16.6542C19.3851 16.4954 19.1698 16.4063 18.9453 16.4063C18.7208 16.4063 18.5056 16.4954 18.3468 16.6542C18.1881 16.8129 18.099 17.0282 18.099 17.2526V18.099H7.94271V17.2526Z" fill="#828689"/>
<path d="M12.5297 5.55597L9.14426 7.94269C8.9618 8.07213 8.83801 8.26854 8.79994 8.48899C8.76188 8.70944 8.81264 8.93599 8.94114 9.11912C9.00528 9.21066 9.08692 9.28858 9.18134 9.34839C9.27576 9.40821 9.38109 9.44873 9.49126 9.46761C9.60142 9.4865 9.71424 9.48338 9.82319 9.45843C9.93214 9.43348 10.0351 9.38719 10.126 9.32225L12.1742 7.86652V14.7135C12.1742 14.938 12.2634 15.1533 12.4221 15.312C12.5808 15.4707 12.7961 15.5599 13.0206 15.5599C13.245 15.5599 13.4603 15.4707 13.619 15.312C13.7778 15.1533 13.8669 14.938 13.8669 14.7135V7.94269L15.8982 9.46613C15.9871 9.53281 16.0883 9.58133 16.1959 9.60892C16.3036 9.6365 16.4156 9.64261 16.5257 9.62689C16.6357 9.61117 16.7416 9.57394 16.8372 9.51731C16.9328 9.46068 17.0164 9.38577 17.0831 9.29686C17.1929 9.15035 17.2523 8.97217 17.2523 8.78904C17.2523 8.65765 17.2217 8.52806 17.163 8.41054C17.1042 8.29302 17.0189 8.1908 16.9138 8.11196L13.5284 5.5729C13.3852 5.4645 13.2113 5.40444 13.0318 5.4014C12.8523 5.39836 12.6764 5.45249 12.5297 5.55597Z" fill="#828689"/>
</svg>
