<svg width="16" height="16" viewBox="0 0 16 16" fill="none" xmlns="http://www.w3.org/2000/svg">
<path d="M8.02078 15.7988C3.78399 15.7988 0.349609 12.4328 0.349609 8.28044C0.349609 4.12805 3.78399 0.762085 8.02078 0.762085C12.2576 0.762085 15.6919 4.12805 15.6919 8.28044C15.6919 12.4328 12.2576 15.7988 8.02078 15.7988ZM8.02078 14.2951C9.64839 14.2951 11.2093 13.6614 12.3602 12.5335C13.5111 11.4055 14.1577 9.87563 14.1577 8.28044C14.1577 6.68525 13.5111 5.15539 12.3602 4.02742C11.2093 2.89944 9.64839 2.26576 8.02078 2.26576C6.39316 2.26576 4.83221 2.89944 3.68131 4.02742C2.53041 5.15539 1.88384 6.68525 1.88384 8.28044C1.88384 9.87563 2.53041 11.4055 3.68131 12.5335C4.83221 13.6614 6.39316 14.2951 8.02078 14.2951ZM4.95231 9.03228H11.0892C11.0892 9.82987 10.766 10.5948 10.1905 11.1588C9.61506 11.7228 8.83458 12.0396 8.02078 12.0396C7.20697 12.0396 6.42649 11.7228 5.85104 11.1588C5.27559 10.5948 4.95231 9.82987 4.95231 9.03228Z" fill="black"/>
</svg>
