<svg width="24" height="24" viewBox="0 0 24 24" fill="none" xmlns="http://www.w3.org/2000/svg">
<path d="M11.6734 7.22259C10.7974 7.22259 9.44138 6.22659 8.01338 6.26259C6.12938 6.28659 4.40138 7.35459 3.42938 9.04659C1.47338 12.4426 2.92538 17.4586 4.83338 20.2186C5.76938 21.5626 6.87338 23.0746 8.33738 23.0266C9.74138 22.9666 10.2694 22.1146 11.9734 22.1146C13.6654 22.1146 14.1454 23.0266 15.6334 22.9906C17.1454 22.9666 18.1054 21.6226 19.0294 20.2666C20.0974 18.7066 20.5414 17.1946 20.5654 17.1106C20.5294 17.0986 17.6254 15.9826 17.5894 12.6226C17.5654 9.81459 19.8814 8.47059 19.9894 8.41059C18.6694 6.47859 16.6414 6.26259 15.9334 6.21459C14.0854 6.07059 12.5374 7.22259 11.6734 7.22259ZM14.7934 4.39059C15.5734 3.45459 16.0894 2.14659 15.9454 0.850586C14.8294 0.898586 13.4854 1.59459 12.6814 2.53059C11.9614 3.35859 11.3374 4.69059 11.5054 5.96259C12.7414 6.05859 14.0134 5.32659 14.7934 4.39059Z" fill="#333333"/>
</svg>
