<svg width="233" height="104" viewBox="0 0 233 104" fill="none" xmlns="http://www.w3.org/2000/svg">
<path d="M37.716 70.5613C37.716 71.6502 37.122 72.5659 35.9341 73.3083C34.7957 74.0508 33.7316 74.422 32.7416 74.422C30.8608 74.422 29.3512 74.1992 28.2128 73.7538C27.1238 73.2588 26.1092 72.3679 25.1687 71.081C23.8818 72.2194 22.1247 73.0856 19.8974 73.6795C17.6701 74.224 15.616 74.4962 13.7352 74.4962C10.6664 74.4962 8.1421 73.6795 6.16226 72.0462C4.18242 70.3633 3.1925 67.9132 3.1925 64.696C3.1925 63.3101 3.56372 62.048 4.30616 60.9096C5.0486 59.7216 6.06327 58.6822 7.35016 57.7913C8.78555 56.8509 10.4189 56.1332 12.2503 55.6382C14.0816 55.0938 15.9872 54.8215 17.9671 54.8215C19.0065 54.8215 20.2439 55.0195 21.6793 55.4155C23.1147 55.8115 24.2283 56.2322 25.0203 56.6776V55.4897C25.0203 52.8169 24.3768 50.9856 23.0899 49.9957C21.803 48.9563 19.7242 48.4365 16.8534 48.4365C16.012 48.4365 15.1705 48.6098 14.3291 48.9563C13.5372 49.3027 12.6215 49.7729 11.5821 50.3669C10.1962 51.1093 8.88454 51.4806 7.64714 51.4806C7.20168 51.4806 6.78096 51.1836 6.38499 50.5896C5.98902 49.9462 5.79104 49.377 5.79104 48.882C5.79104 47.4466 6.45924 46.2092 7.79563 45.1698C9.18152 44.1304 10.8149 43.3632 12.6957 42.8682C14.5766 42.3238 16.2595 42.0516 17.7443 42.0516C19.2292 42.0516 20.9368 42.3485 22.8672 42.9425C24.7975 43.4869 26.3814 44.2541 27.6188 45.2441C29.1037 46.5309 30.2421 48.0406 31.034 49.7729C31.8755 51.4558 32.2962 53.3119 32.2962 55.3412C32.2962 55.9847 32.2467 56.9499 32.1477 58.2368C32.0487 59.6227 31.9992 60.8106 31.9992 61.8005C31.9992 62.2459 31.9497 62.9141 31.8507 63.8051C31.7517 64.894 31.7022 65.7602 31.7022 66.4036C31.7022 66.9976 31.925 67.5173 32.3704 67.9627C32.8159 68.3587 33.3356 68.5567 33.9295 68.5567L36.0084 68.4824C36.5528 68.4824 36.9736 68.6804 37.2705 69.0764C37.5675 69.4724 37.716 69.9673 37.716 70.5613ZM13.8094 68.6309C15.9377 68.6309 17.7196 68.4082 19.155 67.9627C20.5904 67.5173 22.3227 66.7006 24.3521 65.5127C24.55 64.6713 24.6738 63.5576 24.7233 62.1717C22.001 60.8848 19.7489 60.2414 17.9671 60.2414C15.9377 60.2414 14.1311 60.6126 12.5473 61.355C10.9634 62.0975 10.1714 63.4091 10.1714 65.29C10.1714 66.2304 10.5674 67.0223 11.3593 67.6658C12.1513 68.3092 12.968 68.6309 13.8094 68.6309Z" fill="#272327"/>
<path d="M36.6159 47.6338C36.2639 47.6338 35.9339 47.5018 35.626 47.2378C35.362 46.9298 35.23 46.5779 35.23 46.1819C35.23 45.17 35.67 44.2241 36.5499 43.3441C36.8139 43.2121 37.3418 42.9922 38.1338 42.6842C38.9257 42.3762 39.6297 42.2222 40.2456 42.2222C41.9175 42.2222 43.2814 42.6842 44.3373 43.6081C45.3932 44.488 45.9212 45.7639 45.9212 47.4358C45.9212 47.9198 45.8332 48.9537 45.6572 50.5376C45.4812 52.3854 45.3932 53.8153 45.3932 54.8272C45.3932 57.907 45.8112 60.3928 46.6471 62.2846C46.9551 62.9006 47.439 63.3845 48.099 63.7365C48.7589 64.0885 49.3529 64.2645 49.8808 64.2645C51.1567 64.2645 52.1907 64.0445 52.9826 63.6045C53.7745 63.1646 54.6325 62.4606 55.5564 61.4927C56.4803 60.5248 57.0743 59.4249 57.3382 58.193C57.6462 56.9611 57.8662 55.2672 57.9982 53.1114C58.0862 51.7035 58.1742 50.6696 58.2622 50.0096C58.4822 47.8978 58.5921 46.0939 58.5921 44.598C58.5921 43.6301 58.8561 42.8382 59.3841 42.2222C59.912 41.5623 60.638 41.2323 61.5619 41.2323C62.0899 41.2323 62.6838 41.4083 63.3438 41.7603C64.0477 42.0682 64.5097 42.4422 64.7297 42.8822C64.9936 43.3221 65.1256 44.0481 65.1256 45.06C65.1256 45.588 65.0596 46.0939 64.9276 46.5779C64.6197 47.6778 64.4657 48.9977 64.4657 50.5376L64.5317 53.9693C64.5317 57.093 64.7517 59.4029 65.1916 60.8987C65.4116 61.6027 65.7196 62.3286 66.1155 63.0766C66.5115 63.7805 66.8855 64.3745 67.2375 64.8584C68.1174 65.8263 68.6893 66.5083 68.9533 66.9043C69.2173 67.2562 69.3493 67.6082 69.3493 67.9602C69.3493 68.4881 69.0853 68.9941 68.5573 69.4781C68.0734 69.918 67.5454 70.138 66.9735 70.138C65.3456 70.138 63.9377 69.588 62.7498 68.4881C61.5619 67.3882 60.682 65.9583 60.11 64.1985C58.6141 65.9143 57.2283 67.3002 55.9524 68.3561C55.0724 68.9721 53.9945 69.4341 52.7186 69.742C51.4427 70.006 50.1668 70.138 48.8909 70.138C47.1751 70.138 45.4372 69.4341 43.6773 68.0262C41.9175 66.6183 40.7296 64.9904 40.1136 63.1426C40.0696 63.0546 39.9376 62.7026 39.7176 62.0866C39.5417 61.4707 39.4537 60.5468 39.4537 59.3149C39.4537 57.687 39.5417 55.6412 39.7176 53.1774C39.8496 51.5935 39.9156 50.1416 39.9156 48.8217C39.9156 48.4257 39.7616 48.0958 39.4537 47.8318C39.1897 47.5678 38.8817 47.4358 38.5297 47.4358C38.2658 47.4358 37.9578 47.4798 37.6058 47.5678C37.2978 47.6118 36.9679 47.6338 36.6159 47.6338Z" fill="#E02323"/>
<path d="M96.7929 55.7884C96.7929 57.8049 95.7617 58.8131 93.6994 58.8131C93.0119 58.8131 92.4391 58.6527 91.9808 58.3319C91.5225 58.0111 91.0183 57.5299 90.4684 56.8883C89.0935 55.3759 87.9019 54.6197 86.8937 54.6197C85.5646 54.6197 84.2585 55.0092 82.9752 55.7884C81.7378 56.5675 80.7296 57.6674 79.9505 59.0881C79.1714 60.5088 78.7818 62.0899 78.7818 63.8315C78.7818 65.7563 79.1485 67.3603 79.8817 68.6436C80.6608 69.9268 81.8524 71.0267 83.4564 71.9433C84.0522 72.2641 84.7397 72.5162 85.5188 72.6995C86.3437 72.8828 87.0541 72.9745 87.6499 72.9745C88.9789 72.9745 90.6517 72.4474 92.6682 71.3934C93.4015 71.0267 94.0202 70.7517 94.5243 70.5684C95.0284 70.3851 95.5555 70.2934 96.1054 70.2934C96.6096 70.2934 97.1824 70.5226 97.8241 70.9809C98.4657 71.4392 98.7865 72.0121 98.7865 72.6995C98.7865 74.0744 98.1449 75.2431 96.8616 76.2055C95.5784 77.1221 93.9973 77.8324 92.1183 78.3366C90.2851 78.7949 88.5206 79.024 86.8249 79.024C84.121 79.024 81.6003 78.4053 79.263 77.1679C76.9715 75.9305 75.1384 74.2348 73.7635 72.0808C72.3886 69.881 71.7011 67.4062 71.7011 64.6564C71.7011 61.7233 72.3657 59.0423 73.6947 56.6133C75.0238 54.1843 76.8111 52.2824 79.0568 50.9075C81.3025 49.5326 83.7543 48.8452 86.4125 48.8452C87.9248 48.8452 89.483 49.1201 91.0871 49.6701C92.6911 50.22 94.0431 51.0221 95.143 52.0761C96.2429 53.1302 96.7929 54.3676 96.7929 55.7884Z" fill="#2E63CA"/>
<path d="M100.323 46.3601C99.6043 46.2575 99.014 45.9495 98.552 45.4362C98.1414 44.9229 97.9361 44.307 97.9361 43.5883C97.9361 43.229 98.013 42.8441 98.167 42.4334C98.3724 42.0228 98.6547 41.6635 99.014 41.3555C99.6812 40.6882 101.478 40.3546 104.404 40.3546C104.814 38.3528 105.019 36.3253 105.019 34.2721C105.019 33.5021 104.994 32.8349 104.942 32.2702C104.891 31.7056 104.865 31.2693 104.865 30.9614C104.865 29.8321 105.276 28.9852 106.097 28.4206C106.97 27.8559 107.945 27.5736 109.023 27.5736C110.358 27.5736 111.256 27.9073 111.718 28.5745C112.231 29.2418 112.488 30.4737 112.488 32.2702C112.488 34.9394 112.257 37.5572 111.795 40.1236C112.616 40.1236 113.745 40.0723 115.183 39.9696C117.133 39.867 118.545 39.8156 119.417 39.8156C120.29 39.8156 121.034 40.0466 121.65 40.5086C122.317 40.9192 122.651 41.5095 122.651 42.2794C122.651 44.2813 121.753 45.4619 119.956 45.8212C118.057 46.2831 115.106 46.5654 111.102 46.6681C110.948 48.6699 110.871 50.8514 110.871 53.2126C110.871 56.9083 111.102 59.9367 111.564 62.2979C111.872 63.9404 112.385 65.1466 113.104 65.9166C113.874 66.6352 115.003 66.9945 116.492 66.9945C117.364 66.9945 118.262 66.7635 119.186 66.3015C119.802 65.9422 120.367 65.7626 120.88 65.7626C121.599 65.7626 122.112 65.9936 122.42 66.4555C122.779 66.9175 122.959 67.5334 122.959 68.3034C122.959 69.7406 122.189 70.9468 120.649 71.9221C119.109 72.846 117.133 73.308 114.721 73.308C113.232 73.308 111.718 72.9487 110.178 72.2301C108.69 71.5115 107.432 70.6132 106.405 69.5353C106.251 69.3813 105.969 68.791 105.558 67.7644C105.148 66.7378 104.789 65.6343 104.481 64.4537C103.967 62.0412 103.711 58.6535 103.711 54.2905C103.711 52.3913 103.813 49.8505 104.019 46.6681L100.323 46.3601Z" fill="#40CB34"/>
<path d="M128.799 37.1544C130.242 37.2782 131.5 37.67 132.573 38.3299C133.645 38.9486 134.181 39.8973 134.181 41.176C134.181 42.1246 133.728 42.8877 132.82 43.4652C131.954 44.0014 130.902 44.2695 129.665 44.2695C128.469 44.2695 127.644 43.9601 127.19 43.3414C126.736 42.7227 126.51 42.0834 126.51 41.4234C126.51 40.186 126.633 39.1549 126.881 38.3299C127.17 37.505 127.809 37.1132 128.799 37.1544ZM133.748 64.5629V66.3571C133.748 67.9657 133.79 69.4918 133.872 70.9355C133.996 72.3379 134.14 73.7609 134.305 75.2045C134.264 75.617 133.955 76.0501 133.377 76.5038C132.8 76.9162 132.284 77.1225 131.83 77.1225C131.047 77.1225 130.242 76.9781 129.417 76.6894C128.634 76.3594 128.159 75.9676 127.994 75.5139C127.747 74.194 127.623 73.0184 127.623 71.9873C127.623 68.605 127.52 64.8103 127.314 60.6032C127.149 56.891 127.066 54.2924 127.066 52.8075C127.066 52.0651 127.438 51.4258 128.18 50.8896C128.922 50.3534 129.706 50.0853 130.531 50.0853C131.727 50.0853 132.552 50.3534 133.006 50.8896C133.501 51.4258 133.748 52.2713 133.748 53.4262V64.5629Z" fill="#F9199F"/>
<path d="M164.231 64.932C164.597 65.5736 164.895 66.5132 165.124 67.7506C165.353 68.9421 165.468 70.0191 165.468 70.9815C165.468 72.7689 165.078 75.3125 164.299 78.6122C161.137 84.3867 156.462 87.274 150.275 87.274C147.984 87.274 145.647 86.5178 143.263 85.0054C140.88 83.4931 139.23 81.7515 138.314 79.7808C137.076 75.8395 136.458 73.3418 136.458 72.2877C136.458 70.4545 136.847 68.5067 137.626 66.4444C138.451 64.3821 139.483 62.5947 140.72 61.0823C141.499 60.0283 142.897 59.1346 144.913 58.4013C146.93 57.6222 148.763 57.2326 150.413 57.2326C153.621 57.2326 156.348 57.8513 158.593 59.0887C160.839 60.2803 162.718 62.2281 164.231 64.932ZM158.25 75.9999C158.479 75.4041 158.593 73.8688 158.593 71.394C158.593 70.065 158.341 68.7588 157.837 67.4756C157.379 66.1923 156.692 65.0924 155.775 64.1758C155.683 64.0842 155.431 63.9467 155.019 63.7634C154.606 63.5342 154.033 63.328 153.3 63.1447C152.613 62.9155 151.811 62.8009 150.894 62.8009C148.328 62.8009 146.449 63.8321 145.257 65.8945C144.065 67.9568 143.47 70.2941 143.47 72.9064C143.47 73.3647 143.584 74.2355 143.813 75.5187C144.088 76.8019 144.318 77.6039 144.501 77.9247C144.638 78.2456 144.982 78.7039 145.532 79.2996C146.128 79.8496 146.838 80.3537 147.663 80.812C148.534 81.2245 149.428 81.4307 150.344 81.4307C152.406 81.4307 154.056 80.9495 155.294 79.9871C156.531 78.9788 157.517 77.6498 158.25 75.9999Z" fill="#7B828E"/>
<path d="M199.952 79.9174C200.172 80.0054 200.524 80.1154 201.008 80.2474C201.492 80.3794 201.844 80.5114 202.064 80.6434C202.283 80.7754 202.393 80.9733 202.393 81.2373C202.437 82.2932 202.042 83.1732 201.206 83.8771C200.414 84.5371 199.468 84.867 198.368 84.867C196.652 84.867 195.31 84.4051 194.342 83.4811C193.374 82.5572 192.67 81.1493 192.23 79.2575C192.054 78.5095 191.966 77.4756 191.966 76.1557C191.966 75.4078 192.01 74.1979 192.098 72.526C192.186 70.7662 192.23 69.3583 192.23 68.3024C192.23 66.7625 191.79 65.4206 190.91 64.2767C190.074 63.0888 188.887 62.4948 187.347 62.4948C186.423 62.4948 185.455 62.7808 184.443 63.3527C183.431 63.8807 182.727 64.5407 182.331 65.3326C181.671 66.6085 181.209 67.9944 180.945 69.4903C180.461 72.13 180.219 74.8798 180.219 77.7396C180.219 79.1035 180.241 80.1594 180.285 80.9073C180.285 81.0833 180.285 81.4353 180.285 81.9633C180.329 82.4472 180.285 82.9092 180.153 83.3492C180.065 83.7451 179.889 84.1191 179.625 84.4711C179.405 84.691 179.053 84.867 178.569 84.999C178.129 85.175 177.711 85.263 177.315 85.263C176.7 85.263 175.93 84.999 175.006 84.4711C174.082 83.9431 173.554 83.3492 173.422 82.6892L173.356 81.5673C173.356 81.1713 173.4 80.7094 173.488 80.1814C174.016 77.1017 174.28 74.4179 174.28 72.13C174.28 71.1181 174.258 70.3262 174.214 69.7542L174.148 66.6525C174.148 65.5966 173.884 64.5846 173.356 63.6167C172.828 62.6048 172.212 62.0988 171.508 62.0988C171.288 62.0988 170.98 62.1868 170.584 62.3628C170.188 62.4948 169.858 62.5608 169.594 62.5608C169.154 62.5608 168.67 62.3408 168.142 61.9009C167.658 61.4609 167.416 60.9989 167.416 60.515C167.416 59.591 167.724 58.8431 168.34 58.2712C169 57.7432 169.638 57.3252 170.254 57.0173C170.914 56.7093 171.662 56.5553 172.498 56.5553C173.202 56.5553 173.774 56.6213 174.214 56.7533C174.654 56.8853 175.248 57.1712 175.996 57.6112C176.392 57.8312 176.854 58.3151 177.381 59.0631C177.909 59.811 178.349 60.8669 178.701 62.2308C179.845 60.119 181.253 58.6451 182.925 57.8092C184.641 56.9293 186.819 56.4893 189.459 56.4893C190.47 56.4893 191.548 56.8193 192.692 57.4792C193.88 58.1392 194.892 58.9091 195.728 59.789C196.52 60.757 197.18 61.9669 197.708 63.4187C198.236 64.8266 198.5 66.1025 198.5 67.2464C198.5 67.9064 198.456 68.9843 198.368 70.4802C198.236 71.6681 198.17 72.922 198.17 74.2419C198.17 77.3216 198.764 79.2135 199.952 79.9174Z" fill="#F99F19"/>
<path d="M224.084 66.3472C224.458 66.5809 225.183 67.025 226.258 67.6794C227.38 68.2871 228.128 69.0117 228.502 69.8531C228.876 70.6946 229.063 71.8632 229.063 73.3591C229.063 75.042 228.572 76.5378 227.59 77.8467C226.608 79.1089 225.346 80.0906 223.804 80.7918C222.682 81.306 221.303 81.7033 219.667 81.9838C218.077 82.2643 216.815 82.4045 215.88 82.4045C214.945 82.4045 213.73 82.2643 212.234 81.9838C210.785 81.7033 209.78 81.4462 209.219 81.2125C207.77 80.371 206.508 79.3426 205.432 78.1272C204.404 76.9118 203.89 75.673 203.89 74.4109C203.89 73.476 204.194 72.7514 204.801 72.2372C205.409 71.6762 206.204 71.3958 207.185 71.3958C207.653 71.3958 208.144 71.5827 208.658 71.9567C209.172 72.2839 209.523 72.6345 209.71 73.0085C210.224 74.2239 211.089 75.1355 212.304 75.7432C213.519 76.3509 214.758 76.6547 216.02 76.6547C217.657 76.6547 219.176 76.3976 220.578 75.8834C221.981 75.3224 222.682 74.5745 222.682 73.6396C222.682 73.2189 222.565 72.8916 222.331 72.6579C222.144 72.3774 221.864 72.0969 221.49 71.8165C220.835 71.349 219.854 70.975 218.545 70.6946C217.236 70.3673 216.394 70.157 216.02 70.0635C214.104 69.6428 212.234 69.0117 210.411 68.1703C208.588 67.2821 207.139 66.2303 206.063 65.0149C204.988 63.7995 204.451 62.2335 204.451 60.3169C204.451 59.0547 204.918 57.7458 205.853 56.3902C206.788 54.9878 207.84 54.0061 209.008 53.4452C209.85 53.118 211.252 52.7674 213.216 52.3934C215.226 52.0194 216.581 51.8324 217.283 51.8324C218.358 51.8324 219.526 51.9493 220.789 52.183C222.051 52.37 223.009 52.6972 223.663 53.1647C224.926 53.9126 225.954 54.7073 226.749 55.5488C227.543 56.3435 227.941 57.255 227.941 58.2834C227.941 58.7976 227.824 59.3586 227.59 59.9663C227.356 60.5272 227.076 60.8778 226.749 61.0181C226.047 61.3453 225.229 61.5089 224.295 61.5089C223.874 61.5089 223.523 61.392 223.243 61.1583C223.009 60.9246 222.682 60.5506 222.261 60.0364C221.747 59.2417 221.256 58.7743 220.789 58.634C220.228 58.4938 219.41 58.3302 218.334 58.1432C217.259 57.9095 216.535 57.7926 216.161 57.7926C215.085 57.7926 213.964 58.0964 212.795 58.7041C211.673 59.3118 211.112 60.013 211.112 60.8077C211.112 61.2284 211.276 61.5557 211.603 61.7894C211.977 62.0231 212.351 62.2335 212.725 62.4205C213.146 62.6075 213.426 62.7243 213.566 62.7711C214.548 63.2385 215.623 63.6359 216.792 63.9631C218.007 64.2903 218.755 64.5007 219.036 64.5942C221.56 65.2019 223.243 65.7862 224.084 66.3472Z" fill="#E234F1"/>
</svg>
