<svg width="150" height="30" viewBox="0 0 150 30" fill="none" xmlns="http://www.w3.org/2000/svg">
<rect width="150" height="30" fill="#F7E376"/>
<path d="M134 21.8962L132.604 20.4795L137.125 15.9795H127.104V14.0212H137.125L132.604 9.50033L134 8.10449L140.896 15.0003L134 21.8962Z" fill="#592E13"/>
<path d="M19.1637 7.85547H17.1417C17.1048 7.59387 17.0294 7.36151 16.9155 7.15838C16.8016 6.95218 16.6554 6.77675 16.4769 6.6321C16.2984 6.48745 16.0922 6.37666 15.8583 6.29972C15.6275 6.22277 15.3767 6.1843 15.1058 6.1843C14.6165 6.1843 14.1902 6.30587 13.8271 6.54901C13.4639 6.78906 13.1823 7.13991 12.9822 7.60156C12.7822 8.06013 12.6822 8.61719 12.6822 9.27273C12.6822 9.94673 12.7822 10.513 12.9822 10.9716C13.1854 11.4302 13.4685 11.7764 13.8317 12.0103C14.1948 12.2442 14.6149 12.3612 15.092 12.3612C15.3597 12.3612 15.6075 12.3258 15.8352 12.255C16.0661 12.1842 16.2707 12.0811 16.4492 11.9457C16.6277 11.8072 16.7755 11.6394 16.8924 11.4425C17.0124 11.2455 17.0955 11.0208 17.1417 10.7685L19.1637 10.7777C19.1114 11.2116 18.9806 11.6302 18.7713 12.0334C18.5651 12.4335 18.2866 12.792 17.9357 13.109C17.5879 13.4229 17.1725 13.6722 16.6893 13.8569C16.2092 14.0385 15.666 14.1293 15.0597 14.1293C14.2164 14.1293 13.4624 13.9384 12.7976 13.5568C12.1359 13.1752 11.6127 12.6228 11.228 11.8995C10.8464 11.1763 10.6555 10.3007 10.6555 9.27273C10.6555 8.24171 10.8494 7.36458 11.2372 6.64134C11.625 5.91809 12.1513 5.36719 12.8161 4.98864C13.4808 4.60701 14.2287 4.41619 15.0597 4.41619C15.6075 4.41619 16.1153 4.49313 16.5831 4.64702C17.054 4.8009 17.471 5.02557 17.8342 5.32102C18.1973 5.6134 18.4928 5.97195 18.7205 6.39666C18.9513 6.82138 19.0991 7.30765 19.1637 7.85547ZM22.5822 14.1339C22.1298 14.1339 21.7266 14.0554 21.3727 13.8984C21.0188 13.7384 20.7387 13.503 20.5325 13.1921C20.3294 12.8782 20.2278 12.4873 20.2278 12.0195C20.2278 11.6256 20.3001 11.2947 20.4448 11.027C20.5894 10.7592 20.7864 10.5438 21.0357 10.3807C21.285 10.2176 21.5681 10.0945 21.8851 10.0114C22.2052 9.92827 22.5407 9.86979 22.8915 9.83594C23.3039 9.79285 23.6363 9.75284 23.8887 9.71591C24.141 9.6759 24.3242 9.61742 24.438 9.54048C24.5519 9.46354 24.6088 9.34967 24.6088 9.19886V9.17116C24.6088 8.87879 24.5165 8.65258 24.3319 8.49254C24.1503 8.3325 23.8917 8.25249 23.5563 8.25249C23.2024 8.25249 22.9208 8.33097 22.7115 8.48793C22.5022 8.64181 22.3637 8.8357 22.296 9.0696L20.4771 8.92188C20.5694 8.491 20.751 8.11861 21.0218 7.80469C21.2927 7.48769 21.642 7.24455 22.0698 7.07528C22.5007 6.90294 22.9992 6.81676 23.5655 6.81676C23.9595 6.81676 24.3365 6.86293 24.6966 6.95526C25.0597 7.04759 25.3813 7.1907 25.6614 7.38459C25.9445 7.57848 26.1677 7.82777 26.3308 8.13246C26.4939 8.43407 26.5755 8.79569 26.5755 9.21733V14H24.7104V13.0167H24.655C24.5411 13.2383 24.3888 13.4337 24.198 13.603C24.0072 13.7692 23.7779 13.9 23.5101 13.9954C23.2424 14.0877 22.9331 14.1339 22.5822 14.1339ZM23.1454 12.7766C23.4347 12.7766 23.6902 12.7197 23.9118 12.6058C24.1333 12.4889 24.3072 12.3319 24.4334 12.1349C24.5596 11.938 24.6227 11.7148 24.6227 11.4656V10.7131C24.5611 10.7531 24.4765 10.79 24.3688 10.8239C24.2641 10.8546 24.1457 10.8839 24.0133 10.9116C23.881 10.9362 23.7486 10.9593 23.6163 10.9808C23.484 10.9993 23.3639 11.0162 23.2562 11.0316C23.0254 11.0655 22.8238 11.1193 22.6515 11.1932C22.4791 11.267 22.3452 11.3671 22.2498 11.4933C22.1544 11.6164 22.1067 11.7702 22.1067 11.9549C22.1067 12.2227 22.2037 12.4273 22.3975 12.5689C22.5945 12.7074 22.8438 12.7766 23.1454 12.7766ZM28.1012 14V6.90909H30.0078V8.14631H30.0817C30.2109 7.7062 30.4279 7.37382 30.7326 7.14915C31.0373 6.9214 31.3881 6.80753 31.7852 6.80753C31.8836 6.80753 31.9898 6.81368 32.1037 6.82599C32.2176 6.8383 32.3176 6.85523 32.4038 6.87678V8.6218C32.3114 8.5941 32.1837 8.56948 32.0206 8.54794C31.8575 8.5264 31.7082 8.51562 31.5728 8.51562C31.2835 8.51562 31.025 8.57872 30.7972 8.7049C30.5726 8.82801 30.3941 9.00035 30.2617 9.22195C30.1325 9.44354 30.0678 9.69898 30.0678 9.98828V14H28.1012ZM37.5477 6.90909V8.38636H33.2774V6.90909H37.5477ZM34.2469 5.21023H36.2135V11.821C36.2135 12.0026 36.2412 12.1442 36.2966 12.2457C36.352 12.3442 36.4289 12.4135 36.5274 12.4535C36.629 12.4935 36.7459 12.5135 36.8783 12.5135C36.9706 12.5135 37.0629 12.5058 37.1553 12.4904C37.2476 12.4719 37.3184 12.4581 37.3676 12.4489L37.6769 13.9123C37.5785 13.9431 37.44 13.9785 37.2615 14.0185C37.0829 14.0616 36.866 14.0877 36.6105 14.0969C36.1366 14.1154 35.7211 14.0523 35.3641 13.9077C35.0102 13.763 34.7347 13.5384 34.5377 13.2337C34.3408 12.929 34.2438 12.5443 34.2469 12.0795V5.21023ZM41.9841 14.1385C41.2547 14.1385 40.6269 13.9908 40.1006 13.6953C39.5774 13.3968 39.1742 12.9751 38.8911 12.4304C38.6079 11.8826 38.4664 11.2347 38.4664 10.4869C38.4664 9.75746 38.6079 9.11731 38.8911 8.56641C39.1742 8.01551 39.5728 7.58617 40.0867 7.27841C40.6038 6.97064 41.2101 6.81676 41.9056 6.81676C42.3734 6.81676 42.8089 6.89216 43.2121 7.04297C43.6183 7.1907 43.9723 7.41383 44.2739 7.71236C44.5786 8.01089 44.8155 8.38636 44.9848 8.83878C45.1541 9.28812 45.2387 9.81439 45.2387 10.4176V10.9577H39.2512V9.73899H43.3875C43.3875 9.45585 43.326 9.20502 43.2029 8.98651C43.0798 8.76799 42.9089 8.59718 42.6904 8.47408C42.475 8.34789 42.2242 8.2848 41.9379 8.2848C41.6394 8.2848 41.3747 8.35405 41.1439 8.49254C40.9162 8.62796 40.7377 8.81108 40.6084 9.0419C40.4791 9.26965 40.413 9.52356 40.4099 9.80362V10.9624C40.4099 11.3132 40.4745 11.6164 40.6038 11.8718C40.7361 12.1272 40.9223 12.3242 41.1624 12.4627C41.4024 12.6012 41.6871 12.6705 42.0164 12.6705C42.2349 12.6705 42.435 12.6397 42.6166 12.5781C42.7981 12.5166 42.9536 12.4242 43.0828 12.3011C43.2121 12.178 43.3106 12.0272 43.3783 11.8487L45.1972 11.9688C45.1048 12.4058 44.9156 12.7874 44.6294 13.1136C44.3462 13.4368 43.98 13.6892 43.5306 13.8707C43.0844 14.0492 42.5689 14.1385 41.9841 14.1385ZM51.5529 14.1339C51.1005 14.1339 50.6973 14.0554 50.3434 13.8984C49.9895 13.7384 49.7094 13.503 49.5032 13.1921C49.3001 12.8782 49.1985 12.4873 49.1985 12.0195C49.1985 11.6256 49.2708 11.2947 49.4155 11.027C49.5601 10.7592 49.7571 10.5438 50.0064 10.3807C50.2557 10.2176 50.5388 10.0945 50.8558 10.0114C51.1759 9.92827 51.5114 9.86979 51.8622 9.83594C52.2746 9.79285 52.607 9.75284 52.8594 9.71591C53.1117 9.6759 53.2949 9.61742 53.4087 9.54048C53.5226 9.46354 53.5795 9.34967 53.5795 9.19886V9.17116C53.5795 8.87879 53.4872 8.65258 53.3026 8.49254C53.121 8.3325 52.8625 8.25249 52.527 8.25249C52.1731 8.25249 51.8915 8.33097 51.6822 8.48793C51.4729 8.64181 51.3344 8.8357 51.2667 9.0696L49.4478 8.92188C49.5401 8.491 49.7217 8.11861 49.9925 7.80469C50.2634 7.48769 50.6127 7.24455 51.0405 7.07528C51.4714 6.90294 51.9699 6.81676 52.5362 6.81676C52.9302 6.81676 53.3072 6.86293 53.6673 6.95526C54.0304 7.04759 54.352 7.1907 54.6321 7.38459C54.9152 7.57848 55.1384 7.82777 55.3015 8.13246C55.4646 8.43407 55.5462 8.79569 55.5462 9.21733V14H53.6811V13.0167H53.6257C53.5118 13.2383 53.3595 13.4337 53.1687 13.603C52.9779 13.7692 52.7486 13.9 52.4808 13.9954C52.2131 14.0877 51.9038 14.1339 51.5529 14.1339ZM52.1161 12.7766C52.4054 12.7766 52.6609 12.7197 52.8825 12.6058C53.104 12.4889 53.2779 12.3319 53.4041 12.1349C53.5303 11.938 53.5934 11.7148 53.5934 11.4656V10.7131C53.5318 10.7531 53.4472 10.79 53.3395 10.8239C53.2348 10.8546 53.1164 10.8839 52.984 10.9116C52.8517 10.9362 52.7193 10.9593 52.587 10.9808C52.4547 10.9993 52.3346 11.0162 52.2269 11.0316C51.9961 11.0655 51.7945 11.1193 51.6222 11.1932C51.4498 11.267 51.3159 11.3671 51.2205 11.4933C51.1251 11.6164 51.0774 11.7702 51.0774 11.9549C51.0774 12.2227 51.1744 12.4273 51.3683 12.5689C51.5652 12.7074 51.8145 12.7766 52.1161 12.7766ZM51.9268 5.99503L50.5188 3.89453H52.3331L53.3164 5.99503H51.9268ZM60.0807 6.90909H62.0473V14.3509C62.0473 14.8987 61.9396 15.3419 61.7242 15.6804C61.5087 16.0189 61.1994 16.2667 60.7963 16.4237C60.3962 16.5806 59.9176 16.6591 59.3605 16.6591C59.2928 16.6591 59.2282 16.6576 59.1666 16.6545C59.102 16.6545 59.0343 16.6529 58.9635 16.6499V15.1126C59.0158 15.1156 59.062 15.1172 59.102 15.1172C59.1389 15.1203 59.1789 15.1218 59.222 15.1218C59.539 15.1218 59.7606 15.0541 59.8868 14.9187C60.0161 14.7863 60.0807 14.5863 60.0807 14.3185V6.90909ZM61.0594 5.99503C60.7701 5.99503 60.5208 5.89808 60.3115 5.70419C60.1022 5.50722 59.9976 5.27178 59.9976 4.99787C59.9976 4.72704 60.1022 4.49467 60.3115 4.30078C60.5208 4.10381 60.7701 4.00533 61.0594 4.00533C61.3548 4.00533 61.6057 4.10381 61.8119 4.30078C62.0212 4.49467 62.1258 4.72704 62.1258 4.99787C62.1258 5.27178 62.0212 5.50722 61.8119 5.70419C61.6057 5.89808 61.3548 5.99503 61.0594 5.99503ZM66.8265 14.1385C66.1094 14.1385 65.4893 13.9862 64.9661 13.6815C64.446 13.3737 64.0443 12.9459 63.7612 12.3981C63.478 11.8472 63.3365 11.2086 63.3365 10.4822C63.3365 9.74976 63.478 9.10961 63.7612 8.56179C64.0443 8.01089 64.446 7.5831 64.9661 7.27841C65.4893 6.97064 66.1094 6.81676 66.8265 6.81676C67.5436 6.81676 68.1622 6.97064 68.6824 7.27841C69.2056 7.5831 69.6087 8.01089 69.8919 8.56179C70.175 9.10961 70.3166 9.74976 70.3166 10.4822C70.3166 11.2086 70.175 11.8472 69.8919 12.3981C69.6087 12.9459 69.2056 13.3737 68.6824 13.6815C68.1622 13.9862 67.5436 14.1385 66.8265 14.1385ZM66.8358 12.6151C67.162 12.6151 67.4344 12.5227 67.6529 12.3381C67.8714 12.1503 68.036 11.8949 68.1468 11.5717C68.2607 11.2486 68.3176 10.8808 68.3176 10.4684C68.3176 10.056 68.2607 9.68821 68.1468 9.36506C68.036 9.0419 67.8714 8.78646 67.6529 8.59872C67.4344 8.41098 67.162 8.31712 66.8358 8.31712C66.5065 8.31712 66.2295 8.41098 66.0048 8.59872C65.7832 8.78646 65.6155 9.0419 65.5016 9.36506C65.3908 9.68821 65.3354 10.056 65.3354 10.4684C65.3354 10.8808 65.3908 11.2486 65.5016 11.5717C65.6155 11.8949 65.7832 12.1503 66.0048 12.3381C66.2295 12.5227 66.5065 12.6151 66.8358 12.6151ZM76.1426 10.9808V6.90909H78.1092V14H76.2211V12.712H76.1472C75.9872 13.1275 75.7209 13.4614 75.3485 13.7138C74.9792 13.9661 74.5283 14.0923 73.9959 14.0923C73.522 14.0923 73.1049 13.9846 72.7449 13.7692C72.3848 13.5537 72.1032 13.2475 71.9 12.8505C71.7 12.4535 71.5984 11.978 71.5953 11.424V6.90909H73.562V11.0732C73.565 11.4917 73.6774 11.8226 73.899 12.0657C74.1206 12.3088 74.4176 12.4304 74.79 12.4304C75.0269 12.4304 75.2485 12.3765 75.4547 12.2688C75.6609 12.158 75.8271 11.9949 75.9533 11.7795C76.0826 11.564 76.1457 11.2978 76.1426 10.9808ZM82.9138 14.1385C82.1844 14.1385 81.5566 13.9908 81.0303 13.6953C80.5071 13.3968 80.1039 12.9751 79.8208 12.4304C79.5376 11.8826 79.396 11.2347 79.396 10.4869C79.396 9.75746 79.5376 9.11731 79.8208 8.56641C80.1039 8.01551 80.5025 7.58617 81.0164 7.27841C81.5335 6.97064 82.1398 6.81676 82.8353 6.81676C83.3031 6.81676 83.7386 6.89216 84.1418 7.04297C84.548 7.1907 84.902 7.41383 85.2036 7.71236C85.5083 8.01089 85.7452 8.38636 85.9145 8.83878C86.0838 9.28812 86.1684 9.81439 86.1684 10.4176V10.9577H80.1808V9.73899H84.3172C84.3172 9.45585 84.2557 9.20502 84.1325 8.98651C84.0094 8.76799 83.8386 8.59718 83.6201 8.47408C83.4047 8.34789 83.1539 8.2848 82.8676 8.2848C82.5691 8.2848 82.3044 8.35405 82.0736 8.49254C81.8459 8.62796 81.6673 8.81108 81.5381 9.0419C81.4088 9.26965 81.3427 9.52356 81.3396 9.80362V10.9624C81.3396 11.3132 81.4042 11.6164 81.5335 11.8718C81.6658 12.1272 81.852 12.3242 82.0921 12.4627C82.3321 12.6012 82.6168 12.6705 82.9461 12.6705C83.1646 12.6705 83.3647 12.6397 83.5463 12.5781C83.7278 12.5166 83.8833 12.4242 84.0125 12.3011C84.1418 12.178 84.2403 12.0272 84.308 11.8487L86.1269 11.9688C86.0345 12.4058 85.8453 12.7874 85.559 13.1136C85.2759 13.4368 84.9097 13.6892 84.4603 13.8707C84.0141 14.0492 83.4986 14.1385 82.9138 14.1385ZM87.4518 14V6.90909H89.3584V8.14631H89.4323C89.5615 7.7062 89.7785 7.37382 90.0832 7.14915C90.3879 6.9214 90.7387 6.80753 91.1357 6.80753C91.2342 6.80753 91.3404 6.81368 91.4543 6.82599C91.5682 6.8383 91.6682 6.85523 91.7544 6.87678V8.6218C91.662 8.5941 91.5343 8.56948 91.3712 8.54794C91.2081 8.5264 91.0588 8.51562 90.9234 8.51562C90.6341 8.51562 90.3756 8.57872 90.1478 8.7049C89.9231 8.82801 89.7446 9.00035 89.6123 9.22195C89.483 9.44354 89.4184 9.69898 89.4184 9.98828V14H87.4518ZM96.9294 14.12C96.6247 14.12 96.3631 14.0123 96.1446 13.7969C95.9292 13.5784 95.8215 13.3168 95.8215 13.0121C95.8215 12.7105 95.9292 12.4519 96.1446 12.2365C96.3631 12.0211 96.6247 11.9134 96.9294 11.9134C97.2249 11.9134 97.4834 12.0211 97.705 12.2365C97.9266 12.4519 98.0374 12.7105 98.0374 13.0121C98.0374 13.2152 97.9851 13.4014 97.8804 13.5707C97.7789 13.7369 97.645 13.8707 97.4788 13.9723C97.3126 14.0708 97.1295 14.12 96.9294 14.12ZM96.9294 9.1527C96.6247 9.1527 96.3631 9.04498 96.1446 8.82955C95.9292 8.61411 95.8215 8.35251 95.8215 8.04474C95.8215 7.74313 95.9292 7.48615 96.1446 7.27379C96.3631 7.05836 96.6247 6.95064 96.9294 6.95064C97.2249 6.95064 97.4834 7.05836 97.705 7.27379C97.9266 7.48615 98.0374 7.74313 98.0374 8.04474C98.0374 8.25095 97.9851 8.43868 97.8804 8.60795C97.7789 8.77415 97.645 8.90649 97.4788 9.00497C97.3126 9.10346 97.1295 9.1527 96.9294 9.1527ZM12.7514 21.9006V26H10.7848V18.9091H12.6591V20.1602H12.7422C12.8991 19.7478 13.1623 19.4215 13.5316 19.1815C13.9009 18.9383 14.3487 18.8168 14.875 18.8168C15.3674 18.8168 15.7968 18.9245 16.163 19.1399C16.5292 19.3554 16.8139 19.6631 17.017 20.0632C17.2202 20.4602 17.3217 20.9342 17.3217 21.4851V26H15.3551V21.8359C15.3582 21.402 15.2474 21.0634 15.0227 20.8203C14.7981 20.5741 14.4888 20.451 14.0948 20.451C13.8301 20.451 13.5962 20.5079 13.3931 20.6218C13.1931 20.7357 13.0361 20.9019 12.9222 21.1204C12.8114 21.3358 12.7545 21.5959 12.7514 21.9006ZM22.0756 26.1385C21.3585 26.1385 20.7383 25.9862 20.2151 25.6815C19.695 25.3737 19.2934 24.9459 19.0102 24.3981C18.7271 23.8472 18.5855 23.2086 18.5855 22.4822C18.5855 21.7498 18.7271 21.1096 19.0102 20.5618C19.2934 20.0109 19.695 19.5831 20.2151 19.2784C20.7383 18.9706 21.3585 18.8168 22.0756 18.8168C22.7926 18.8168 23.4113 18.9706 23.9314 19.2784C24.4546 19.5831 24.8577 20.0109 25.1409 20.5618C25.424 21.1096 25.5656 21.7498 25.5656 22.4822C25.5656 23.2086 25.424 23.8472 25.1409 24.3981C24.8577 24.9459 24.4546 25.3737 23.9314 25.6815C23.4113 25.9862 22.7926 26.1385 22.0756 26.1385ZM22.0848 24.6151C22.411 24.6151 22.6834 24.5227 22.9019 24.3381C23.1204 24.1503 23.2851 23.8949 23.3959 23.5717C23.5097 23.2486 23.5667 22.8808 23.5667 22.4684C23.5667 22.056 23.5097 21.6882 23.3959 21.3651C23.2851 21.0419 23.1204 20.7865 22.9019 20.5987C22.6834 20.411 22.411 20.3171 22.0848 20.3171C21.7555 20.3171 21.4785 20.411 21.2538 20.5987C21.0322 20.7865 20.8645 21.0419 20.7506 21.3651C20.6398 21.6882 20.5844 22.056 20.5844 22.4684C20.5844 22.8808 20.6398 23.2486 20.7506 23.5717C20.8645 23.8949 21.0322 24.1503 21.2538 24.3381C21.4785 24.5227 21.7555 24.6151 22.0848 24.6151ZM32.7442 20.9311L30.9438 21.0419C30.913 20.888 30.8469 20.7495 30.7453 20.6264C30.6437 20.5002 30.5099 20.4002 30.3437 20.3263C30.1805 20.2494 29.9851 20.2109 29.7574 20.2109C29.4527 20.2109 29.1957 20.2756 28.9864 20.4048C28.7771 20.531 28.6725 20.7003 28.6725 20.9126C28.6725 21.0819 28.7402 21.225 28.8756 21.342C29.011 21.4589 29.2434 21.5528 29.5727 21.6236L30.8561 21.8821C31.5455 22.0237 32.0595 22.2514 32.398 22.5653C32.7365 22.8793 32.9058 23.2917 32.9058 23.8026C32.9058 24.2673 32.7689 24.6751 32.4949 25.0259C32.2241 25.3768 31.8517 25.6507 31.3778 25.8477C30.9069 26.0415 30.3637 26.1385 29.7481 26.1385C28.8095 26.1385 28.0616 25.9431 27.5045 25.5522C26.9506 25.1583 26.6259 24.6228 26.5305 23.9457L28.4648 23.8441C28.5232 24.1303 28.6648 24.3488 28.8895 24.4996C29.1141 24.6474 29.4019 24.7212 29.7528 24.7212C30.0974 24.7212 30.3744 24.6551 30.5837 24.5227C30.7961 24.3873 30.9038 24.2134 30.9069 24.0011C30.9038 23.8226 30.8284 23.6764 30.6807 23.5625C30.5329 23.4455 30.3052 23.3563 29.9974 23.2947L28.7694 23.0501C28.077 22.9116 27.5615 22.6715 27.2229 22.3299C26.8875 21.9883 26.7197 21.5528 26.7197 21.0234C26.7197 20.5679 26.8428 20.1755 27.089 19.8462C27.3383 19.5169 27.6876 19.263 28.137 19.0845C28.5894 18.906 29.1188 18.8168 29.7251 18.8168C30.6207 18.8168 31.3254 19.006 31.8394 19.3846C32.3564 19.7631 32.6581 20.2786 32.7442 20.9311ZM40.3845 26.1385C39.6551 26.1385 39.0273 25.9908 38.501 25.6953C37.9778 25.3968 37.5746 24.9751 37.2915 24.4304C37.0083 23.8826 36.8667 23.2347 36.8667 22.4869C36.8667 21.7575 37.0083 21.1173 37.2915 20.5664C37.5746 20.0155 37.9732 19.5862 38.4871 19.2784C39.0042 18.9706 39.6105 18.8168 40.306 18.8168C40.7738 18.8168 41.2093 18.8922 41.6125 19.043C42.0187 19.1907 42.3727 19.4138 42.6743 19.7124C42.979 20.0109 43.2159 20.3864 43.3852 20.8388C43.5545 21.2881 43.6391 21.8144 43.6391 22.4176V22.9577H37.6515V21.739H41.7879C41.7879 21.4558 41.7264 21.205 41.6032 20.9865C41.4801 20.768 41.3093 20.5972 41.0908 20.4741C40.8754 20.3479 40.6246 20.2848 40.3383 20.2848C40.0398 20.2848 39.7751 20.354 39.5443 20.4925C39.3166 20.628 39.1381 20.8111 39.0088 21.0419C38.8795 21.2696 38.8134 21.5236 38.8103 21.8036V22.9624C38.8103 23.3132 38.8749 23.6164 39.0042 23.8718C39.1365 24.1272 39.3227 24.3242 39.5628 24.4627C39.8028 24.6012 40.0875 24.6705 40.4168 24.6705C40.6353 24.6705 40.8354 24.6397 41.017 24.5781C41.1985 24.5166 41.354 24.4242 41.4832 24.3011C41.6125 24.178 41.711 24.0272 41.7787 23.8487L43.5976 23.9688C43.5052 24.4058 43.316 24.7874 43.0297 25.1136C42.7466 25.4368 42.3804 25.6892 41.931 25.8707C41.4848 26.0492 40.9693 26.1385 40.3845 26.1385ZM46.8891 21.9006V26H44.9225V18.9091H46.7968V20.1602H46.8799C47.0368 19.7478 47.3 19.4215 47.6693 19.1815C48.0386 18.9383 48.4864 18.8168 49.0127 18.8168C49.5051 18.8168 49.9345 18.9245 50.3007 19.1399C50.6669 19.3554 50.9516 19.6631 51.1547 20.0632C51.3579 20.4602 51.4594 20.9342 51.4594 21.4851V26H49.4928V21.8359C49.4959 21.402 49.3851 21.0634 49.1604 20.8203C48.9358 20.5741 48.6265 20.451 48.2325 20.451C47.9678 20.451 47.7339 20.5079 47.5308 20.6218C47.3308 20.7357 47.1738 20.9019 47.0599 21.1204C46.9491 21.3358 46.8922 21.5959 46.8891 21.9006ZM56.2132 26.1385C55.4869 26.1385 54.8622 25.9846 54.339 25.6768C53.8188 25.366 53.4187 24.9351 53.1387 24.3842C52.8617 23.8333 52.7232 23.1993 52.7232 22.4822C52.7232 21.7559 52.8632 21.1188 53.1433 20.571C53.4264 20.0201 53.8281 19.5908 54.3482 19.283C54.8683 18.9722 55.4869 18.8168 56.204 18.8168C56.8226 18.8168 57.3643 18.9291 57.829 19.1538C58.2937 19.3784 58.6615 19.6939 58.9324 20.1001C59.2032 20.5064 59.3525 20.9834 59.3801 21.5312H57.5243C57.472 21.1773 57.3335 20.8926 57.1088 20.6772C56.8873 20.4587 56.5964 20.3494 56.2363 20.3494C55.9316 20.3494 55.6654 20.4325 55.4377 20.5987C55.213 20.7618 55.0376 21.0004 54.9114 21.3143C54.7852 21.6282 54.7221 22.0083 54.7221 22.4545C54.7221 22.907 54.7837 23.2917 54.9068 23.6087C55.033 23.9257 55.2099 24.1673 55.4377 24.3335C55.6654 24.4996 55.9316 24.5827 56.2363 24.5827C56.461 24.5827 56.6626 24.5366 56.8411 24.4442C57.0227 24.3519 57.1719 24.218 57.2889 24.0426C57.4089 23.8641 57.4874 23.6502 57.5243 23.4009H59.3801C59.3494 23.9426 59.2016 24.4196 58.937 24.832C58.6754 25.2414 58.3137 25.5614 57.8521 25.7923C57.3904 26.0231 56.8442 26.1385 56.2132 26.1385ZM62.6059 21.9006V26H60.6393V16.5455H62.5505V20.1602H62.6336C62.7936 19.7416 63.0522 19.4138 63.4092 19.1768C63.7662 18.9368 64.214 18.8168 64.7526 18.8168C65.245 18.8168 65.6743 18.9245 66.0406 19.1399C66.4099 19.3523 66.6961 19.6585 66.8992 20.0586C67.1054 20.4556 67.207 20.9311 67.2039 21.4851V26H65.2373V21.8359C65.2404 21.3989 65.1296 21.0588 64.9049 20.8157C64.6833 20.5726 64.3725 20.451 63.9724 20.451C63.7046 20.451 63.4677 20.5079 63.2615 20.6218C63.0583 20.7357 62.8983 20.9019 62.7813 21.1204C62.6675 21.3358 62.609 21.5959 62.6059 21.9006ZM71.9831 26.1385C71.2537 26.1385 70.6259 25.9908 70.0996 25.6953C69.5764 25.3968 69.1732 24.9751 68.8901 24.4304C68.6069 23.8826 68.4654 23.2347 68.4654 22.4869C68.4654 21.7575 68.6069 21.1173 68.8901 20.5664C69.1732 20.0155 69.5718 19.5862 70.0858 19.2784C70.6028 18.9706 71.2091 18.8168 71.9047 18.8168C72.3725 18.8168 72.8079 18.8922 73.2111 19.043C73.6174 19.1907 73.9713 19.4138 74.2729 19.7124C74.5776 20.0109 74.8146 20.3864 74.9838 20.8388C75.1531 21.2881 75.2377 21.8144 75.2377 22.4176V22.9577H69.2502V21.739H73.3865C73.3865 21.4558 73.325 21.205 73.2019 20.9865C73.0788 20.768 72.908 20.5972 72.6895 20.4741C72.474 20.3479 72.2232 20.2848 71.937 20.2848C71.6384 20.2848 71.3738 20.354 71.1429 20.4925C70.9152 20.628 70.7367 20.8111 70.6074 21.0419C70.4782 21.2696 70.412 21.5236 70.4089 21.8036V22.9624C70.4089 23.3132 70.4735 23.6164 70.6028 23.8718C70.7351 24.1272 70.9213 24.3242 71.1614 24.4627C71.4015 24.6012 71.6861 24.6705 72.0154 24.6705C72.234 24.6705 72.434 24.6397 72.6156 24.5781C72.7972 24.5166 72.9526 24.4242 73.0819 24.3011C73.2111 24.178 73.3096 24.0272 73.3773 23.8487L75.1962 23.9688C75.1039 24.4058 74.9146 24.7874 74.6284 25.1136C74.3452 25.4368 73.979 25.6892 73.5297 25.8707C73.0834 26.0492 72.5679 26.1385 71.9831 26.1385ZM71.1799 17.995L69.7718 15.8945H71.5861L72.5694 17.995H71.1799ZM76.5211 26V18.9091H78.4277V20.1463H78.5016C78.6309 19.7062 78.8478 19.3738 79.1525 19.1491C79.4572 18.9214 79.8081 18.8075 80.2051 18.8075C80.3036 18.8075 80.4097 18.8137 80.5236 18.826C80.6375 18.8383 80.7375 18.8552 80.8237 18.8768V20.6218C80.7314 20.5941 80.6036 20.5695 80.4405 20.5479C80.2774 20.5264 80.1281 20.5156 79.9927 20.5156C79.7034 20.5156 79.4449 20.5787 79.2172 20.7049C78.9925 20.828 78.814 21.0004 78.6816 21.2219C78.5524 21.4435 78.4877 21.699 78.4877 21.9883V26H76.5211ZM84.7419 26.1385C84.0125 26.1385 83.3847 25.9908 82.8584 25.6953C82.3352 25.3968 81.932 24.9751 81.6489 24.4304C81.3657 23.8826 81.2242 23.2347 81.2242 22.4869C81.2242 21.7575 81.3657 21.1173 81.6489 20.5664C81.932 20.0155 82.3306 19.5862 82.8445 19.2784C83.3616 18.9706 83.9679 18.8168 84.6634 18.8168C85.1312 18.8168 85.5667 18.8922 85.9699 19.043C86.3762 19.1907 86.7301 19.4138 87.0317 19.7124C87.3364 20.0109 87.5734 20.3864 87.7426 20.8388C87.9119 21.2881 87.9965 21.8144 87.9965 22.4176V22.9577H82.009V21.739H86.1453C86.1453 21.4558 86.0838 21.205 85.9607 20.9865C85.8376 20.768 85.6668 20.5972 85.4482 20.4741C85.2328 20.3479 84.982 20.2848 84.6958 20.2848C84.3972 20.2848 84.1325 20.354 83.9017 20.4925C83.674 20.628 83.4955 20.8111 83.3662 21.0419C83.2369 21.2696 83.1708 21.5236 83.1677 21.8036V22.9624C83.1677 23.3132 83.2323 23.6164 83.3616 23.8718C83.4939 24.1272 83.6801 24.3242 83.9202 24.4627C84.1602 24.6012 84.4449 24.6705 84.7742 24.6705C84.9927 24.6705 85.1928 24.6397 85.3744 24.5781C85.556 24.5166 85.7114 24.4242 85.8406 24.3011C85.9699 24.178 86.0684 24.0272 86.1361 23.8487L87.955 23.9688C87.8627 24.4058 87.6734 24.7874 87.3872 25.1136C87.104 25.4368 86.7378 25.6892 86.2884 25.8707C85.8422 26.0492 85.3267 26.1385 84.7419 26.1385ZM95.1798 20.9311L93.3794 21.0419C93.3486 20.888 93.2824 20.7495 93.1808 20.6264C93.0793 20.5002 92.9454 20.4002 92.7792 20.3263C92.6161 20.2494 92.4207 20.2109 92.1929 20.2109C91.8882 20.2109 91.6312 20.2756 91.422 20.4048C91.2127 20.531 91.108 20.7003 91.108 20.9126C91.108 21.0819 91.1758 21.225 91.3112 21.342C91.4466 21.4589 91.6789 21.5528 92.0083 21.6236L93.2916 21.8821C93.981 22.0237 94.495 22.2514 94.8335 22.5653C95.1721 22.8793 95.3414 23.2917 95.3414 23.8026C95.3414 24.2673 95.2044 24.6751 94.9305 25.0259C94.6597 25.3768 94.2873 25.6507 93.8133 25.8477C93.3424 26.0415 92.7992 26.1385 92.1837 26.1385C91.245 26.1385 90.4971 25.9431 89.9401 25.5522C89.3861 25.1583 89.0614 24.6228 88.966 23.9457L90.9003 23.8441C90.9588 24.1303 91.1003 24.3488 91.325 24.4996C91.5497 24.6474 91.8374 24.7212 92.1883 24.7212C92.533 24.7212 92.81 24.6551 93.0193 24.5227C93.2316 24.3873 93.3393 24.2134 93.3424 24.0011C93.3393 23.8226 93.2639 23.6764 93.1162 23.5625C92.9685 23.4455 92.7407 23.3563 92.433 23.2947L91.205 23.0501C90.5125 22.9116 89.997 22.6715 89.6585 22.3299C89.323 21.9883 89.1553 21.5528 89.1553 21.0234C89.1553 20.5679 89.2784 20.1755 89.5246 19.8462C89.7739 19.5169 90.1232 19.263 90.5725 19.0845C91.0249 18.906 91.5543 18.8168 92.1606 18.8168C93.0562 18.8168 93.761 19.006 94.2749 19.3846C94.792 19.7631 95.0936 20.2786 95.1798 20.9311Z" fill="#592E13"/>
</svg>
