<svg width="24" height="24" viewBox="0 0 24 24" fill="none" xmlns="http://www.w3.org/2000/svg">
<path d="M12.0059 18.6C12.3931 18.6 12.7223 18.4583 12.9934 18.175C13.2645 17.8917 13.4 17.5583 13.4 17.175H10.575C10.575 17.5583 10.7167 17.8917 11 18.175C11.2833 18.4583 11.6186 18.6 12.0059 18.6ZM7.15 15.675H16.825V14.175H15.825V11.3C15.825 10.3 15.5625 9.37917 15.0375 8.5375C14.5125 7.69583 13.775 7.18333 12.825 7V6.25C12.825 6.01625 12.746 5.82031 12.588 5.66218C12.4299 5.50406 12.2341 5.425 12.0005 5.425C11.7668 5.425 11.5667 5.50406 11.4 5.66218C11.2333 5.82031 11.15 6.01625 11.15 6.25V7C10.2 7.18333 9.4625 7.675 8.9375 8.475C8.4125 9.275 8.15 10.1667 8.15 11.15V14.175H7.15V15.675ZM9.65 14.175V11C9.65 10.3263 9.875 9.74947 10.325 9.26967C10.775 8.78989 11.3292 8.55 11.9875 8.55C12.6458 8.55 13.2 8.78989 13.65 9.26967C14.1 9.74947 14.325 10.3263 14.325 11V14.175H9.65ZM12.0066 22C10.6277 22 9.33192 21.7375 8.11915 21.2125C6.90638 20.6875 5.84583 19.9708 4.9375 19.0625C4.02917 18.1542 3.3125 17.093 2.7875 15.879C2.2625 14.665 2 13.3678 2 11.9875C2 10.6072 2.2625 9.31003 2.7875 8.09603C3.3125 6.88201 4.02917 5.825 4.9375 4.925C5.84583 4.025 6.90701 3.3125 8.12103 2.7875C9.33503 2.2625 10.6322 2 12.0125 2C13.3928 2 14.69 2.2625 15.904 2.7875C17.118 3.3125 18.175 4.025 19.075 4.925C19.975 5.825 20.6875 6.88333 21.2125 8.1C21.7375 9.31667 22 10.6145 22 11.9934C22 13.3723 21.7375 14.6681 21.2125 15.8809C20.6875 17.0936 19.975 18.1526 19.075 19.0579C18.175 19.9632 17.1167 20.6798 15.9 21.2079C14.6833 21.736 13.3855 22 12.0066 22ZM12.0125 20.5C14.3708 20.5 16.375 19.6708 18.025 18.0125C19.675 16.3542 20.5 14.3458 20.5 11.9875C20.5 9.62917 19.6766 7.625 18.0297 5.975C16.3828 4.325 14.3729 3.5 12 3.5C9.65 3.5 7.64583 4.32343 5.9875 5.9703C4.32917 7.61718 3.5 9.62708 3.5 12C3.5 14.35 4.32917 16.3542 5.9875 18.0125C7.64583 19.6708 9.65417 20.5 12.0125 20.5Z" fill="#333333"/>
</svg>
