<svg width="24" height="24" viewBox="0 0 24 24" fill="none" xmlns="http://www.w3.org/2000/svg">
<path d="M16.1585 23V14.4865H19.0091L19.4358 11.1768H16.1585V9.06379C16.1585 8.10556 16.4244 7.45253 17.7986 7.45253L19.5513 7.45171V4.4916C19.248 4.45134 18.2078 4.36118 16.9974 4.36118C14.4705 4.36118 12.7407 5.90353 12.7407 8.73608V11.1768H9.88274V14.4865H12.7407V23H2.22222C1.54721 23 1 22.4528 1 21.7778V2.22222C1 1.54721 1.54721 1 2.22222 1H21.7778C22.4528 1 23 1.54721 23 2.22222V21.7778C23 22.4528 22.4528 23 21.7778 23H16.1585Z" fill="white"/>
</svg>
