<svg width="20" height="20" viewBox="0 0 20 20" fill="none" xmlns="http://www.w3.org/2000/svg">
<path d="M10.0008 3.77378C11.9583 2.01667 14.9833 2.075 16.8688 3.96447C18.7544 5.85393 18.8191 8.86417 17.0655 10.8275L9.99987 17.9042L2.93444 10.8275C1.18083 8.86417 1.24638 5.84918 3.13109 3.96447C5.01793 2.07763 8.03762 2.01406 10.0008 3.77378ZM15.6891 5.14175C14.4399 3.88995 12.423 3.83918 11.1141 5.01406L10.0015 6.0127L8.88837 5.01484C7.57577 3.83831 5.56251 3.89007 4.3096 5.14298C3.06815 6.38443 3.00582 8.37275 4.1499 9.686L9.99987 15.5453L15.85 9.686C16.9945 8.37225 16.9325 6.38771 15.6891 5.14175Z" fill="white"/>
</svg>
