<svg width="20" height="21" viewBox="0 0 20 21" fill="none" xmlns="http://www.w3.org/2000/svg">
<path d="M17.5669 17.0335L14.5783 14.1131C15.5426 12.9091 16.0658 11.4224 16.0638 9.89183C16.0638 8.52875 15.6514 7.19629 14.8787 6.06294C14.106 4.92958 13.0078 4.04624 11.7229 3.52461C10.438 3.00299 9.02411 2.8665 7.66005 3.13243C6.29599 3.39835 5.04303 4.05473 4.0596 5.01857C3.07617 5.98241 2.40645 7.21042 2.13512 8.5473C1.86379 9.88418 2.00305 11.2699 2.53527 12.5292C3.0675 13.7885 3.9688 14.8649 5.12519 15.6222C6.28158 16.3795 7.64113 16.7837 9.03191 16.7837C10.5936 16.7856 12.1105 16.2728 13.3389 15.3278L16.3187 18.2568C16.4004 18.3375 16.4976 18.4016 16.6048 18.4454C16.7119 18.4891 16.8268 18.5116 16.9428 18.5116C17.0588 18.5116 17.1737 18.4891 17.2808 18.4454C17.3879 18.4016 17.4852 18.3375 17.5669 18.2568C17.6493 18.1767 17.7147 18.0814 17.7593 17.9764C17.8039 17.8715 17.8269 17.7589 17.8269 17.6451C17.8269 17.5314 17.8039 17.4188 17.7593 17.3138C17.7147 17.2088 17.6493 17.1136 17.5669 17.0335ZM3.75798 9.89183C3.75798 8.86952 4.06729 7.87018 4.6468 7.02016C5.2263 6.17014 6.04998 5.50764 7.01366 5.11642C7.97735 4.7252 9.03776 4.62284 10.0608 4.82228C11.0838 5.02172 12.0236 5.51401 12.7611 6.23689C13.4987 6.95977 14.001 7.88077 14.2045 8.88343C14.408 9.88609 14.3036 10.9254 13.9044 11.8699C13.5052 12.8144 12.8292 13.6216 11.9619 14.1896C11.0947 14.7575 10.075 15.0607 9.03191 15.0607C7.63317 15.0607 6.29173 14.5161 5.30268 13.5468C4.31362 12.5774 3.75798 11.2627 3.75798 9.89183Z" fill="#989797"/>
</svg>
