<svg width="26" height="26" viewBox="0 0 26 26" fill="none" xmlns="http://www.w3.org/2000/svg">
<path d="M12.8182 1L3 5.36364V11.9091C3 17.9636 7.18909 23.6255 12.8182 25C18.4473 23.6255 22.6364 17.9636 22.6364 11.9091V5.36364L12.8182 1Z" fill="#2E61FC"/>
<path d="M14.6667 18C13.6019 18 12.6181 17.6875 11.7153 17.0625C10.8125 16.4375 10.1991 15.5926 9.875 14.5278H8V13.6944H9.70833C9.6713 13.4352 9.65509 13.2037 9.65972 13C9.66435 12.7963 9.68056 12.5648 9.70833 12.3056H8V11.4722H9.875C10.1991 10.4074 10.8125 9.5625 11.7153 8.9375C12.6181 8.3125 13.6019 8 14.6667 8C15.3056 8 15.9051 8.1088 16.4653 8.32639C17.0255 8.54398 17.537 8.86111 18 9.27778L17.4028 9.86111C17.0231 9.52778 16.5972 9.27315 16.125 9.09722C15.6528 8.9213 15.1667 8.83333 14.6667 8.83333C13.7963 8.83333 13.0023 9.07639 12.2847 9.5625C11.5671 10.0486 11.0602 10.6852 10.7639 11.4722H14.6667V12.3056H10.5556C10.5093 12.5556 10.4861 12.787 10.4861 13C10.4861 13.213 10.5093 13.4444 10.5556 13.6944H14.6667V14.5278H10.7639C11.0602 15.3148 11.5671 15.9514 12.2847 16.4375C13.0023 16.9236 13.7963 17.1667 14.6667 17.1667C15.1574 17.1667 15.6389 17.0833 16.1111 16.9167C16.5833 16.75 17.0185 16.4907 17.4167 16.1389L18 16.7222C17.5926 17.1111 17.0972 17.4213 16.5139 17.6528C15.9306 17.8843 15.3148 18 14.6667 18Z" fill="white"/>
</svg>
