<svg width="24" height="24" viewBox="0 0 24 24" fill="none" xmlns="http://www.w3.org/2000/svg">
<path d="M7.17009 21.975C6.67362 21.975 6.25039 21.7982 5.90039 21.4447C5.55039 21.0912 5.37539 20.6661 5.37539 20.1697C5.37539 19.6732 5.55216 19.25 5.90569 18.9C6.25924 18.55 6.68424 18.375 7.18069 18.375C7.67716 18.375 8.10039 18.5518 8.45039 18.9053C8.80039 19.2589 8.97539 19.6839 8.97539 20.1803C8.97539 20.6768 8.79862 21.1 8.44509 21.45C8.09154 21.8 7.66654 21.975 7.17009 21.975ZM17.1701 21.975C16.6736 21.975 16.2504 21.7982 15.9004 21.4447C15.5504 21.0912 15.3754 20.6661 15.3754 20.1697C15.3754 19.6732 15.5522 19.25 15.9057 18.9C16.2592 18.55 16.6842 18.375 17.1807 18.375C17.6772 18.375 18.1004 18.5518 18.4504 18.9053C18.8004 19.2589 18.9754 19.6839 18.9754 20.1803C18.9754 20.6768 18.7986 21.1 18.4451 21.45C18.0915 21.8 17.6665 21.975 17.1701 21.975ZM5.87539 5.475L8.62539 11.175H15.8254L18.9504 5.475H5.87539ZM5.12539 3.975H19.8522C20.235 3.975 20.5262 4.15 20.7259 4.5C20.9255 4.85 20.9254 5.2 20.7254 5.55L17.3504 11.625C17.1671 11.9417 16.9291 12.1958 16.6364 12.3875C16.3437 12.5792 16.0234 12.675 15.6754 12.675H8.10039L6.70039 15.275H18.9754V16.775H6.92539C6.22539 16.775 5.72122 16.5417 5.41289 16.075C5.10456 15.6083 5.10872 15.0833 5.42539 14.5L7.02539 11.55L3.22539 3.5H1.27539V2H4.20039L5.12539 3.975Z" fill="#333333"/>
</svg>
