<svg width="50" height="32" viewBox="0 0 50 32" fill="none" xmlns="http://www.w3.org/2000/svg">
<rect x="0.5" y="0.5" width="49" height="31" stroke="black"/>
<path d="M40.3632 21.8271L40.0167 20.0871H36.1286L35.511 21.8141L32.3934 21.8209C34.3969 17.0072 35.8836 13.4413 36.8537 11.1234C37.1071 10.518 37.5576 10.2092 38.2213 10.214C38.7276 10.2178 39.5554 10.2182 40.7044 10.2154L43.1135 21.8217L40.3632 21.8271ZM37.0029 17.7036H39.5092L38.5736 13.343L37.0029 17.7036ZM16.9186 10.2112L20.0521 10.2153L15.2088 21.8271L12.0366 21.8259C10.9641 17.6848 10.1766 14.6146 9.67394 12.6151C9.51984 12.0021 9.21335 11.574 8.62426 11.3715C8.09902 11.191 7.22426 10.9119 6 10.5341V10.2154C8.28902 10.2151 9.95755 10.2151 11.0056 10.2154C11.8723 10.2157 12.3775 10.6341 12.54 11.4931C12.7032 12.3557 13.1154 14.5487 13.7766 18.0717L16.9186 10.2112ZM24.356 10.2153L21.8807 21.826L18.8986 21.8217C18.9575 21.5396 19.7815 17.6695 21.3707 10.2112L24.356 10.2153ZM30.4044 10C31.2956 10 32.4196 10.2769 33.0673 10.5341L32.5442 12.9412C31.9595 12.7064 30.9986 12.3889 30.1893 12.4013C29.0124 12.4193 28.2862 12.9132 28.2862 13.3872C28.2862 14.1565 29.5481 14.5441 30.8476 15.3859C32.3297 16.3458 32.5255 17.206 32.5071 18.1425C32.4862 20.0843 30.8476 22 27.3901 22C25.811 21.9763 25.244 21.8438 23.9571 21.3873L24.5006 18.8754C25.8103 19.4239 26.3657 19.5983 27.4849 19.5983C28.5107 19.5983 29.3912 19.1837 29.3988 18.4615C29.4042 17.948 29.0902 17.6939 27.9389 17.0586C26.7877 16.4234 25.1744 15.5452 25.1951 13.7778C25.2217 11.5164 27.3635 10 30.4044 10Z" fill="#1434CB"/>
</svg>
