<svg width="49" height="48" viewBox="0 0 49 48" fill="none" xmlns="http://www.w3.org/2000/svg">
<path d="M4 25L24.7703 4L45 25.3514L39.7703 22.8046V44H32.7432V38.3243C32.7432 33.8463 29.1131 30.2162 24.6351 30.2162C20.1572 30.2162 16.527 33.8463 16.527 38.3243V44H9.77027V22.3608L4 25Z" fill="white"/>
<path d="M4 25L24.7703 4L45 25.3514L24.7703 15.5L4 25ZM9.77027 21.5676V44H16.527V38.3243C16.527 33.8463 20.1572 30.2162 24.6351 30.2162V30.2162C29.1131 30.2162 32.7432 33.8463 32.7432 38.3243V44H39.7703V21.5676L24.7703 8.45946L9.77027 21.5676Z" stroke="white" stroke-width="8" stroke-linejoin="round"/>
</svg>
