<svg width="141" height="42" viewBox="0 0 141 42" fill="none" xmlns="http://www.w3.org/2000/svg">
<g filter="url(#filter0_d_13_27)">
<path d="M14.332 27.224C15.1 27.224 15.964 27.356 16.924 27.62C17.884 27.884 18.856 28.22 19.84 28.628C20.824 29.06 21.448 29.312 21.712 29.384C22.84 29.744 24.58 29.924 26.932 29.924C26.836 30.836 26.68 31.628 26.464 32.3C26.272 32.972 26.008 33.524 25.672 33.956C23.872 33.86 22.276 33.548 20.884 33.02C20.5 32.876 19.804 32.576 18.796 32.12C17.788 31.688 16.9 31.352 16.132 31.112C15.364 30.896 14.632 30.788 13.936 30.788C13.264 30.788 12.304 30.932 11.056 31.22C9.832 31.532 9.208 31.688 9.184 31.688C8.32 30.944 7.888 30.116 7.888 29.204C9.352 28.532 10.6 28.028 11.632 27.692C12.688 27.38 13.588 27.224 14.332 27.224ZM15.88 22.616C19.864 22.616 21.856 19.556 21.856 13.436C21.856 7.316 19.864 4.256 15.88 4.256C14.152 4.256 12.64 4.52 11.344 5.048C10.24 7.352 9.688 10.028 9.688 13.076C9.688 16.1 10.144 18.452 11.056 20.132C11.968 21.788 13.576 22.616 15.88 22.616ZM15.88 0.368C19.888 0.368 22.708 1.424 24.34 3.536C25.972 5.624 26.788 8.828 26.788 13.148C26.788 15.86 26.44 18.176 25.744 20.096C25.048 22.016 23.872 23.552 22.216 24.704C20.56 25.856 18.448 26.432 15.88 26.432C11.968 26.432 9.124 25.34 7.348 23.156C5.596 20.972 4.72 17.792 4.72 13.616C4.72 4.784 8.44 0.368 15.88 0.368ZM45.3162 7.568C45.7722 7.568 46.0602 7.58 46.1802 7.604C46.1802 8.828 45.9762 9.884 45.5682 10.772C45.4242 16.052 45.3042 19.952 45.2082 22.472C46.2882 22.568 47.2362 22.748 48.0522 23.012L47.9802 25.532C46.5162 25.988 45.2562 26.216 44.2002 26.216C43.1442 26.216 42.4242 26.192 42.0402 26.144C41.7522 25.568 41.5122 24.992 41.3202 24.416C39.3282 25.76 37.8882 26.432 37.0002 26.432C32.7042 26.432 30.5562 24.26 30.5562 19.916C30.5562 18.74 30.6522 15.848 30.8442 11.24C29.5722 11.24 28.4082 11.072 27.3522 10.736C27.3522 10.136 27.4362 9.272 27.6042 8.144C29.0202 7.76 31.4442 7.568 34.8762 7.568C35.3322 7.568 35.6202 7.58 35.7402 7.604C35.7402 8.78 35.5362 9.872 35.1282 10.88V18.152C35.1282 19.688 35.2842 20.816 35.5962 21.536C35.9322 22.232 36.6282 22.58 37.6842 22.58C38.7642 22.58 39.8682 22.208 40.9962 21.464L40.7802 11.24C39.7242 11.192 38.7282 11.024 37.7922 10.736C37.7922 10.136 37.8762 9.272 38.0442 8.144C39.4602 7.76 41.8842 7.568 45.3162 7.568ZM56.2863 26.432C54.2463 26.432 52.6623 26.012 51.5343 25.172C50.4303 24.332 49.8783 22.916 49.8783 20.924C49.8783 19.028 50.5383 17.48 51.8583 16.28C52.6263 15.584 53.6943 15.176 55.0623 15.056C56.4303 14.936 58.3143 14.876 60.7143 14.876V14.3C60.7143 12.836 60.4743 11.768 59.9943 11.096C59.5383 10.4 58.7223 10.052 57.5463 10.052C56.9463 10.052 56.4063 10.172 55.9263 10.412L55.0623 13.544L52.3983 13.472C51.7983 12.56 51.4743 11.108 51.4263 9.116C51.9063 8.876 53.0343 8.516 54.8103 8.036C56.5863 7.532 57.7263 7.28 58.2303 7.28C60.8223 7.28 62.7063 7.82 63.8823 8.9C65.0583 9.956 65.6463 11.648 65.6463 13.976C65.6463 16.28 65.5383 19.328 65.3223 23.12C66.6903 23.24 67.7463 23.444 68.4903 23.732C68.5143 24.02 68.5263 24.368 68.5263 24.776L68.4903 25.568C66.7623 26.144 65.0223 26.432 63.2703 26.432C62.8143 26.432 62.4783 26.42 62.2623 26.396C61.9023 25.676 61.6863 24.812 61.6143 23.804H61.4343C60.9783 24.236 60.1743 24.788 59.0223 25.46C57.8943 26.108 56.9823 26.432 56.2863 26.432ZM54.4863 21.14C54.4863 21.932 54.7263 22.52 55.2063 22.904C55.7103 23.264 56.2743 23.444 56.8983 23.444C57.5223 23.444 58.2663 23.168 59.1303 22.616C59.9943 22.04 60.6903 21.524 61.2183 21.068L61.0383 17.756C59.1423 17.852 57.7143 18.032 56.7543 18.296C55.2423 18.608 54.4863 19.556 54.4863 21.14ZM79.5446 11.168C79.4966 11.048 79.2566 10.988 78.8246 10.988C78.3926 10.988 77.6486 11.312 76.5926 11.96C76.4966 16.664 76.4366 20.192 76.4126 22.544L79.2206 22.904C79.2206 23.936 78.9446 24.968 78.3926 26H69.4286L69.1046 24.02C70.5926 23.468 71.6726 23.108 72.3446 22.94L71.9486 11.276C70.7006 11.18 69.6566 11 68.8166 10.736L69.0686 8.144C69.7166 7.856 72.0566 7.664 76.0886 7.568C76.3046 7.784 76.4126 8.204 76.4126 8.828C78.5246 7.796 79.8566 7.28 80.4086 7.28C80.9846 7.28 81.6806 7.424 82.4966 7.712C83.3366 7.976 83.9726 8.264 84.4046 8.576V9.188C84.4046 11.156 84.1646 12.98 83.6846 14.66C83.2766 14.828 82.7366 14.912 82.0646 14.912C81.3926 14.912 80.7686 14.876 80.1926 14.804C80.1206 14.492 79.9046 13.28 79.5446 11.168ZM94.6725 22.904C95.4885 22.904 97.1445 22.34 99.6405 21.212C100.168 21.98 100.564 22.868 100.828 23.876C99.5085 24.692 98.2125 25.328 96.9405 25.784C95.6925 26.216 94.8045 26.432 94.2765 26.432C91.3725 26.432 89.1645 25.628 87.6525 24.02C86.1645 22.412 85.4205 20.132 85.4205 17.18C85.4205 14.204 86.1645 11.816 87.6525 10.016C89.1405 8.192 91.3485 7.28 94.2765 7.28C96.6045 7.28 98.3805 8.036 99.6045 9.548C100.828 11.06 101.44 13.028 101.44 15.452C101.44 15.956 101.152 16.532 100.576 17.18L90.2085 17C90.2565 18.92 90.6165 20.384 91.2885 21.392C91.9605 22.4 93.0885 22.904 94.6725 22.904ZM93.9525 10.268C93.0405 10.268 92.1885 10.448 91.3965 10.808C90.8445 11.96 90.4965 13.028 90.3525 14.012C92.2245 13.94 94.3485 13.892 96.7245 13.868C96.6045 11.468 95.6805 10.268 93.9525 10.268ZM114.138 11.168C114.09 11.048 113.85 10.988 113.418 10.988C112.986 10.988 112.242 11.312 111.186 11.96C111.09 16.664 111.03 20.192 111.006 22.544L113.814 22.904C113.814 23.936 113.538 24.968 112.986 26H104.022L103.698 24.02C105.186 23.468 106.266 23.108 106.938 22.94L106.542 11.276C105.294 11.18 104.25 11 103.41 10.736L103.662 8.144C104.31 7.856 106.65 7.664 110.682 7.568C110.898 7.784 111.006 8.204 111.006 8.828C113.118 7.796 114.45 7.28 115.002 7.28C115.578 7.28 116.274 7.424 117.09 7.712C117.93 7.976 118.566 8.264 118.998 8.576V9.188C118.998 11.156 118.758 12.98 118.278 14.66C117.87 14.828 117.33 14.912 116.658 14.912C115.986 14.912 115.362 14.876 114.786 14.804C114.714 14.492 114.498 13.28 114.138 11.168ZM129.266 22.904C130.082 22.904 131.738 22.34 134.234 21.212C134.762 21.98 135.158 22.868 135.422 23.876C134.102 24.692 132.806 25.328 131.534 25.784C130.286 26.216 129.398 26.432 128.87 26.432C125.966 26.432 123.758 25.628 122.246 24.02C120.758 22.412 120.014 20.132 120.014 17.18C120.014 14.204 120.758 11.816 122.246 10.016C123.734 8.192 125.942 7.28 128.87 7.28C131.198 7.28 132.974 8.036 134.198 9.548C135.422 11.06 136.034 13.028 136.034 15.452C136.034 15.956 135.746 16.532 135.17 17.18L124.802 17C124.85 18.92 125.21 20.384 125.882 21.392C126.554 22.4 127.682 22.904 129.266 22.904ZM128.546 10.268C127.634 10.268 126.782 10.448 125.99 10.808C125.438 11.96 125.09 13.028 124.946 14.012C126.818 13.94 128.942 13.892 131.318 13.868C131.198 11.468 130.274 10.268 128.546 10.268Z" fill="white"/>
</g>
<defs>
<filter id="filter0_d_13_27" x="0.719971" y="0.367981" width="139.314" height="41.588" filterUnits="userSpaceOnUse" color-interpolation-filters="sRGB">
<feFlood flood-opacity="0" result="BackgroundImageFix"/>
<feColorMatrix in="SourceAlpha" type="matrix" values="0 0 0 0 0 0 0 0 0 0 0 0 0 0 0 0 0 0 127 0" result="hardAlpha"/>
<feOffset dy="4"/>
<feGaussianBlur stdDeviation="2"/>
<feComposite in2="hardAlpha" operator="out"/>
<feColorMatrix type="matrix" values="0 0 0 0 0 0 0 0 0 0 0 0 0 0 0 0 0 0 0.25 0"/>
<feBlend mode="normal" in2="BackgroundImageFix" result="effect1_dropShadow_13_27"/>
<feBlend mode="normal" in="SourceGraphic" in2="effect1_dropShadow_13_27" result="shape"/>
</filter>
</defs>
</svg>
