<svg width="20" height="20" viewBox="0 0 20 20" fill="none" xmlns="http://www.w3.org/2000/svg">
<path d="M9.45854 16.9207C8.54431 16.9207 7.69377 16.7563 6.90692 16.4275C6.12007 16.0988 5.43658 15.6444 4.85645 15.0642C4.27632 14.4841 3.82188 13.8006 3.49313 13.0137C3.16438 12.2269 3 11.3758 3 10.4603C3 9.55552 3.16407 8.71025 3.49222 7.9245C3.82038 7.13876 4.27482 6.45527 4.85555 5.87403C5.43627 5.29279 6.12007 4.83515 6.90692 4.5011C7.69377 4.16703 8.54427 4 9.45843 4C10.2538 4 10.9962 4.1254 11.6856 4.3762C12.375 4.627 12.9979 4.97378 13.5545 5.41654L12.7677 6.1995C12.3137 5.84606 11.8085 5.57239 11.2521 5.3785C10.6957 5.1846 10.0978 5.08765 9.45843 5.08765C7.93011 5.08765 6.65227 5.60065 5.62489 6.62664C4.59752 7.65263 4.08383 8.93094 4.08383 10.4616C4.08383 11.9922 4.59752 13.2708 5.62489 14.2972C6.65227 15.3236 7.93011 15.8368 9.45843 15.8368C9.84178 15.8368 10.2111 15.801 10.5663 15.7292C10.9216 15.6574 11.2651 15.5499 11.5967 15.4066L12.4153 16.2411C11.9729 16.4583 11.5039 16.6259 11.0085 16.7438C10.513 16.8617 9.99634 16.9207 9.45854 16.9207ZM14.0072 15.4585V13.5495H12.0982V12.4657H14.0072V10.5567H15.091V12.4657H17V13.5495H15.091V15.4585H14.0072ZM8.51223 13.4146L5.8455 10.732L6.63747 9.93624L8.51223 11.811L15.1249 5.19833L15.9366 5.99408L8.51223 13.4146Z" fill="#4F4C4C"/>
</svg>
