<svg width="20" height="20" viewBox="0 0 20 20" fill="none" xmlns="http://www.w3.org/2000/svg">
<path d="M11.2492 11.4607C11.7432 11.4607 12.165 11.2938 12.5147 10.9601C12.8643 10.6263 13.0407 10.2277 13.0438 9.76432H16.6669V3.33313H5.83152V9.76432H9.45573C9.46196 10.2277 9.64051 10.6263 9.9914 10.9601C10.3423 11.2938 10.7615 11.4607 11.2492 11.4607ZM5.83152 15.4969C5.47276 15.4969 5.16165 15.3652 4.89821 15.1018C4.63477 14.8383 4.50305 14.5272 4.50305 14.1685V3.33313C4.50305 2.97308 4.63477 2.66088 4.89821 2.39653C5.16165 2.13218 5.47276 2 5.83152 2H16.6669C17.0269 2 17.3391 2.13218 17.6035 2.39653C17.8678 2.66088 18 2.97308 18 3.33313V14.1685C18 14.5272 17.8678 14.8383 17.6035 15.1018C17.3391 15.3652 17.0269 15.4969 16.6669 15.4969H5.83152ZM3.33313 18C2.97308 18 2.66088 17.8678 2.39653 17.6035C2.13218 17.3391 2 17.0269 2 16.6669V4.50305H3.33313V16.6669H15.4969V18H3.33313Z" fill="#FAFAFA"/>
</svg>
