<svg width="20" height="20" viewBox="0 0 20 20" fill="none" xmlns="http://www.w3.org/2000/svg">
<path d="M4.30268 17.0411C3.95088 17.0411 3.64581 16.912 3.38748 16.6537C3.12916 16.3953 3 16.0903 3 15.7385V5.73841C3 5.53196 3.0214 5.35495 3.06421 5.20739C3.10702 5.05983 3.18399 4.92411 3.29511 4.80024L4.36586 3.34708C4.48003 3.22321 4.61167 3.13441 4.76076 3.08065C4.90983 3.02688 5.08368 3 5.28231 3H14.7131C14.9117 3 15.0824 3.02688 15.2251 3.08065C15.3678 3.13441 15.4978 3.22321 15.615 3.34708L16.7049 4.80024C16.8129 4.92411 16.8891 5.05983 16.9335 5.20739C16.9778 5.35495 17 5.53196 17 5.73841V15.7385C17 16.0903 16.8704 16.3953 16.6111 16.6537C16.3519 16.912 16.0458 17.0411 15.6927 17.0411H4.30268ZM4.60945 5.18682H15.3714L14.6753 4.30727H5.29873L4.60945 5.18682ZM4.30268 6.33405V15.7385H15.6927V6.33405H4.30268ZM9.9977 14.0313L13.0445 10.9891L12.234 10.174L10.6079 11.8V7.96595H9.39208V11.8L7.76142 10.174L6.95545 10.9891L9.9977 14.0313Z" fill="#EAE9E8"/>
</svg>
