<svg width="18" height="18" viewBox="0 0 18 18" fill="none" xmlns="http://www.w3.org/2000/svg">
<path d="M3.25616 15.5397C2.91692 15.5397 2.62275 15.4151 2.37364 15.166C2.12455 14.9169 2 14.6228 2 14.2835V4.64061C2 4.44153 2.02064 4.27085 2.06191 4.12856C2.1032 3.98627 2.17742 3.8554 2.28457 3.73594L3.31708 2.33468C3.42718 2.21524 3.55411 2.1296 3.69787 2.07777C3.84162 2.02592 4.00927 2 4.2008 2H13.2948C13.4863 2 13.6509 2.02592 13.7885 2.07777C13.9261 2.1296 14.0514 2.21524 14.1645 2.33468L15.2154 3.73594C15.3196 3.8554 15.3931 3.98627 15.4359 4.12856C15.4786 4.27085 15.5 4.44153 15.5 4.64061V14.2835C15.5 14.6228 15.375 14.9169 15.125 15.166C14.8751 15.4151 14.5799 15.5397 14.2394 15.5397H3.25616ZM3.55197 4.10872H13.9296L13.2583 3.26058H4.21663L3.55197 4.10872ZM3.25616 5.21498V14.2835H14.2394V5.21498H3.25616ZM8.74779 12.6373L11.6858 9.70374L10.9042 8.91775L9.33619 10.4857V6.7886H8.16379V10.4857L6.59137 8.91775L5.81419 9.70374L8.74779 12.6373Z" fill="#4F4C4C"/>
</svg>
