<svg width="20" height="20" viewBox="0 0 20 20" fill="none" xmlns="http://www.w3.org/2000/svg">
<path d="M0 2C0 0.895431 0.895431 0 2 0H18C19.1046 0 20 0.895431 20 2V8C20 14.6274 14.6274 20 8 20H2C0.895431 20 0 19.1046 0 18V2Z" fill="white"/>
<path d="M8.10511 13.0795C7.69602 13.0795 7.33239 13.0095 7.0142 12.8693C6.69792 12.7292 6.44792 12.5341 6.2642 12.2841C6.08049 12.0341 5.98295 11.7453 5.97159 11.4176H7.03977C7.04924 11.5748 7.10133 11.7121 7.19602 11.8295C7.29072 11.9451 7.41667 12.035 7.57386 12.0994C7.73106 12.1638 7.9072 12.196 8.10227 12.196C8.31061 12.196 8.49527 12.16 8.65625 12.0881C8.81723 12.0142 8.94318 11.9119 9.03409 11.7812C9.125 11.6506 9.16951 11.5 9.16761 11.3295C9.16951 11.1534 9.12405 10.9981 9.03125 10.8636C8.93845 10.7292 8.80398 10.6241 8.62784 10.5483C8.4536 10.4725 8.24337 10.4347 7.99716 10.4347H7.48295V9.62216H7.99716C8.19981 9.62216 8.37689 9.58712 8.52841 9.51705C8.68182 9.44697 8.80208 9.34848 8.8892 9.22159C8.97633 9.0928 9.01894 8.94413 9.01705 8.77557C9.01894 8.6108 8.98201 8.4678 8.90625 8.34659C8.83239 8.22348 8.72727 8.12784 8.59091 8.05966C8.45644 7.99148 8.2983 7.95739 8.11648 7.95739C7.93845 7.95739 7.77367 7.98958 7.62216 8.05398C7.47064 8.11837 7.34848 8.21023 7.25568 8.32955C7.16288 8.44697 7.11364 8.58712 7.10795 8.75H6.09375C6.10133 8.42424 6.19508 8.13826 6.375 7.89205C6.55682 7.64394 6.79924 7.45076 7.10227 7.3125C7.4053 7.17235 7.74527 7.10227 8.12216 7.10227C8.51042 7.10227 8.84754 7.17519 9.13352 7.32102C9.4214 7.46496 9.64394 7.65909 9.80114 7.90341C9.95833 8.14773 10.0369 8.41761 10.0369 8.71307C10.0388 9.04072 9.94223 9.31534 9.74716 9.53693C9.55398 9.75852 9.30019 9.90341 8.9858 9.97159V10.017C9.39489 10.0739 9.70833 10.2254 9.92614 10.4716C10.1458 10.7159 10.2547 11.0199 10.2528 11.3835C10.2528 11.7093 10.16 12.0009 9.97443 12.2585C9.79072 12.5142 9.53693 12.715 9.21307 12.8608C8.8911 13.0066 8.52178 13.0795 8.10511 13.0795ZM13.5945 7.18182V13H12.5405V8.20739H12.5064L11.1456 9.0767V8.1108L12.5916 7.18182H13.5945Z" fill="#4285F4"/>
<path d="M0 2C0 0.895431 0.89543 0 2 0H4.16667V20H2C0.895431 20 0 19.1046 0 18V2Z" fill="#4285F4"/>
<path d="M0 2C0 0.895431 0.895431 0 2 0H18C19.1046 0 20 0.89543 20 2V4.16667H0V2Z" fill="#4285F4"/>
<path d="M15.8333 0H18C19.1045 0 20 0.89543 20 2V15.8333H15.8333V0Z" fill="#FBBC04"/>
<path d="M0 15.8333H15.8333V19.9999H2C0.895429 19.9999 0 19.1045 0 17.9999L0 15.8333Z" fill="#34A853"/>
<path d="M15.8333 15.8333H20L17.9166 17.9166L15.8333 19.9999V15.8333Z" fill="#EB4135"/>
<path d="M15.8333 0H18C19.1045 0 20 0.89543 20 2V4.16667H15.8333V0Z" fill="#3871D0"/>
<path d="M0 15.8333H4.16667V19.9999H2C0.895431 19.9999 0 19.1045 0 17.9999V15.8333Z" fill="#259242"/>
</svg>
