<svg width="18" height="18" viewBox="0 0 18 18" fill="none" xmlns="http://www.w3.org/2000/svg">
<path d="M3.41535 15.862C3.07036 15.862 2.7712 15.7353 2.51788 15.482C2.26457 15.2287 2.13791 14.9295 2.13791 14.5845V3.41524C2.13791 3.06903 2.26457 2.76882 2.51788 2.51462C2.7712 2.26041 3.07036 2.1333 3.41535 2.1333H14.5846C14.9309 2.1333 15.2311 2.26041 15.4853 2.51462C15.7395 2.76882 15.8666 3.06903 15.8666 3.41524V14.5845C15.8666 14.9295 15.7395 15.2287 15.4853 15.482C15.2311 15.7353 14.9309 15.862 14.5846 15.862H3.41535ZM3.41535 14.5845H14.5846V3.41524H3.41535V14.5845Z" fill="#4F4C4C"/>
</svg>
