<svg width="58" height="40" viewBox="0 0 58 40" fill="none" xmlns="http://www.w3.org/2000/svg">
<rect width="58" height="40" rx="4" fill="#F7F8FC"/>
<rect x="19" y="30" width="37" height="8" rx="4" fill="#D3E3FC"/>
<path d="M30 34L48 34" stroke="#3A3A3A" stroke-width="0.75" stroke-linecap="round"/>
<rect x="22.375" y="32.375" width="3.25" height="3.25" stroke="#3A3A3A" stroke-width="0.75"/>
<rect x="18" y="15" width="31" height="10" rx="4" fill="#C4E7FD"/>
<path d="M24.8257 18.0368L25.0639 18.2869C25.3045 18.5395 25.3184 18.9676 25.0947 19.2365L23.2026 21.5107L22.0884 21.5107L22.0884 20.3766L24.0115 18.0652C24.2294 17.8034 24.5914 17.7908 24.8257 18.0368Z" stroke="#3A3A3A" stroke-width="0.75"/>
<path d="M24.0432 21.6416H25.824" stroke="#3A3A3A" stroke-width="0.75"/>
<path d="M29.1428 20.2859H40" stroke="#3A3A3A" stroke-linecap="round"/>
<path d="M28.5391 8.07C28.4505 8.07 28.3898 8.04433 28.3571 7.993C28.3245 7.94167 28.3081 7.88567 28.3081 7.825C28.3081 7.53567 28.3361 7.20433 28.3921 6.831C28.4528 6.45767 28.5251 6.08667 28.6091 5.718C28.6838 5.40533 28.7655 5.11367 28.8541 4.843C28.9475 4.57233 29.0291 4.35067 29.0991 4.178C29.2018 3.93533 29.3185 3.751 29.4491 3.625C29.5845 3.49433 29.7408 3.429 29.9181 3.429C30.0488 3.429 30.1655 3.47333 30.2681 3.562C30.3708 3.646 30.4315 3.8 30.4501 4.024C30.4781 4.29467 30.5108 4.56767 30.5481 4.843C30.5855 5.11833 30.6275 5.37033 30.6741 5.599C30.7208 5.823 30.7698 5.99567 30.8211 6.117C30.8631 6.22433 30.9238 6.278 31.0031 6.278C31.0918 6.278 31.1688 6.222 31.2341 6.11C31.2948 6.00733 31.3601 5.86733 31.4301 5.69C31.5001 5.51267 31.5678 5.326 31.6331 5.13C31.7031 4.92933 31.7638 4.74733 31.8151 4.584C31.8758 4.40667 31.9435 4.22933 32.0181 4.052C32.0975 3.87 32.1978 3.72067 32.3191 3.604C32.4405 3.48267 32.5921 3.422 32.7741 3.422C32.9421 3.422 33.0611 3.48033 33.1311 3.597C33.2058 3.709 33.2431 3.88867 33.2431 4.136C33.2431 4.32733 33.2361 4.528 33.2221 4.738C33.2175 4.85933 33.2105 4.98533 33.2011 5.116C33.1965 5.242 33.1941 5.37267 33.1941 5.508C33.1941 5.718 33.2035 5.93967 33.2221 6.173C33.2455 6.40633 33.2875 6.62567 33.3481 6.831C33.4135 7.03633 33.5091 7.209 33.6351 7.349C33.6725 7.38167 33.7051 7.419 33.7331 7.461C33.7658 7.503 33.7821 7.54967 33.7821 7.601C33.7821 7.71767 33.7191 7.825 33.5931 7.923C33.4718 8.01633 33.3318 8.063 33.1731 8.063C33.0285 8.063 32.9211 8.01633 32.8511 7.923C32.7811 7.82967 32.7251 7.70367 32.6831 7.545C32.6365 7.349 32.6038 7.139 32.5851 6.915C32.5665 6.691 32.5571 6.474 32.5571 6.264C32.5571 5.928 32.5688 5.62 32.5921 5.34C32.6201 5.05533 32.6341 4.84533 32.6341 4.71C32.6341 4.63533 32.6271 4.58167 32.6131 4.549C32.5991 4.51167 32.5641 4.493 32.5081 4.493C32.4428 4.493 32.3868 4.52333 32.3401 4.584C32.2981 4.64 32.2631 4.71933 32.2351 4.822C32.1745 5.018 32.1068 5.228 32.0321 5.452C31.9575 5.676 31.8781 5.89533 31.7941 6.11C31.7148 6.32467 31.6285 6.516 31.5351 6.684C31.4278 6.88 31.3111 7.013 31.1851 7.083C31.0638 7.14833 30.9401 7.181 30.8141 7.181C30.6181 7.181 30.4688 7.12033 30.3661 6.999C30.2681 6.873 30.1958 6.73533 30.1491 6.586C30.0885 6.38533 30.0325 6.124 29.9811 5.802C29.9298 5.47533 29.8925 5.109 29.8691 4.703C29.8598 4.53033 29.8038 4.444 29.7011 4.444C29.5891 4.444 29.5005 4.528 29.4351 4.696C29.3791 4.864 29.3255 5.06233 29.2741 5.291C29.2228 5.515 29.1808 5.75067 29.1481 5.998C29.1201 6.24067 29.1061 6.481 29.1061 6.719C29.1061 6.91967 29.1131 7.09467 29.1271 7.244C29.1458 7.39333 29.1551 7.53333 29.1551 7.664C29.1551 7.75733 29.1178 7.83433 29.0431 7.895C28.9731 7.95567 28.8891 8 28.7911 8.028C28.6931 8.056 28.6091 8.07 28.5391 8.07ZM35.0472 8.091C34.7672 8.091 34.5409 8.00467 34.3682 7.832C34.2002 7.65467 34.1162 7.40267 34.1162 7.076C34.1162 6.84267 34.1605 6.61167 34.2492 6.383C34.3425 6.14967 34.4755 5.93967 34.6482 5.753C34.8209 5.56633 35.0285 5.417 35.2712 5.305C35.5139 5.193 35.7869 5.137 36.0902 5.137C36.3702 5.137 36.6082 5.186 36.8042 5.284C37.0049 5.37733 37.1052 5.50567 37.1052 5.669C37.1052 5.711 37.1005 5.767 37.0912 5.837C37.0819 5.90233 37.0702 5.956 37.0562 5.998C37.0422 6.03533 37.0212 6.07033 36.9932 6.103C36.9699 6.131 36.9372 6.145 36.8952 6.145C36.8765 6.145 36.8415 6.138 36.7902 6.124C36.7715 6.222 36.7575 6.31767 36.7482 6.411C36.7389 6.50433 36.7342 6.59767 36.7342 6.691C36.7342 6.86833 36.7599 7.027 36.8112 7.167C36.8672 7.30233 36.9745 7.38633 37.1332 7.419C37.1752 7.42833 37.2079 7.44233 37.2312 7.461C37.2592 7.47967 37.2732 7.51933 37.2732 7.58C37.2732 7.63133 37.2592 7.69667 37.2312 7.776C37.2079 7.85533 37.1589 7.92767 37.0842 7.993C37.0142 8.05367 36.9115 8.084 36.7762 8.084C36.5942 8.084 36.4542 8.01867 36.3562 7.888C36.2582 7.75267 36.2092 7.56133 36.2092 7.314C36.0832 7.54267 35.9222 7.72933 35.7262 7.874C35.5349 8.01867 35.3085 8.091 35.0472 8.091ZM35.2712 7.363C35.4579 7.363 35.6212 7.30467 35.7612 7.188C35.9059 7.07133 36.0179 6.92433 36.0972 6.747C36.1485 6.635 36.1882 6.51367 36.2162 6.383C36.2442 6.24767 36.2629 6.11467 36.2722 5.984C36.1929 5.94667 36.1019 5.91633 35.9992 5.893C35.8965 5.86967 35.7892 5.858 35.6772 5.858C35.3925 5.858 35.1569 5.942 34.9702 6.11C34.7882 6.278 34.6972 6.488 34.6972 6.74C34.6972 6.92667 34.7485 7.07833 34.8512 7.195C34.9539 7.307 35.0939 7.363 35.2712 7.363ZM38.2946 4.521C38.1639 4.51633 38.0589 4.47667 37.9796 4.402C37.9002 4.32733 37.8606 4.22233 37.8606 4.087C37.8652 3.94233 37.9142 3.82567 38.0076 3.737C38.1009 3.64367 38.2199 3.59933 38.3646 3.604C38.4999 3.60867 38.6049 3.64833 38.6796 3.723C38.7589 3.79767 38.7962 3.90267 38.7916 4.038C38.7869 4.178 38.7402 4.29467 38.6516 4.388C38.5629 4.47667 38.4439 4.521 38.2946 4.521ZM38.3016 8.07C38.1616 8.07 38.0519 8.03267 37.9726 7.958C37.8932 7.87867 37.8536 7.74567 37.8536 7.559C37.8536 7.45167 37.8629 7.34667 37.8816 7.244C37.9049 7.14133 37.9306 7.041 37.9586 6.943C37.9912 6.84033 38.0169 6.73533 38.0356 6.628C38.0589 6.52067 38.0706 6.40633 38.0706 6.285C38.0706 6.201 38.0589 6.12167 38.0356 6.047C38.0122 5.96767 37.9609 5.90933 37.8816 5.872C37.8209 5.83933 37.7672 5.80667 37.7206 5.774C37.6786 5.73667 37.6576 5.69 37.6576 5.634C37.6576 5.56867 37.6879 5.49867 37.7486 5.424C37.8092 5.34933 37.8886 5.28633 37.9866 5.235C38.0892 5.179 38.1942 5.151 38.3016 5.151C38.4182 5.151 38.5022 5.18133 38.5536 5.242C38.6096 5.30267 38.6469 5.37967 38.6656 5.473C38.6842 5.56633 38.6936 5.662 38.6936 5.76C38.6936 5.90933 38.6819 6.05633 38.6586 6.201C38.6352 6.341 38.6119 6.47167 38.5886 6.593C38.5699 6.68167 38.5559 6.76333 38.5466 6.838C38.5372 6.91267 38.5326 6.98267 38.5326 7.048C38.5326 7.16467 38.5606 7.25333 38.6166 7.314C38.6726 7.37 38.7519 7.42367 38.8546 7.475C38.8966 7.49833 38.9176 7.53333 38.9176 7.58C38.9176 7.61733 38.8989 7.67567 38.8616 7.755C38.8242 7.83433 38.7589 7.90667 38.6656 7.972C38.5769 8.03733 38.4556 8.07 38.3016 8.07ZM39.9609 8.07C39.8255 8.07 39.7252 8.03267 39.6599 7.958C39.5945 7.88333 39.5619 7.75267 39.5619 7.566C39.5619 7.47733 39.5689 7.363 39.5829 7.223C39.5969 7.083 39.6132 6.93133 39.6319 6.768C39.6599 6.56733 39.6832 6.35733 39.7019 6.138C39.7252 5.91867 39.7369 5.70867 39.7369 5.508C39.7369 5.22333 39.7229 4.92933 39.6949 4.626C39.6715 4.318 39.6015 4.04967 39.4849 3.821C39.4429 3.72767 39.4219 3.66 39.4219 3.618C39.4219 3.55733 39.4475 3.499 39.4989 3.443C39.5549 3.387 39.6225 3.34033 39.7019 3.303C39.7812 3.261 39.8582 3.24 39.9329 3.24C40.0542 3.24 40.1452 3.296 40.2059 3.408C40.2665 3.51533 40.3062 3.66467 40.3249 3.856C40.3435 4.04267 40.3529 4.25733 40.3529 4.5C40.3529 4.86867 40.3365 5.18833 40.3039 5.459C40.2759 5.72967 40.2479 5.96767 40.2199 6.173C40.2012 6.30833 40.1825 6.43667 40.1639 6.558C40.1499 6.67933 40.1429 6.789 40.1429 6.887C40.1429 7.05033 40.1685 7.16933 40.2199 7.244C40.2759 7.314 40.3645 7.384 40.4859 7.454C40.5185 7.47267 40.5419 7.49133 40.5559 7.51C40.5745 7.524 40.5839 7.54733 40.5839 7.58C40.5839 7.61733 40.5652 7.67567 40.5279 7.755C40.4905 7.83433 40.4252 7.90667 40.3319 7.972C40.2432 8.03733 40.1195 8.07 39.9609 8.07ZM42.1347 8.091C41.78 8.091 41.5023 7.99067 41.3017 7.79C41.1057 7.58467 41.0077 7.3 41.0077 6.936C41.0077 6.60467 41.08 6.30367 41.2247 6.033C41.3693 5.76233 41.563 5.54767 41.8057 5.389C42.053 5.22567 42.3237 5.144 42.6177 5.144C42.8977 5.144 43.1217 5.214 43.2897 5.354C43.4577 5.48933 43.5417 5.67133 43.5417 5.9C43.5417 6.082 43.4857 6.25 43.3737 6.404C43.2617 6.558 43.1123 6.68167 42.9257 6.775C42.739 6.86367 42.5313 6.908 42.3027 6.908C42.0227 6.908 41.794 6.845 41.6167 6.719C41.6213 6.93367 41.6937 7.10633 41.8337 7.237C41.9783 7.36767 42.1627 7.433 42.3867 7.433C42.522 7.433 42.6597 7.40967 42.7997 7.363C42.9443 7.31167 43.068 7.244 43.1707 7.16C43.236 7.104 43.2967 7.076 43.3527 7.076C43.3993 7.076 43.4367 7.09233 43.4647 7.125C43.4973 7.153 43.5137 7.19033 43.5137 7.237C43.5137 7.33967 43.425 7.475 43.2477 7.643C42.935 7.94167 42.564 8.091 42.1347 8.091ZM42.2397 6.446C42.4077 6.446 42.5477 6.411 42.6597 6.341C42.7717 6.271 42.8277 6.18233 42.8277 6.075C42.8277 5.98633 42.7903 5.91867 42.7157 5.872C42.641 5.82067 42.5383 5.795 42.4077 5.795C42.235 5.795 42.0833 5.84167 41.9527 5.935C41.8267 6.02367 41.7357 6.14967 41.6797 6.313C41.745 6.355 41.829 6.38767 41.9317 6.411C42.0343 6.43433 42.137 6.446 42.2397 6.446ZM44.4976 8.077C44.423 8.077 44.3623 8.063 44.3156 8.035C44.2736 8.01167 44.2596 7.96967 44.2736 7.909C44.325 7.70833 44.367 7.50533 44.3996 7.3C44.437 7.09 44.4556 6.88933 44.4556 6.698C44.4556 6.45067 44.4393 6.271 44.4066 6.159C44.3786 6.04233 44.339 5.963 44.2876 5.921C44.2363 5.87433 44.1733 5.83933 44.0986 5.816C44.066 5.802 44.0356 5.78333 44.0076 5.76C43.9843 5.73667 43.9726 5.704 43.9726 5.662C43.9726 5.59667 43.9983 5.52433 44.0496 5.445C44.101 5.36567 44.1733 5.298 44.2666 5.242C44.36 5.18133 44.4673 5.151 44.5886 5.151C44.7473 5.151 44.857 5.207 44.9176 5.319C44.983 5.42633 45.0156 5.56867 45.0156 5.746C45.0996 5.55933 45.2023 5.41233 45.3236 5.305C45.4496 5.193 45.606 5.137 45.7926 5.137C45.9186 5.137 46.0236 5.165 46.1076 5.221C46.1916 5.277 46.2336 5.368 46.2336 5.494C46.2336 5.62 46.1916 5.739 46.1076 5.851C46.0283 5.95833 45.9466 6.012 45.8626 6.012C45.8486 6.012 45.8323 6.00967 45.8136 6.005C45.795 6.00033 45.7786 5.98867 45.7646 5.97C45.704 5.89533 45.6293 5.858 45.5406 5.858C45.4053 5.858 45.2863 5.94667 45.1836 6.124C45.081 6.30133 45.025 6.54633 45.0156 6.859C45.0203 6.97567 45.0226 7.09467 45.0226 7.216C45.0273 7.33733 45.0296 7.426 45.0296 7.482C45.0296 7.65467 44.9806 7.797 44.8826 7.909C44.7893 8.021 44.661 8.077 44.4976 8.077Z" fill="#3A3A3A"/>
<path d="M20.299 3.13916V3.13916C21.1394 2.48255 22.3529 2.63156 23.0096 3.47198L26.5762 8.03712V8.03712C25.7358 8.69373 24.5222 8.54472 23.8656 7.7043L20.299 3.13916Z" fill="url(#paint0_linear_621_5)"/>
<path d="M20.9753 8.55127V8.55127C20.3187 7.71085 20.4677 6.49727 21.3081 5.84066L25.8732 2.27399V2.27399C26.5298 3.11441 26.3808 4.32799 25.5404 4.98459L20.9753 8.55127Z" fill="url(#paint1_linear_621_5)"/>
<path d="M0 4C0 1.79086 1.79086 0 4 0H16V40H4C1.79086 40 0 38.2091 0 36V4Z" fill="#EAEEF6"/>
<path d="M6.00792 29.6001C6.0261 29.6001 6.04399 29.6047 6.05992 29.6135L10.0441 31.8048C10.0963 31.8335 10.1154 31.8991 10.0866 31.9513C10.0768 31.9692 10.062 31.984 10.0441 31.9938L6.05992 34.1851C6.00771 34.2139 5.9421 34.1948 5.91338 34.1426C5.90462 34.1267 5.90002 34.1088 5.90002 34.0906V29.708C5.90002 29.6484 5.94833 29.6001 6.00792 29.6001ZM6.33162 30.2555V31.6835H7.41061V32.1151H6.33162V33.5431L9.32041 31.8993L6.33162 30.2555Z" fill="#4F4C4C"/>
<path d="M3 20C3 17.7909 4.79086 16 7 16H9C11.2091 16 13 17.7909 13 20V20C13 22.2091 11.2091 24 9 24H7C4.79086 24 3 22.2091 3 20V20Z" fill="#C7D6F3"/>
<path d="M6.10996 17.9001H9.88996C10.0059 17.9001 10.1 18.0046 10.1 18.1335V21.8668C10.1 21.9957 10.0059 22.1001 9.88996 22.1001H6.10996C5.99398 22.1001 5.89996 21.9957 5.89996 21.8668V18.1335C5.89996 18.0046 5.99398 17.9001 6.10996 17.9001ZM7.36996 20.0001C7.36996 20.3868 7.65201 20.7001 7.99996 20.7001C8.34791 20.7001 8.62996 20.3868 8.62996 20.0001H9.67996V18.3668H6.31996V20.0001H7.36996Z" fill="#4F4C4C"/>
<path d="M6 6L10 6" stroke="#3A3A3A" stroke-width="0.5" stroke-linecap="round"/>
<path d="M6 5L10 5" stroke="#3A3A3A" stroke-width="0.5" stroke-linecap="round"/>
<path d="M6 4L10 4" stroke="#3A3A3A" stroke-width="0.5" stroke-linecap="round"/>
<defs>
<linearGradient id="paint0_linear_621_5" x1="21.0598" y1="2.54471" x2="25.8154" y2="8.63157" gradientUnits="userSpaceOnUse">
<stop offset="0.385417" stop-color="#E24735"/>
<stop offset="1" stop-color="#4785FC"/>
</linearGradient>
<linearGradient id="paint1_linear_621_5" x1="20.3808" y1="7.79041" x2="26.4677" y2="3.03484" gradientUnits="userSpaceOnUse">
<stop offset="0.385417" stop-color="#E24735"/>
<stop offset="1" stop-color="#4785FC"/>
</linearGradient>
</defs>
</svg>
