<svg width="70" height="32" viewBox="0 0 70 32" fill="none" xmlns="http://www.w3.org/2000/svg">
<path d="M0.5 3C0.5 1.61929 1.61929 0.5 3 0.5H67C68.3807 0.5 69.5 1.61929 69.5 3V29C69.5 30.3807 68.3807 31.5 67 31.5H3C1.61929 31.5 0.5 30.3807 0.5 29V3Z" fill="white" stroke="#D2D2D2"/>
<rect x="14" y="12" width="50" height="17" rx="8.5" fill="#E9EEF7"/>
<rect x="21" y="15" width="11" height="11" fill="#4285F4"/>
<rect x="31" y="25" width="1" height="1" fill="#8FBEFF"/>
<rect x="21" y="25" width="1" height="1" fill="#8FBEFF"/>
<rect x="21" y="15" width="1" height="1" fill="#8FBEFF"/>
<rect x="31" y="15" width="1" height="1" fill="#8FBEFF"/>
<rect x="15" y="6" width="49" height="3" rx="1.5" fill="#D9D9D9"/>
<rect x="5.5" y="5.5" width="4" height="4" stroke="#D9D9D9"/>
</svg>
