<svg width="70" height="32" viewBox="0 0 70 32" fill="none" xmlns="http://www.w3.org/2000/svg">
<path d="M0.5 3C0.5 1.61929 1.61929 0.5 3 0.5H67C68.3807 0.5 69.5 1.61929 69.5 3V29C69.5 30.3807 68.3807 31.5 67 31.5H3C1.61929 31.5 0.5 30.3807 0.5 29V3Z" fill="white" fill-opacity="0.2" stroke="#D2D2D2"/>
<rect x="15" y="4" width="49" height="3" rx="1.5" fill="#D9D9D9"/>
<rect x="5.5" y="3.5" width="4" height="4" stroke="#D9D9D9"/>
<rect x="15" y="14" width="49" height="3" rx="1.5" fill="#D9D9D9"/>
<rect x="5.5" y="13.5" width="4" height="4" stroke="#D9D9D9"/>
<rect x="15" y="24" width="49" height="3" rx="1.5" fill="#D9D9D9"/>
<rect x="5.5" y="23.5" width="4" height="4" stroke="#D9D9D9"/>
<line x1="1" y1="10.5" x2="69" y2="10.5" stroke="#D2D2D2"/>
<line x1="1" y1="20.5" x2="69" y2="20.5" stroke="#D2D2D2"/>
</svg>
