<svg width="40" height="40" viewBox="0 0 40 40" fill="none" xmlns="http://www.w3.org/2000/svg">
<g clip-path="url(#clip0_293_327)">
<path fill-rule="evenodd" clip-rule="evenodd" d="M31.8558 10.9758C33.4196 10.9758 34.6875 9.708 34.6875 8.14419C34.6875 6.58039 33.4196 5.31258 31.8558 5.31258C30.292 5.31258 29.0242 6.58039 29.0242 8.14419C29.0242 9.708 30.292 10.9758 31.8558 10.9758ZM11.7959 10.1115L20.4826 1.42477C21.1452 0.76212 22.0655 0.357261 23.0778 0.357261H35.9617C36.4456 0.355572 36.925 0.449632 37.3724 0.634024C37.8198 0.818417 38.2262 1.0895 38.5684 1.43165C38.9106 1.77381 39.1817 2.18028 39.3661 2.62765C39.5505 3.07502 39.6445 3.55446 39.6428 4.03834V16.9222C39.6428 17.9346 39.2379 18.8549 38.5569 19.5174L29.8835 28.1992L11.7959 10.1115Z" fill="#4285F4"/>
<path fill-rule="evenodd" clip-rule="evenodd" d="M29.8834 28.1992L19.1786 38.914C18.4975 39.5766 17.5773 40 16.5651 40C15.5528 40 14.6324 39.5766 13.9698 38.914L1.08587 26.0302C0.404859 25.3676 0 24.4473 0 23.435C0 22.4043 0.423301 21.484 1.08587 20.8214L11.7959 10.1115L29.8834 28.1992Z" fill="#34A853"/>
<path fill-rule="evenodd" clip-rule="evenodd" d="M7.33814 32.2824L1.08587 26.0301C0.404859 25.3677 0 24.4474 0 23.4351C0 22.4044 0.423301 21.4841 1.08587 20.8215L11.7959 10.1115L20.6524 18.9682L7.33814 32.2824Z" fill="#FBBC05"/>
<path fill-rule="evenodd" clip-rule="evenodd" d="M38.3717 1.24888C37.7021 0.670833 36.8463 0.354186 35.9617 0.357261H23.0778C22.0655 0.357261 21.1452 0.76212 20.4826 1.42477L11.7959 10.1115L20.6524 18.9682L29.6728 9.94774C29.2527 9.44071 29.0233 8.80266 29.0243 8.14419C29.0243 6.58039 30.292 5.31258 31.8558 5.31258C32.5143 5.31156 33.1524 5.541 33.6595 5.96113L38.3717 1.24888Z" fill="#EA4335"/>
<path d="M20.6472 25.7238C23.8238 25.7238 26.3989 23.1487 26.3989 19.9721C26.3989 16.7955 23.8238 14.2204 20.6472 14.2204C17.4706 14.2204 14.8955 16.7955 14.8955 19.9721C14.8955 23.1487 17.4706 25.7238 20.6472 25.7238Z" fill="#4285F4"/>
<path fill-rule="evenodd" clip-rule="evenodd" d="M28.4836 18.2802H20.8338V21.5623H25.2371C24.8266 23.6474 23.1102 24.8444 20.8338 24.8444C18.147 24.8444 15.9827 22.6048 15.9827 19.8247C15.9827 17.0445 18.147 14.805 20.8338 14.805C21.9907 14.805 23.0355 15.2297 23.8564 15.9248L26.2447 13.4535C24.7893 12.1407 22.9235 11.3298 20.8338 11.3298C16.2812 11.3298 12.6243 15.1139 12.6243 19.8247C12.6243 24.5355 16.2812 28.3196 20.8338 28.3196C24.9386 28.3196 28.6702 25.2305 28.6702 19.8247C28.6702 19.3227 28.5956 18.7821 28.4836 18.2802Z" fill="white"/>
</g>
<defs>
<clipPath id="clip0_293_327">
<rect width="40" height="40" fill="white"/>
</clipPath>
</defs>
</svg>
