<svg width="46" height="40" viewBox="0 0 46 40" fill="none" xmlns="http://www.w3.org/2000/svg">
<g clip-path="url(#clip0_293_303)">
<path d="M40.7585 10.0296H3.88542C3.0093 10.0296 2.29907 10.7399 2.29907 11.616V38.3869C2.29907 39.263 3.0093 39.9732 3.88542 39.9732H40.7585C41.6346 39.9732 42.3448 39.263 42.3448 38.3869V11.616C42.3448 10.7399 41.6346 10.0296 40.7585 10.0296Z" fill="#4989F5"/>
<path d="M40.2958 9.80468H4.30404C3.18912 9.80468 2.32153 18.4332 2.32153 19.5481L22.0317 39.9732H40.2958C41.4141 39.9702 42.3199 39.0643 42.323 37.946V11.8315C42.3197 10.7133 41.4139 9.80773 40.2958 9.80468Z" fill="url(#paint0_linear_293_303)"/>
<path d="M11.4429 15.0442H22.8845V0.0272293H13.1561L11.4429 15.0442Z" fill="#3C4BA6"/>
<path d="M34.3262 15.0442H22.8845V0.0272293H32.6129L34.3262 15.0442ZM42.3448 2.87388L42.359 2.92506C42.3555 2.907 42.3487 2.89022 42.3448 2.87388Z" fill="#7BABF7"/>
<path d="M42.3591 2.92463L42.3449 2.87345C41.9822 1.21239 40.5119 0.0278736 38.8117 0.0267982H32.613L34.325 15.0442H45.7666L42.3591 2.92463Z" fill="#3F51B5"/>
<path d="M3.42435 2.87387L3.41016 2.92506C3.4136 2.907 3.42048 2.89022 3.42435 2.87387Z" fill="#7BABF7"/>
<path d="M3.4097 2.92463L3.42389 2.87345C3.78663 1.21239 5.25684 0.0278736 6.95704 0.0267982H13.1562L11.4416 15.0442H0L3.4097 2.92463Z" fill="#7BABF7"/>
<path fill-rule="evenodd" clip-rule="evenodd" d="M11.4623 15.0403C11.4623 18.198 8.90242 20.7579 5.7447 20.7579C2.58697 20.7579 0.0270996 18.198 0.0270996 15.0403H11.4623Z" fill="#709BE0"/>
<path fill-rule="evenodd" clip-rule="evenodd" d="M22.8976 15.0403C22.8976 18.198 20.3377 20.7579 17.18 20.7579C14.0223 20.7579 11.4624 18.198 11.4624 15.0403H22.8976Z" fill="#3C4BA6"/>
<path fill-rule="evenodd" clip-rule="evenodd" d="M34.3327 15.0403C34.3327 18.198 31.7728 20.7579 28.6151 20.7579C25.4573 20.7579 22.8975 18.198 22.8975 15.0403H34.3327Z" fill="#709BE0"/>
<path fill-rule="evenodd" clip-rule="evenodd" d="M45.7665 15.0403C45.7665 18.198 43.2066 20.7579 40.0489 20.7579C36.8912 20.7579 34.3313 18.198 34.3313 15.0403H45.7665Z" fill="#3C4BA6"/>
<path d="M40.0491 30.5308C40.0289 30.2586 39.9954 30.0099 39.9476 29.6925H33.7106C33.7106 30.5648 33.7106 31.5167 33.7072 32.3895H37.3204C37.2436 32.7962 37.0872 33.1838 36.8603 33.5299C36.6333 33.876 36.3401 34.1739 35.9977 34.4064C35.9977 34.4064 35.9977 34.3913 35.9951 34.3909C35.5529 34.6813 35.0547 34.8757 34.5326 34.9617C34.0093 35.0574 33.4727 35.0551 32.9502 34.9548C32.4196 34.845 31.9173 34.6273 31.4744 34.3152C30.8206 33.8516 30.3164 33.2073 30.0235 32.4613C30.0011 32.4032 29.9805 32.3447 29.9594 32.2854V32.2789L29.965 32.2746C29.6807 31.4403 29.68 30.5355 29.9629 29.7007C30.1621 29.1151 30.49 28.5815 30.9225 28.1393C31.9371 27.0898 33.453 26.695 34.8505 27.1164C35.3864 27.2808 35.8761 27.569 36.2799 27.9578L37.4989 26.7387C37.7139 26.5215 37.9372 26.3112 38.1441 26.0867C37.526 25.5101 36.8005 25.0608 36.0089 24.7644C34.5683 24.2421 32.9923 24.2282 31.5428 24.7253C31.4923 24.7425 31.4421 24.7604 31.3922 24.779C29.8284 25.3669 28.5419 26.5199 27.7868 28.0102C27.5202 28.5377 27.326 29.0988 27.2096 29.6783C26.5191 33.1096 28.6128 36.4871 31.9931 37.395C33.0981 37.6909 34.2728 37.6836 35.3865 37.4307C36.3983 37.2022 37.3338 36.7161 38.1023 36.0194C38.9041 35.2817 39.4788 34.2988 39.7799 33.2549C40.0316 32.3702 40.1228 31.4476 40.0491 30.5308Z" fill="white"/>
</g>
<defs>
<linearGradient id="paint0_linear_293_303" x1="2.32153" y1="14018.1" x2="42563.5" y2="14018.1" gradientUnits="userSpaceOnUse">
<stop offset="0.03" stop-color="#4079D8"/>
<stop offset="1" stop-color="#4989F5"/>
</linearGradient>
<clipPath id="clip0_293_303">
<rect width="45.7666" height="40" fill="white"/>
</clipPath>
</defs>
</svg>
