<svg width="40" height="40" viewBox="0 0 40 40" fill="none" xmlns="http://www.w3.org/2000/svg">
<path d="M11.7459 21.7222V11.6467H7.34372C6.04785 11.6467 5 12.7008 5 13.9967V34.8235C5 35.8713 6.26486 36.3922 7.0027 35.6543L11.8451 30.8119H25.6346C26.9305 30.8119 27.9783 29.764 27.9783 28.4682V24.066H14.0959C12.8 24.066 11.7459 23.0181 11.7459 21.7222Z" fill="#00AC47"/>
<path d="M32.3806 5H14.0959C12.8 5 11.7522 6.04785 11.7522 7.34372V11.6467H25.6347C26.9306 11.6467 27.9784 12.6946 27.9784 13.9904V24.0597H32.3806C33.6765 24.0597 34.7243 23.0119 34.7243 21.716V7.34372C34.7243 6.04785 33.6765 5 32.3806 5Z" fill="#5BB974"/>
<path d="M25.6343 11.6467H11.7456V21.716C11.7456 23.0119 12.7935 24.0598 14.0893 24.0598H27.9718V13.9967C27.978 12.7008 26.9302 11.6467 25.6343 11.6467Z" fill="#00832D"/>
</svg>
