<svg width="40" height="40" viewBox="0 0 40 40" fill="none" xmlns="http://www.w3.org/2000/svg">
<path d="M31.7475 25.7996C31.7438 26.3569 31.2909 26.8066 30.7337 26.8066H9.28349C8.72443 26.8091 8.26883 26.3586 8.26514 25.7996V4.75132C8.26883 4.19399 8.72168 3.7442 9.27894 3.7442H30.7291C31.2882 3.74176 31.7438 4.19226 31.7475 4.75132V25.7996Z" fill="#0C9D58"/>
<path opacity="0.2" d="M31.7475 9.15428L23.7071 8.12014L31.7475 10.2787V9.15428ZM20.3947 4.8416L8.21777 10.2787L21.675 5.3812V5.3677C21.4652 4.87041 20.8935 4.63547 20.3947 4.8416Z" fill="#004D40"/>
<path opacity="0.2" d="M30.7337 3.74428H9.28349C8.72443 3.74177 8.26883 4.19227 8.26514 4.75133V4.97709C8.26883 4.41983 8.72168 3.97004 9.27894 3.97004H30.7291C31.2882 3.96753 31.7438 4.41803 31.7475 4.97709V4.75133C31.7438 4.19399 31.2909 3.74428 30.7337 3.74428Z" fill="white"/>
<path d="M13.472 25.1539C13.313 25.6699 13.6005 26.2176 14.1156 26.3798L33.9852 31.7244C34.5124 31.8409 35.0347 31.5101 35.1548 30.9837L39.8355 13.512C39.995 12.9978 39.7111 12.4511 39.1987 12.2859L19.3291 6.94157C18.8019 6.825 18.2796 7.15579 18.1595 7.68212L13.472 25.1539Z" fill="#EA4335"/>
<path opacity="0.2" d="M35.3603 19.7483L36.4057 26.0976L35.3603 29.9993V19.7483ZM23.7998 8.37973L24.7368 8.63265L25.3193 12.5502L23.7998 8.37973Z" fill="#3E2723"/>
<path opacity="0.2" d="M39.1987 12.2859L19.3291 6.94157C18.8019 6.825 18.2796 7.15579 18.1595 7.68212L13.4721 25.1539C13.4721 25.1831 13.4721 25.2125 13.4563 25.2419L18.1031 7.90105C18.2232 7.37472 18.7455 7.04393 19.2727 7.1605L39.1423 12.5049C39.3723 12.5781 39.5669 12.7342 39.6884 12.9428C39.8098 13.1514 39.8493 13.3978 39.7993 13.6339L39.8354 13.5007C39.9879 12.9901 39.7054 12.4512 39.1988 12.2859H39.1987Z" fill="white"/>
<path d="M29.1216 23.002C29.3255 23.502 29.0875 24.0729 28.5887 24.2799L7.61943 31.9117C7.10464 32.0745 6.555 31.7911 6.3889 31.2773L0.202244 14.2774C3.38017e-05 13.7774 0.238981 13.2079 0.737364 13.0017L21.7066 5.37004C22.2221 5.20417 22.7747 5.487 22.9417 6.00226L29.1216 23.0021V23.002Z" fill="#FFC107"/>
<path opacity="0.2" d="M0.281301 14.492C0.0789331 13.9926 0.316625 13.4233 0.814223 13.2162L21.7834 5.5845C22.2911 5.42484 22.8333 5.69942 23.005 6.20307L22.9418 6.00211C22.7757 5.48842 22.2261 5.20497 21.7112 5.36769L0.737373 13.0017C0.238676 13.2088 0.000670748 13.7796 0.20453 14.2796L6.39126 31.2773V31.2931L0.281301 14.492Z" fill="white"/>
<path d="M34.3442 12.5502H5.66866C5.1075 12.5502 4.65259 13.0051 4.65259 13.5662V35.2422C4.65259 35.8033 5.1075 36.2583 5.66866 36.2583H34.3442C34.9053 36.2583 35.3602 35.8033 35.3602 35.2422V13.5662C35.3602 13.0051 34.9053 12.5502 34.3442 12.5502Z" fill="#4285F4"/>
<path d="M21.3048 18.8723H29.8848C30.0046 18.8723 30.1195 18.9199 30.2041 19.0046C30.2888 19.0893 30.3364 19.2041 30.3364 19.3239V20.6786C30.3364 20.7984 30.2888 20.9133 30.2041 20.9979C30.1195 21.0826 30.0046 21.1302 29.8848 21.1302H21.3047V18.8723H21.3048ZM21.3048 27.4524H29.8848C30.0046 27.4524 30.1195 27.4999 30.2041 27.5846C30.2888 27.6693 30.3364 27.7842 30.3364 27.904V29.2587C30.3364 29.3785 30.2888 29.4933 30.2041 29.578C30.1194 29.6627 30.0046 29.7103 29.8848 29.7103H21.3047V27.4524H21.3048ZM21.3048 23.1624H31.2395C31.3592 23.1624 31.4741 23.2099 31.5588 23.2946C31.6434 23.3793 31.691 23.4941 31.6911 23.6139V24.9687C31.6911 25.0885 31.6435 25.2033 31.5588 25.288C31.4741 25.3727 31.3592 25.4203 31.2395 25.4203H21.3048V23.1624Z" fill="white"/>
<path opacity="0.2" d="M34.3442 36.0325H5.66866C5.10803 36.0312 4.65384 35.577 4.65259 35.0164V35.2422C4.65384 35.8028 5.10803 36.257 5.66866 36.2582H34.3442C34.9049 36.257 35.3591 35.8028 35.3603 35.2422V35.0164C35.3591 35.577 34.9049 36.0312 34.3442 36.0325Z" fill="#1A237E"/>
<path opacity="0.2" d="M5.66866 12.7759H34.3442C34.9049 12.7772 35.3591 13.2314 35.3603 13.792V13.5662C35.3591 13.0055 34.9049 12.5513 34.3442 12.5502H5.66866C5.10803 12.5513 4.65384 13.0055 4.65259 13.5662V13.792C4.65384 13.2314 5.10803 12.7772 5.66866 12.7759Z" fill="white"/>
<path d="M13.6279 23.3881V25.4203H16.5496C16.308 26.6621 15.2175 27.5608 13.6279 27.5608C11.8197 27.5608 10.3539 26.095 10.3539 24.2868C10.3539 22.4787 11.8197 21.0128 13.6279 21.0128C14.4048 20.9981 15.1559 21.292 15.7164 21.8302L17.2631 20.2835C16.2807 19.3588 14.9769 18.8526 13.6279 18.8723C12.9145 18.8696 12.2076 19.0078 11.5478 19.2789C10.8879 19.55 10.2881 19.9487 9.78273 20.4522C9.27734 20.9556 8.87633 21.5539 8.60271 22.2128C8.32908 22.8716 8.18823 23.5779 8.18823 24.2913C8.18823 25.0047 8.32908 25.711 8.60271 26.3698C8.87633 27.0286 9.27734 27.6269 9.78273 28.1304C10.2881 28.6339 10.8879 29.0326 11.5478 29.3037C12.2076 29.5748 12.9145 29.713 13.6279 29.7103C16.7574 29.7103 18.8211 27.5111 18.8211 24.4155C18.8199 24.0713 18.7912 23.7277 18.7353 23.3881H13.6279Z" fill="white"/>
<path opacity="0.2" d="M13.6841 25.4203V25.646H16.5517C16.5727 25.5723 16.5909 25.4971 16.6059 25.4203H13.6841Z" fill="#1A237E"/>
<path opacity="0.2" d="M13.6841 29.7103C10.7349 29.711 8.3266 27.3528 8.26514 24.4042V24.5171C8.26514 27.5099 10.6913 29.9361 13.6842 29.9361C16.8136 29.9361 18.8773 27.7369 18.8773 24.6413V24.5691C18.8028 27.5834 16.7616 29.7103 13.6841 29.7103ZM15.7636 21.8302C15.2046 21.2959 14.4573 21.0038 13.6842 21.0173C11.8978 21.0458 10.466 22.5047 10.4711 24.2913V24.4042C10.524 22.6633 11.9359 21.2713 13.6773 21.2431C14.4505 21.2295 15.1978 21.5216 15.7569 22.0559L17.4165 20.3964C17.378 20.3603 17.3352 20.3287 17.2945 20.2926L15.7569 21.8302H15.7636ZM30.3363 20.9045V20.6786C30.3363 20.7984 30.2887 20.9133 30.204 20.998C30.1193 21.0826 30.0045 21.1302 29.8847 21.1302H21.3046V21.356H29.8847C30.0045 21.356 30.1193 21.3084 30.204 21.2237C30.2887 21.1391 30.3363 21.0242 30.3363 20.9045ZM29.8847 29.7103H21.3046V29.9361H29.8847C30.0045 29.9361 30.1193 29.8885 30.204 29.8038C30.2887 29.7192 30.3363 29.6043 30.3363 29.4845V29.2588C30.3363 29.3785 30.2887 29.4934 30.204 29.578C30.1193 29.6627 30.0045 29.7103 29.8847 29.7103ZM31.2394 25.4203H21.3047V25.646H31.2395C31.3593 25.646 31.4741 25.5985 31.5588 25.5138C31.6435 25.4291 31.6911 25.3142 31.6911 25.1945V24.9687C31.6911 25.0885 31.6435 25.2033 31.5588 25.288C31.4741 25.3727 31.3592 25.4203 31.2394 25.4203Z" fill="#1A237E"/>
<path d="M39.1987 12.2859L31.7476 10.2923V4.75132C31.744 4.19399 31.2911 3.7442 30.7338 3.7442H9.28367C8.72461 3.74176 8.26901 4.19226 8.26532 4.75132V10.2606L0.737373 13.0018C0.238676 13.2088 0.000670761 13.7797 0.20453 14.2797L4.65261 26.504V35.2422C4.65387 35.8028 5.10806 36.257 5.66869 36.2582H34.3443C34.9049 36.257 35.3591 35.8028 35.3603 35.2422V30.2251L39.8378 13.5166C40.0001 13.0004 39.7144 12.4501 39.1988 12.2859H39.1987Z" fill="url(#paint0_radial_293_285)"/>
<defs>
<radialGradient id="paint0_radial_293_285" cx="0" cy="0" r="1" gradientUnits="userSpaceOnUse" gradientTransform="translate(3735.55 1095.23) scale(16107.6 16107.5)">
<stop stop-color="white" stop-opacity="0.1"/>
<stop offset="1" stop-color="white" stop-opacity="0"/>
</radialGradient>
</defs>
</svg>
