<svg width="24" height="24" viewBox="0 0 24 24" fill="none" xmlns="http://www.w3.org/2000/svg">
<path d="M12.0718 17.825C12.3573 17.825 12.6058 17.7192 12.8174 17.5076C13.029 17.296 13.1348 17.0444 13.1348 16.7529C13.1348 16.4613 13.029 16.2128 12.8174 16.0072C12.6058 15.8017 12.3549 15.6989 12.0647 15.6989C11.7745 15.6989 11.5259 15.8013 11.319 16.0061C11.1121 16.2109 11.0087 16.4622 11.0087 16.7599C11.0087 17.0468 11.1128 17.296 11.3209 17.5076C11.529 17.7192 11.7793 17.825 12.0718 17.825ZM11.0837 14.175H12.7707C12.7707 13.7605 12.8248 13.3741 12.9332 13.0157C13.0415 12.6574 13.3649 12.2543 13.9033 11.8065C14.4011 11.4108 14.756 10.999 14.9679 10.5709C15.1799 10.1429 15.2859 9.67083 15.2859 9.15482C15.2859 8.24433 15.0064 7.51536 14.4474 6.96789C13.8885 6.42044 13.1321 6.14672 12.1783 6.14672C11.3333 6.14672 10.5819 6.36972 9.9239 6.81572C9.26594 7.26173 8.78587 7.86262 8.4837 8.61837L10.0348 9.20107C10.2275 8.72498 10.5001 8.36013 10.8525 8.10649C11.2049 7.85288 11.603 7.72607 12.0468 7.72607C12.5239 7.72607 12.9198 7.86211 13.2345 8.13419C13.5492 8.40626 13.7065 8.7622 13.7065 9.20202C13.7065 9.53398 13.6052 9.85776 13.4027 10.1733C13.2002 10.4889 12.9141 10.7982 12.5446 11.101C12.0634 11.5155 11.6996 11.9498 11.4533 12.4037C11.2069 12.8576 11.0837 13.448 11.0837 14.175ZM12.002 22.3532C10.5775 22.3532 9.23575 22.0833 7.9768 21.5434C6.71787 21.0035 5.61808 20.2632 4.67743 19.3225C3.7368 18.3819 2.99652 17.2828 2.4566 16.0251C1.91669 14.7675 1.64673 13.4264 1.64673 12.0019C1.64673 10.5608 1.91669 9.21072 2.4566 7.95177C2.99652 6.69284 3.73606 5.59697 4.67523 4.66417C5.61438 3.73137 6.71312 2.9929 7.97145 2.44877C9.22979 1.90464 10.5716 1.63257 11.9969 1.63257C13.4388 1.63257 14.7898 1.90427 16.0499 2.44767C17.3099 2.99107 18.406 3.72854 19.3381 4.66009C20.2702 5.59164 21.0081 6.68708 21.5518 7.94639C22.0955 9.20571 22.3674 10.5569 22.3674 12C22.3674 13.4258 22.0953 14.768 21.5512 16.0268C21.0071 17.2856 20.2686 18.3848 19.3358 19.3242C18.403 20.2637 17.3078 21.0035 16.0502 21.5434C14.7925 22.0833 13.4431 22.3532 12.002 22.3532ZM12 20.3728C14.329 20.3728 16.3067 19.5584 17.9332 17.9295C19.5596 16.3006 20.3728 14.3241 20.3728 12C20.3728 9.67098 19.5596 7.69327 17.9332 6.06682C16.3067 4.44037 14.3266 3.62714 11.9929 3.62714C9.67591 3.62714 7.70236 4.44037 6.07228 6.06682C4.44221 7.69327 3.62718 9.67334 3.62718 12.007C3.62718 14.3241 4.44161 16.2976 6.07048 17.9277C7.69935 19.5578 9.67585 20.3728 12 20.3728Z" fill="#4F4C4C"/>
</svg>
