<svg width="40" height="40" viewBox="0 0 40 40" fill="none" xmlns="http://www.w3.org/2000/svg">
<path d="M24.1667 2.5H15.8333H10C8.61917 2.5 7.5 3.61917 7.5 5V29.1667L11.6667 30L15.8333 29.1667V10.8333H24.1667L25 6.66667L24.1667 2.5Z" fill="#FBC02D"/>
<path d="M24.1667 37.5H15.8333L15 33.3333L15.8333 29.1667H24.1667L25 33.3333L24.1667 37.5Z" fill="#4CAF50"/>
<path d="M15.8333 29.1667V37.5H10C8.61917 37.5 7.5 36.3808 7.5 35V29.1667H15.8333Z" fill="#2E7D32"/>
<path d="M32.5001 29.1667L28.3334 30L24.1667 29.1667V10.8333L28.3334 10L32.5001 10.8333V29.1667Z" fill="#1E88E5"/>
<path d="M24.1667 29.1667H32.5001V35C32.5001 36.3808 31.3809 37.5 30.0001 37.5H24.1667V29.1667Z" fill="#1565C0"/>
<path d="M32.5001 10.8333H24.1667V2.5L32.5001 10.8333Z" fill="#E53935"/>
</svg>
