<svg width="40" height="40" viewBox="0 0 40 40" fill="none" xmlns="http://www.w3.org/2000/svg">
<path d="M29.8001 21.9667H29.8084C29.8084 21.9667 26.6668 26.575 24.0251 30C21.7418 32.9583 21.0751 35.4917 20.8834 36.7167C20.8084 37.1667 20.4418 37.5 20.0001 37.5C19.5584 37.5 19.1918 37.1667 19.1168 36.7167C18.9251 35.4917 18.2584 32.9583 15.9751 30C15.6251 29.5417 15.2668 29.0667 14.9084 28.5833L23.5334 18.3333L30.4751 10.1C31.2418 11.7083 31.6668 13.5083 31.6668 15.4167C31.6668 17.8333 30.9751 20.075 29.8001 21.9667Z" fill="#48B564"/>
<path d="M23.5334 18.3333L14.9084 28.5833C12.5584 25.4333 10.1918 21.9667 10.1918 21.9667H10.2001C9.95011 21.5667 9.72511 21.1583 9.53345 20.7333L16.4668 12.5C15.8084 13.2917 15.4168 14.3083 15.4168 15.4167C15.4168 17.95 17.4668 20 20.0001 20C21.4251 20 22.7001 19.35 23.5334 18.3333Z" fill="#FCC60E"/>
<path d="M23.6667 3.95L16.525 12.4333L11.0583 7.66667C13.1917 5.01667 16.4083 3.33333 20 3.33333C21.2833 3.33333 22.5167 3.55 23.6667 3.95Z" fill="#2C85EB"/>
<path d="M16.5249 12.4333L16.4666 12.5L9.53325 20.7333C8.76658 19.125 8.33325 17.325 8.33325 15.4167C8.33325 12.4667 9.35825 9.75833 11.0583 7.66667L16.5249 12.4333Z" fill="#ED5748"/>
<path d="M23.5332 18.3333C24.1916 17.5417 24.5832 16.525 24.5832 15.4167C24.5832 12.8833 22.5332 10.8333 19.9999 10.8333C18.5749 10.8333 17.2999 11.4833 16.4666 12.5L23.6666 3.95C26.6582 4.96667 29.1082 7.20833 30.4749 10.1L23.5332 18.3333Z" fill="#5695F6"/>
</svg>
