<svg width="40" height="40" viewBox="0 0 40 40" fill="none" xmlns="http://www.w3.org/2000/svg">
<path d="M31.6666 4.16666H8.33325C6.95242 4.16666 5.83325 5.28582 5.83325 6.66666V9.99999H34.1666V6.66666C34.1666 5.28582 33.0474 4.16666 31.6666 4.16666Z" fill="url(#paint0_linear_293_204)"/>
<path d="M33.0017 9.16666H6.99833C5.495 9.16666 4.33083 10.485 4.5175 11.9767L5.83333 22.5L20 23.3333L34.1667 22.5L35.4817 11.9767C35.6683 10.485 34.505 9.16666 33.0017 9.16666Z" fill="url(#paint1_linear_293_204)"/>
<path d="M32.3392 35.8333H7.66086C6.21919 35.8333 5.07586 34.6167 5.16586 33.1775L5.83336 22.5H34.1667L34.8342 33.1775C34.9242 34.6167 33.7809 35.8333 32.3392 35.8333Z" fill="url(#paint2_linear_293_204)"/>
<path d="M18.4166 21.3083C18.7833 20.775 18.9666 20.225 18.9666 19.6583C18.9666 18.5 18.6166 17.6 17.9249 16.95C17.2249 16.3 16.2583 15.9667 15.0333 15.9667C13.8666 15.9667 12.9083 16.3167 12.1499 16.9917C11.3999 17.6833 11.0166 18.5333 11.0166 19.5667H12.6749C12.6749 18.8917 12.8916 18.35 13.3166 17.9417C13.7416 17.5333 14.3166 17.3333 15.0333 17.3333C16.5499 17.3333 17.3166 18.0917 17.3166 19.625C17.3166 20.3 17.0916 20.8417 16.6416 21.2417C16.1916 21.6417 15.5833 21.85 14.7999 21.8583H13.5499V23.2167L16.9166 22.5C17.5499 22.2333 18.0499 21.8333 18.4166 21.3083Z" fill="#C4C7DA"/>
<path d="M26.4084 16.0833L21.6667 17.8667V19.375L25.0001 18.15V22.5167L26.6667 23.35V16.0833H26.4084Z" fill="#C4C7DA"/>
<path d="M18.5832 23.625C18.9749 24.15 19.1666 24.7917 19.1666 25.55C19.1666 26.7167 18.7832 27.65 18.0166 28.3333C17.2582 29.0167 16.2666 29.3667 15.0416 29.3667C13.8166 29.3667 12.8249 29.0333 12.0582 28.3667C11.2832 27.7083 10.8999 26.8333 10.8999 25.75H12.5666C12.5666 26.4333 12.7916 26.9833 13.2416 27.3917C13.6916 27.8083 14.2916 28.0083 15.0416 28.0083C15.8416 28.0083 16.4499 27.8 16.8749 27.3833C17.2999 26.9667 17.5082 26.3667 17.5082 25.5833C17.5082 24.825 17.2749 24.2417 16.8082 23.8417C16.3499 23.4333 15.6749 23.225 14.7999 23.2167H13.5499V22.5H16.9166C17.6332 22.725 18.1916 23.1 18.5832 23.625Z" fill="#EFEFEF"/>
<path d="M26.6667 22.5H25V29.1833H26.6667V22.5Z" fill="#EFEFEF"/>
<path opacity="0.15" d="M27.0833 8.75001C28.2339 8.75001 29.1667 7.81727 29.1667 6.66668C29.1667 5.51608 28.2339 4.58334 27.0833 4.58334C25.9327 4.58334 25 5.51608 25 6.66668C25 7.81727 25.9327 8.75001 27.0833 8.75001Z" fill="url(#paint3_radial_293_204)"/>
<path opacity="0.15" d="M12.9166 8.75001C14.0672 8.75001 14.9999 7.81727 14.9999 6.66668C14.9999 5.51608 14.0672 4.58334 12.9166 4.58334C11.766 4.58334 10.8333 5.51608 10.8333 6.66668C10.8333 7.81727 11.766 8.75001 12.9166 8.75001Z" fill="url(#paint4_radial_293_204)"/>
<path d="M27.0833 7.91666C27.7736 7.91666 28.3333 7.35701 28.3333 6.66666C28.3333 5.9763 27.7736 5.41666 27.0833 5.41666C26.3929 5.41666 25.8333 5.9763 25.8333 6.66666C25.8333 7.35701 26.3929 7.91666 27.0833 7.91666Z" fill="#EFEFEF"/>
<path d="M12.9167 7.91666C13.6071 7.91666 14.1667 7.35701 14.1667 6.66666C14.1667 5.9763 13.6071 5.41666 12.9167 5.41666C12.2264 5.41666 11.6667 5.9763 11.6667 6.66666C11.6667 7.35701 12.2264 7.91666 12.9167 7.91666Z" fill="#EFEFEF"/>
<defs>
<linearGradient id="paint0_linear_293_204" x1="19.9999" y1="1.27249" x2="19.9999" y2="10.6608" gradientUnits="userSpaceOnUse">
<stop stop-color="#F0F0F0"/>
<stop offset="0.253" stop-color="#E9EAEA"/>
<stop offset="0.615" stop-color="#D7D9DB"/>
<stop offset="1" stop-color="#BBC1C4"/>
</linearGradient>
<linearGradient id="paint1_linear_293_204" x1="20" y1="31.3025" x2="20" y2="8.17249" gradientUnits="userSpaceOnUse">
<stop stop-color="#1C5AB5"/>
<stop offset="0.097" stop-color="#2168C1"/>
<stop offset="0.24" stop-color="#2673CB"/>
<stop offset="0.441" stop-color="#287AD0"/>
<stop offset="1" stop-color="#297CD2"/>
</linearGradient>
<linearGradient id="paint2_linear_293_204" x1="5.16086" y1="29.1667" x2="34.8392" y2="29.1667" gradientUnits="userSpaceOnUse">
<stop stop-color="#42A3F2"/>
<stop offset="1" stop-color="#42A4EB"/>
</linearGradient>
<radialGradient id="paint3_radial_293_204" cx="0" cy="0" r="1" gradientUnits="userSpaceOnUse" gradientTransform="translate(27.0833 6.66668) scale(2.08333)">
<stop offset="0.069"/>
<stop offset="1" stop-opacity="0"/>
</radialGradient>
<radialGradient id="paint4_radial_293_204" cx="0" cy="0" r="1" gradientUnits="userSpaceOnUse" gradientTransform="translate(12.9166 6.66668) scale(2.08333)">
<stop offset="0.069"/>
<stop offset="1" stop-opacity="0"/>
</radialGradient>
</defs>
</svg>
