<svg width="40" height="40" viewBox="0 0 40 40" fill="none" xmlns="http://www.w3.org/2000/svg">
<path d="M2.5 14.1667V25.8333L6.66667 26.6667L10.8333 25.8333V14.1667L6.66667 13.3333L2.5 14.1667Z" fill="#1E88E5"/>
<path d="M30.8333 20V31.6667C30.8333 33.0475 29.7142 34.1667 28.3333 34.1667H10.8333L10 30L10.8333 25.8333H22.5V20L26.6667 19.1667L30.8333 20Z" fill="#4CAF50"/>
<path d="M30.8333 8.33333V20H22.5V14.1667H10.8333L10 10L10.8333 5.83333H28.3333C29.7142 5.83333 30.8333 6.9525 30.8333 8.33333Z" fill="#FBC02D"/>
<path d="M10.8333 25.8333V34.1667H5C3.61917 34.1667 2.5 33.0475 2.5 31.6667V25.8333H10.8333Z" fill="#1565C0"/>
<path d="M10.8333 5.83333V14.1667H2.5L10.8333 5.83333Z" fill="#E53935"/>
<path d="M31.6667 20L30.8333 27.0417L22.5 20L30.8333 12.9583L31.6667 20Z" fill="#2E7D32"/>
<path d="M38.3333 8.42501V31.575C38.3333 32.275 37.5166 32.6667 36.9749 32.225L30.8333 27.0417V12.9583L36.9749 7.77501C37.5166 7.33334 38.3333 7.72501 38.3333 8.42501Z" fill="#4CAF50"/>
</svg>
