<svg width="40" height="40" viewBox="0 0 40 40" fill="none" xmlns="http://www.w3.org/2000/svg">
<path d="M35.9999 28.25C35.6666 30 34.2499 31.3333 32.4999 31.5833C29.7499 32 25.1666 32.5 19.9999 32.5C14.9166 32.5 10.3333 32 7.49992 31.5833C5.74992 31.3333 4.33325 30 3.99992 28.25C3.66659 26.3333 3.33325 23.5 3.33325 20C3.33325 16.5 3.66659 13.6667 3.99992 11.75C4.33325 10 5.74992 8.66667 7.49992 8.41667C10.2499 8 14.8333 7.5 19.9999 7.5C25.1666 7.5 29.6666 8 32.4999 8.41667C34.2499 8.66667 35.6666 10 35.9999 11.75C36.3333 13.6667 36.7499 16.5 36.7499 20C36.6666 23.5 36.3333 26.3333 35.9999 28.25Z" fill="#FF3D00"/>
<path d="M16.6667 25.8333V14.1667L26.6667 20L16.6667 25.8333Z" fill="white"/>
</svg>
