<svg width="40" height="40" viewBox="0 0 40 40" fill="none" xmlns="http://www.w3.org/2000/svg">
<path d="M37.5001 13.5L33.3334 15.7917L29.1667 19.75V33.3333H35.0001C36.3809 33.3333 37.5001 32.2142 37.5001 30.8333V13.5Z" fill="#4CAF50"/>
<path d="M2.5 13.5L5.51167 14.925L10.8333 19.75V33.3333H5C3.61917 33.3333 2.5 32.2142 2.5 30.8333V13.5Z" fill="#1E88E5"/>
<path d="M29.1667 9.33333L20 16.2083L10.8333 9.33333L10 14.1667L10.8333 19.75L20 26.625L29.1667 19.75L30 14.1667L29.1667 9.33333Z" fill="#E53935"/>
<path d="M2.5 10.2483V13.5L10.8333 19.75V9.33334L8.23 7.38251C7.61 6.91751 6.85667 6.66667 6.08167 6.66667C4.10333 6.66667 2.5 8.27001 2.5 10.2483Z" fill="#C62828"/>
<path d="M37.5001 10.2483V13.5L29.1667 19.75V9.33334L31.7701 7.38251C32.3901 6.91751 33.1434 6.66667 33.9184 6.66667C35.8967 6.66667 37.5001 8.27001 37.5001 10.2483Z" fill="#FBC02D"/>
</svg>
