<svg width="40" height="40" viewBox="0 0 40 40" fill="none" xmlns="http://www.w3.org/2000/svg">
<path d="M20.4166 10C19.2658 10 18.3333 9.06751 18.3333 7.91668V5.41668C18.3333 4.26584 19.2658 3.33334 20.4166 3.33334C21.5674 3.33334 22.4999 4.26584 22.4999 5.41668V7.91668C22.4999 9.06751 21.5674 10 20.4166 10Z" fill="#F9A825"/>
<path d="M20.4166 27.5C19.2658 27.5 18.3333 26.5675 18.3333 25.4167V14.5833C18.3333 13.4325 19.2658 12.5 20.4166 12.5C21.5674 12.5 22.4999 13.4325 22.4999 14.5833V25.4167C22.4999 26.5675 21.5674 27.5 20.4166 27.5Z" fill="#F9A825"/>
<path d="M20.4166 36.6667C19.2658 36.6667 18.3333 35.7342 18.3333 34.5833V32.0833C18.3333 30.9325 19.2658 30 20.4166 30C21.5674 30 22.4999 30.9325 22.4999 32.0833V34.5833C22.4999 35.7342 21.5674 36.6667 20.4166 36.6667Z" fill="#F9A825"/>
<path d="M12.9166 30C11.7658 30 10.8333 29.0675 10.8333 27.9167V25.4167C10.8333 24.2658 11.7658 23.3333 12.9166 23.3333C14.0674 23.3333 14.9999 24.2658 14.9999 25.4167V27.9167C14.9999 29.0675 14.0674 30 12.9166 30Z" fill="#E53935"/>
<path d="M27.9166 16.6667C26.7658 16.6667 25.8333 15.7342 25.8333 14.5833V12.0833C25.8333 10.9325 26.7658 10 27.9166 10C29.0674 10 29.9999 10.9325 29.9999 12.0833V14.5833C29.9999 15.7342 29.0674 16.6667 27.9166 16.6667Z" fill="#43A047"/>
<path d="M12.9166 20.8333C11.7658 20.8333 10.8333 19.9008 10.8333 18.75V11.25C10.8333 10.0992 11.7658 9.16666 12.9166 9.16666C14.0674 9.16666 14.9999 10.0992 14.9999 11.25V18.75C14.9999 19.9008 14.0674 20.8333 12.9166 20.8333Z" fill="#E53935"/>
<path d="M27.9166 30.8333C26.7658 30.8333 25.8333 29.9008 25.8333 28.75V21.25C25.8333 20.0992 26.7658 19.1667 27.9166 19.1667C29.0674 19.1667 29.9999 20.0992 29.9999 21.25V28.75C29.9999 29.9008 29.0674 30.8333 27.9166 30.8333Z" fill="#43A047"/>
<path d="M5.41659 23.3333C4.26575 23.3333 3.33325 22.4008 3.33325 21.25V18.75C3.33325 17.5992 4.26575 16.6667 5.41659 16.6667C6.56742 16.6667 7.49992 17.5992 7.49992 18.75V21.25C7.49992 22.4008 6.56742 23.3333 5.41659 23.3333Z" fill="#1565C0"/>
<path d="M35.4166 23.3333C34.2658 23.3333 33.3333 22.4008 33.3333 21.25V18.75C33.3333 17.5992 34.2658 16.6667 35.4166 16.6667C36.5674 16.6667 37.4999 17.5992 37.4999 18.75V21.25C37.4999 22.4008 36.5674 23.3333 35.4166 23.3333Z" fill="#1E88E5"/>
</svg>
