<svg width="40" height="40" viewBox="0 0 40 40" fill="none" xmlns="http://www.w3.org/2000/svg">
<path d="M19.8574 17.8571C23.0133 17.8571 25.5716 15.2988 25.5716 12.1428C25.5716 8.98693 23.0133 6.42856 19.8574 6.42856C16.7014 6.42856 14.1431 8.98693 14.1431 12.1428C14.1431 15.2988 16.7014 17.8571 19.8574 17.8571Z" fill="#799AF8"/>
<path d="M19.8571 22.1429C19.8571 22.1429 7 22.1429 7 30.3243C7 35 9.33714 35 19.8571 35C30.3771 35 32.7143 35 32.7143 30.3243C32.7143 22.1429 19.8571 22.1429 19.8571 22.1429Z" fill="#799AF8"/>
<path d="M19.8574 16.4286C23.0133 16.4286 25.5716 13.8702 25.5716 10.7143C25.5716 7.55837 23.0133 5 19.8574 5C16.7014 5 14.1431 7.55837 14.1431 10.7143C14.1431 13.8702 16.7014 16.4286 19.8574 16.4286Z" fill="#799AF8"/>
<path d="M19.8571 20.7143C19.8571 20.7143 7 20.7143 7 28.8957C7 33.5714 9.33714 33.5714 19.8571 33.5714C30.3771 33.5714 32.7143 33.5714 32.7143 28.8957C32.7143 20.7143 19.8571 20.7143 19.8571 20.7143Z" fill="#799AF8"/>
</svg>
