<svg width="40" height="40" viewBox="0 0 40 40" fill="none" xmlns="http://www.w3.org/2000/svg">
<path d="M32.1582 32.5C31.7124 33.275 31.9099 33.9 31.1624 34.3308C30.4149 34.7625 29.5541 35 28.6582 35H11.3416C10.4466 35 9.58655 34.7625 8.83822 34.3317C8.08989 33.9008 8.28739 33.275 7.84155 32.5L14.2332 25H25.7666L32.1582 32.5Z" fill="#1E88E5"/>
<path d="M22.8859 5.8325C23.78 5.83083 24.6392 5.23583 25.3867 5.6675C26.1342 6.1 26.77 6.72583 27.2175 7.50167L35.8759 22.4983C36.3234 23.2733 36.5484 24.1375 36.5492 25C36.55 25.8642 35.4934 26.7275 35.0442 27.5008L25.7717 24.9967L20.0017 15.0025L22.8859 5.8325Z" fill="#FBC02D"/>
<path d="M36.5499 25C36.5499 25.8667 36.3249 26.725 35.8749 27.5L32.8166 32.7917C32.3749 33.4417 31.8083 33.9583 31.1583 34.3333L25.7666 25H36.5499Z" fill="#E53935"/>
<path d="M4.95593 27.5008C4.50759 26.7275 3.45093 25.8642 3.45093 25.0008C3.45176 24.1375 3.67593 23.2733 4.12426 22.4975L12.7826 7.50083C13.2301 6.72583 13.8659 6.09917 14.6126 5.6675C15.3601 5.235 16.2201 5.83 17.1143 5.83167L19.9968 15.0058L14.2284 24.9967L4.95593 27.5008Z" fill="#4CAF50"/>
<path d="M14.2333 25L8.84162 34.3333C8.19162 33.9583 7.62495 33.4417 7.18328 32.7917L4.12495 27.5C3.67495 26.725 3.44995 25.8667 3.44995 25H14.2333Z" fill="#1565C0"/>
<path d="M25.3834 5.66667L20.0001 15L14.6084 5.66667C15.2584 5.29167 15.9917 5.05833 16.7751 5.00833L22.8834 5C23.7834 5 24.6417 5.23333 25.3834 5.66667Z" fill="#2E7D32"/>
</svg>
