<svg width="40" height="40" viewBox="0 0 40 40" fill="none" xmlns="http://www.w3.org/2000/svg">
<g clip-path="url(#clip0_293_252)">
<path d="M30.8333 20H25.0533C22.2625 20 20 17.7375 20 14.9467V0.477493C20 0.294993 20.2167 0.199993 20.3508 0.32416L30.8333 9.99999V20Z" fill="#F44336"/>
<path d="M30.8333 20H25.0533C23.8566 20 22.7574 19.5842 21.8916 18.8892L30.8333 10V20Z" fill="#AD1457"/>
<path d="M9.16675 20H14.9467C17.7376 20 20.0001 22.2625 20.0001 25.0533V39.5217C20.0001 39.7042 19.7834 39.7992 19.6492 39.675L9.16675 30V20Z" fill="#8BC34A"/>
<path d="M9.16675 20H14.9467C16.1434 20 17.2426 20.4158 18.1084 21.1108L9.16675 30V20Z" fill="#009688"/>
<path d="M20.0001 9.16666V14.9467C20.0001 17.7375 17.7376 20 14.9468 20H0.477615C0.295115 20 0.200115 19.7833 0.324282 19.6492L10.0001 9.16666H20.0001Z" fill="#FFC107"/>
<path d="M20 9.16666V14.9467C20 16.1433 19.5842 17.2425 18.8892 18.1083L10 9.16666H20Z" fill="#FF9800"/>
<path d="M20 30.8333V25.0533C20 22.2625 22.2625 20 25.0533 20H39.5217C39.7042 20 39.7992 20.2167 39.675 20.3508L30 30.8333H20Z" fill="#448AFF"/>
<path d="M20 30.8333V25.0533C20 23.8567 20.4158 22.7575 21.1108 21.8917L30 30.8333H20Z" fill="#1565C0"/>
</g>
<defs>
<clipPath id="clip0_293_252">
<rect width="40" height="40" fill="white"/>
</clipPath>
</defs>
</svg>
