<svg width="40" height="40" viewBox="0 0 40 40" fill="none" xmlns="http://www.w3.org/2000/svg">
<path d="M12.5 10.8333H33.3333C34.2533 10.8333 35 11.58 35 12.5V33.3333C35 34.2533 34.2533 35 33.3333 35H21.6667L12.5 10.8333Z" fill="#CFD8DC"/>
<path d="M22.36 29.045L21.5967 27.565L22.3375 27.1825C22.3883 27.1567 27.4217 24.5092 29.8733 19.5958L30.245 18.85L31.7367 19.5942L31.3642 20.34C28.6633 25.7533 23.3267 28.5483 23.1008 28.6642L22.36 29.045Z" fill="#546E7A"/>
<path d="M31.6826 28.3333L30.9576 27.925C30.7851 27.8283 26.7142 25.5075 23.8776 21.5358L25.2334 20.5675C27.8492 24.2292 31.7376 26.4517 31.7759 26.4733L32.5001 26.8833L31.6826 28.3333ZM21.6667 18.3333H33.3334V20H21.6667V18.3333Z" fill="#546E7A"/>
<path d="M26.6667 16.6667H28.3334V20H26.6667V16.6667Z" fill="#546E7A"/>
<path d="M27.5 29.1667H6.66667C5.74667 29.1667 5 28.42 5 27.5V6.66667C5 5.74667 5.74667 5 6.66667 5H18.3333L27.5 29.1667Z" fill="#2196F3"/>
<path d="M21.6667 35L19.1667 29.1667H27.5001L21.6667 35Z" fill="#3F51B5"/>
<path d="M15.9767 20H12.3434L11.5034 22.5H9.16675L13.1367 11.6667H15.1734L19.1667 22.5H16.8292L15.9767 20ZM12.8701 18.3333H15.4542L14.1551 14.405L12.8701 18.3333Z" fill="white"/>
</svg>
