<svg width="20" height="20" viewBox="0 0 20 20" fill="none" xmlns="http://www.w3.org/2000/svg">
<rect width="20" height="20" rx="2" fill="#FBBC04"/>
<path d="M14 9C14 11.2091 12.2091 13 10 13C7.79086 13 6 11.2091 6 9C6 6.79086 7.79086 5 10 5C12.2091 5 14 6.79086 14 9Z" fill="white"/>
<path d="M8 12.62C8 12.5537 8.05373 12.5 8.12 12.5H11.88C11.9463 12.5 12 12.5537 12 12.62V13C12 13.2761 11.7761 13.5 11.5 13.5H8.5C8.22386 13.5 8 13.2761 8 13V12.62Z" fill="white"/>
<path d="M8 14.12C8 14.0537 8.05373 14 8.12 14H11.88C11.9463 14 12 14.0537 12 14.12V14.5C12 14.7761 11.7761 15 11.5 15H8.5C8.22386 15 8 14.7761 8 14.5V14.12Z" fill="white"/>
</svg>
