<svg width="20" height="20" viewBox="0 0 20 20" fill="none" xmlns="http://www.w3.org/2000/svg">
<path d="M17 10.4726L13.7229 15.1019C13.5419 15.3527 13.3261 15.5552 13.0755 15.7094C12.8248 15.8636 12.5485 15.9407 12.2465 15.9407H4.30268C3.94444 15.9407 3.63777 15.8132 3.38266 15.558C3.12755 15.3029 3 14.9963 3 14.638V6.30727C3 5.94778 3.12755 5.64003 3.38266 5.38402C3.63777 5.12801 3.94444 5 4.30268 5H12.2465C12.5485 5 12.8249 5.07863 13.0755 5.23589C13.3262 5.39315 13.542 5.59565 13.7229 5.84339L17 10.4726ZM15.3693 10.4726L12.4559 6.30727H4.30268V14.638H12.4568L15.3693 10.4726ZM4.30268 10.4726V14.638V6.30727V10.4726Z" fill="#4F4C4C"/>
</svg>
