<svg width="18" height="18" viewBox="0 0 18 18" fill="none" xmlns="http://www.w3.org/2000/svg">
<path d="M3.44237 13.1997C3.05408 13.1997 2.71662 13.0558 2.42997 12.7679C2.14332 12.4801 2 12.1439 2 11.7592V4H3.56694V11.6712H7.02682V4H8.59376V11.7592C8.59376 12.1439 8.45038 12.4801 8.16363 12.7679C7.87686 13.0558 7.54192 13.1997 7.15882 13.1997H3.44237ZM11.7906 13.1997C11.4074 13.1997 11.0717 13.0558 10.7835 12.7679C10.4953 12.4801 10.3512 12.1439 10.3512 11.7592V10.8558H11.9237V11.6712H15.4275V9.32282H11.7917C11.407 9.32282 11.0708 9.1789 10.783 8.89106C10.4951 8.60322 10.3512 8.26698 10.3512 7.88236V5.43494C10.3512 5.05184 10.4953 4.71691 10.7836 4.43015C11.0719 4.14338 11.4086 4 11.7939 4H15.5595C15.9442 4 16.2804 4.14338 16.5682 4.43015C16.8561 4.71691 17 5.05184 17 5.43494V6.34392H15.4275V5.52846H11.9237V7.87686H15.5595C15.9442 7.87686 16.2804 8.02025 16.5682 8.30702C16.8561 8.59377 17 8.92871 17 9.31183V11.7592C17 12.1439 16.8561 12.4801 16.5684 12.7679C16.2807 13.0558 15.9446 13.1997 15.5602 13.1997H11.7906Z" fill="#4F4C4C"/>
</svg>
