<svg width="24" height="24" viewBox="0 0 24 24" fill="none" xmlns="http://www.w3.org/2000/svg">
<path d="M6 5.25C6.26522 5.25 6.51957 5.13147 6.70711 4.92049C6.89464 4.70952 7 4.42337 7 4.125C7 3.82663 6.89464 3.54048 6.70711 3.32951C6.51957 3.11853 6.26522 3 6 3H4C3.73478 3 3.48043 3.11853 3.29289 3.32951C3.10536 3.54048 3 3.82663 3 4.125V19.875C3 20.1734 3.10536 20.4595 3.29289 20.6705C3.48043 20.8815 3.73478 21 4 21H6C6.26522 21 6.51957 20.8815 6.70711 20.6705C6.89464 20.4595 7 20.1734 7 19.875C7 19.5766 6.89464 19.2905 6.70711 19.0795C6.51957 18.8685 6.26522 18.75 6 18.75H5V5.25H6Z" fill="#595959"/>
<path d="M19.82 11.3035L17 6.50422C16.8471 6.24555 16.615 6.07006 16.3545 6.0161C16.0941 5.96214 15.8264 6.0341 15.61 6.21626C15.5018 6.30719 15.4098 6.42293 15.3391 6.55678C15.2684 6.69064 15.2206 6.83996 15.1982 6.99614C15.1759 7.15231 15.1796 7.31224 15.2091 7.46669C15.2386 7.62115 15.2933 7.76707 15.37 7.89603L17.09 10.7996H9C8.73478 10.7996 8.48043 10.926 8.29289 11.151C8.10536 11.376 8 11.6812 8 11.9994C8 12.3177 8.10536 12.6228 8.29289 12.8479C8.48043 13.0729 8.73478 13.1993 9 13.1993H17L15.2 16.0789C15.1212 16.2049 15.0639 16.3484 15.0313 16.501C14.9987 16.6536 14.9915 16.8125 15.01 16.9684C15.0286 17.1244 15.0726 17.2745 15.1395 17.4101C15.2064 17.5457 15.2949 17.6641 15.4 17.7586C15.5731 17.9144 15.7836 17.9986 16 17.9986C16.1552 17.9986 16.3084 17.9552 16.4472 17.8719C16.5861 17.7886 16.7069 17.6677 16.8 17.5187L19.8 12.7193C19.9281 12.5164 19.999 12.2699 20.0026 12.0154C20.0062 11.7609 19.9423 11.5116 19.82 11.3035Z" fill="#595959"/>
</svg>
