<svg width="53" height="15" viewBox="0 0 53 15" fill="none" xmlns="http://www.w3.org/2000/svg">
<path d="M1.54 14.2C1.28667 14.2 1.11333 14.1267 1.02 13.98C0.926667 13.8333 0.88 13.6733 0.88 13.5C0.88 12.6733 0.96 11.7267 1.12 10.66C1.29333 9.59333 1.5 8.53333 1.74 7.48C1.95333 6.58667 2.18667 5.75333 2.44 4.98C2.70667 4.20667 2.94 3.57333 3.14 3.08C3.43333 2.38667 3.76667 1.86 4.14 1.5C4.52667 1.12667 4.97333 0.939999 5.48 0.939999C5.85333 0.939999 6.18667 1.06667 6.48 1.32C6.77333 1.56 6.94667 2 7 2.64C7.08 3.41333 7.17333 4.19333 7.28 4.98C7.38667 5.76667 7.50667 6.48667 7.64 7.14C7.77333 7.78 7.91333 8.27333 8.06 8.62C8.18 8.92667 8.35333 9.08 8.58 9.08C8.83333 9.08 9.05333 8.92 9.24 8.6C9.41333 8.30667 9.6 7.90667 9.8 7.4C10 6.89333 10.1933 6.36 10.38 5.8C10.58 5.22667 10.7533 4.70667 10.9 4.24C11.0733 3.73333 11.2667 3.22667 11.48 2.72C11.7067 2.2 11.9933 1.77333 12.34 1.44C12.6867 1.09333 13.12 0.919999 13.64 0.919999C14.12 0.919999 14.46 1.08667 14.66 1.42C14.8733 1.74 14.98 2.25333 14.98 2.96C14.98 3.50667 14.96 4.08 14.92 4.68C14.9067 5.02667 14.8867 5.38667 14.86 5.76C14.8467 6.12 14.84 6.49333 14.84 6.88C14.84 7.48 14.8667 8.11333 14.92 8.78C14.9867 9.44667 15.1067 10.0733 15.28 10.66C15.4667 11.2467 15.74 11.74 16.1 12.14C16.2067 12.2333 16.3 12.34 16.38 12.46C16.4733 12.58 16.52 12.7133 16.52 12.86C16.52 13.1933 16.34 13.5 15.98 13.78C15.6333 14.0467 15.2333 14.18 14.78 14.18C14.3667 14.18 14.06 14.0467 13.86 13.78C13.66 13.5133 13.5 13.1533 13.38 12.7C13.2467 12.14 13.1533 11.54 13.1 10.9C13.0467 10.26 13.02 9.64 13.02 9.04C13.02 8.08 13.0533 7.2 13.12 6.4C13.2 5.58667 13.24 4.98667 13.24 4.6C13.24 4.38667 13.22 4.23333 13.18 4.14C13.14 4.03333 13.04 3.98 12.88 3.98C12.6933 3.98 12.5333 4.06667 12.4 4.24C12.28 4.4 12.18 4.62667 12.1 4.92C11.9267 5.48 11.7333 6.08 11.52 6.72C11.3067 7.36 11.08 7.98667 10.84 8.6C10.6133 9.21333 10.3667 9.76 10.1 10.24C9.79333 10.8 9.46 11.18 9.1 11.38C8.75333 11.5667 8.4 11.66 8.04 11.66C7.48 11.66 7.05333 11.4867 6.76 11.14C6.48 10.78 6.27333 10.3867 6.14 9.96C5.96667 9.38667 5.80667 8.64 5.66 7.72C5.51333 6.78667 5.40667 5.74 5.34 4.58C5.31333 4.08667 5.15333 3.84 4.86 3.84C4.54 3.84 4.28667 4.08 4.1 4.56C3.94 5.04 3.78667 5.60667 3.64 6.26C3.49333 6.9 3.37333 7.57333 3.28 8.28C3.2 8.97333 3.16 9.66 3.16 10.34C3.16 10.9133 3.18 11.4133 3.22 11.84C3.27333 12.2667 3.3 12.6667 3.3 13.04C3.3 13.3067 3.19333 13.5267 2.98 13.7C2.78 13.8733 2.54 14 2.26 14.08C1.98 14.16 1.74 14.2 1.54 14.2ZM20.1345 14.26C19.3345 14.26 18.6879 14.0133 18.1945 13.52C17.7145 13.0133 17.4745 12.2933 17.4745 11.36C17.4745 10.6933 17.6012 10.0333 17.8545 9.38C18.1212 8.71333 18.5012 8.11333 18.9945 7.58C19.4879 7.04667 20.0812 6.62 20.7745 6.3C21.4679 5.98 22.2479 5.82 23.1145 5.82C23.9145 5.82 24.5945 5.96 25.1545 6.24C25.7279 6.50667 26.0145 6.87333 26.0145 7.34C26.0145 7.46 26.0012 7.62 25.9745 7.82C25.9479 8.00667 25.9145 8.16 25.8745 8.28C25.8345 8.38667 25.7745 8.48667 25.6945 8.58C25.6279 8.66 25.5345 8.7 25.4145 8.7C25.3612 8.7 25.2612 8.68 25.1145 8.64C25.0612 8.92 25.0212 9.19333 24.9945 9.46C24.9679 9.72667 24.9545 9.99333 24.9545 10.26C24.9545 10.7667 25.0279 11.22 25.1745 11.62C25.3345 12.0067 25.6412 12.2467 26.0945 12.34C26.2145 12.3667 26.3079 12.4067 26.3745 12.46C26.4545 12.5133 26.4945 12.6267 26.4945 12.8C26.4945 12.9467 26.4545 13.1333 26.3745 13.36C26.3079 13.5867 26.1679 13.7933 25.9545 13.98C25.7545 14.1533 25.4612 14.24 25.0745 14.24C24.5545 14.24 24.1545 14.0533 23.8745 13.68C23.5945 13.2933 23.4545 12.7467 23.4545 12.04C23.0945 12.6933 22.6345 13.2267 22.0745 13.64C21.5279 14.0533 20.8812 14.26 20.1345 14.26ZM20.7745 12.18C21.3079 12.18 21.7745 12.0133 22.1745 11.68C22.5879 11.3467 22.9079 10.9267 23.1345 10.42C23.2812 10.1 23.3945 9.75333 23.4745 9.38C23.5545 8.99333 23.6079 8.61333 23.6345 8.24C23.4079 8.13333 23.1479 8.04667 22.8545 7.98C22.5612 7.91333 22.2545 7.88 21.9345 7.88C21.1212 7.88 20.4479 8.12 19.9145 8.6C19.3945 9.08 19.1345 9.68 19.1345 10.4C19.1345 10.9333 19.2812 11.3667 19.5745 11.7C19.8679 12.02 20.2679 12.18 20.7745 12.18ZM29.4127 4.06C29.0393 4.04667 28.7393 3.93333 28.5127 3.72C28.286 3.50667 28.1727 3.20667 28.1727 2.82C28.186 2.40667 28.326 2.07333 28.5927 1.82C28.8593 1.55333 29.1993 1.42667 29.6127 1.44C29.9993 1.45333 30.2993 1.56667 30.5127 1.78C30.7393 1.99333 30.846 2.29333 30.8327 2.68C30.8193 3.08 30.686 3.41333 30.4327 3.68C30.1793 3.93333 29.8393 4.06 29.4127 4.06ZM29.4327 14.2C29.0327 14.2 28.7193 14.0933 28.4927 13.88C28.266 13.6533 28.1527 13.2733 28.1527 12.74C28.1527 12.4333 28.1793 12.1333 28.2327 11.84C28.2993 11.5467 28.3727 11.26 28.4527 10.98C28.546 10.6867 28.6193 10.3867 28.6727 10.08C28.7393 9.77333 28.7727 9.44667 28.7727 9.1C28.7727 8.86 28.7393 8.63333 28.6727 8.42C28.606 8.19333 28.4593 8.02667 28.2327 7.92C28.0593 7.82667 27.906 7.73333 27.7727 7.64C27.6527 7.53333 27.5927 7.4 27.5927 7.24C27.5927 7.05333 27.6793 6.85333 27.8527 6.64C28.026 6.42667 28.2527 6.24667 28.5327 6.1C28.826 5.94 29.126 5.86 29.4327 5.86C29.766 5.86 30.006 5.94667 30.1527 6.12C30.3127 6.29333 30.4193 6.51333 30.4727 6.78C30.526 7.04667 30.5527 7.32 30.5527 7.6C30.5527 8.02667 30.5193 8.44667 30.4527 8.86C30.386 9.26 30.3193 9.63333 30.2527 9.98C30.1993 10.2333 30.1593 10.4667 30.1327 10.68C30.106 10.8933 30.0927 11.0933 30.0927 11.28C30.0927 11.6133 30.1727 11.8667 30.3327 12.04C30.4927 12.2 30.7193 12.3533 31.0127 12.5C31.1327 12.5667 31.1927 12.6667 31.1927 12.8C31.1927 12.9067 31.1393 13.0733 31.0327 13.3C30.926 13.5267 30.7393 13.7333 30.4727 13.92C30.2193 14.1067 29.8727 14.2 29.4327 14.2ZM34.1736 14.2C33.7869 14.2 33.5003 14.0933 33.3136 13.88C33.1269 13.6667 33.0336 13.2933 33.0336 12.76C33.0336 12.5067 33.0536 12.18 33.0936 11.78C33.1336 11.38 33.1803 10.9467 33.2336 10.48C33.3136 9.90667 33.3803 9.30667 33.4336 8.68C33.5003 8.05333 33.5336 7.45333 33.5336 6.88C33.5336 6.06667 33.4936 5.22667 33.4136 4.36C33.3469 3.48 33.1469 2.71333 32.8136 2.06C32.6936 1.79333 32.6336 1.6 32.6336 1.48C32.6336 1.30667 32.7069 1.14 32.8536 0.98C33.0136 0.819999 33.2069 0.686666 33.4336 0.58C33.6603 0.46 33.8803 0.4 34.0936 0.4C34.4403 0.4 34.7003 0.56 34.8736 0.88C35.0469 1.18667 35.1603 1.61333 35.2136 2.16C35.2669 2.69333 35.2936 3.30667 35.2936 4C35.2936 5.05333 35.2469 5.96667 35.1536 6.74C35.0736 7.51333 34.9936 8.19333 34.9136 8.78C34.8603 9.16667 34.8069 9.53333 34.7536 9.88C34.7136 10.2267 34.6936 10.54 34.6936 10.82C34.6936 11.2867 34.7669 11.6267 34.9136 11.84C35.0736 12.04 35.3269 12.24 35.6736 12.44C35.7669 12.4933 35.8336 12.5467 35.8736 12.6C35.9269 12.64 35.9536 12.7067 35.9536 12.8C35.9536 12.9067 35.9003 13.0733 35.7936 13.3C35.6869 13.5267 35.5003 13.7333 35.2336 13.92C34.9803 14.1067 34.6269 14.2 34.1736 14.2ZM40.3844 14.26C39.371 14.26 38.5777 13.9733 38.0044 13.4C37.4444 12.8133 37.1644 12 37.1644 10.96C37.1644 10.0133 37.371 9.15333 37.7844 8.38C38.1977 7.60667 38.751 6.99333 39.4444 6.54C40.151 6.07333 40.9244 5.84 41.7644 5.84C42.5644 5.84 43.2044 6.04 43.6844 6.44C44.1644 6.82667 44.4044 7.34667 44.4044 8C44.4044 8.52 44.2444 9 43.9244 9.44C43.6044 9.88 43.1777 10.2333 42.6444 10.5C42.111 10.7533 41.5177 10.88 40.8644 10.88C40.0644 10.88 39.411 10.7 38.9044 10.34C38.9177 10.9533 39.1244 11.4467 39.5244 11.82C39.9377 12.1933 40.4644 12.38 41.1044 12.38C41.491 12.38 41.8844 12.3133 42.2844 12.18C42.6977 12.0333 43.051 11.84 43.3444 11.6C43.531 11.44 43.7044 11.36 43.8644 11.36C43.9977 11.36 44.1044 11.4067 44.1844 11.5C44.2777 11.58 44.3244 11.6867 44.3244 11.82C44.3244 12.1133 44.071 12.5 43.5644 12.98C42.671 13.8333 41.611 14.26 40.3844 14.26ZM40.6844 9.56C41.1644 9.56 41.5644 9.46 41.8844 9.26C42.2044 9.06 42.3644 8.80667 42.3644 8.5C42.3644 8.24667 42.2577 8.05333 42.0444 7.92C41.831 7.77333 41.5377 7.7 41.1644 7.7C40.671 7.7 40.2377 7.83333 39.8644 8.1C39.5044 8.35333 39.2444 8.71333 39.0844 9.18C39.271 9.3 39.511 9.39333 39.8044 9.46C40.0977 9.52667 40.391 9.56 40.6844 9.56ZM47.1358 14.22C46.9224 14.22 46.7491 14.18 46.6158 14.1C46.4958 14.0333 46.4558 13.9133 46.4958 13.74C46.6424 13.1667 46.7624 12.5867 46.8558 12C46.9624 11.4 47.0158 10.8267 47.0158 10.28C47.0158 9.57333 46.9691 9.06 46.8758 8.74C46.7958 8.40667 46.6824 8.18 46.5358 8.06C46.3891 7.92667 46.2091 7.82667 45.9958 7.76C45.9024 7.72 45.8158 7.66667 45.7358 7.6C45.6691 7.53333 45.6358 7.44 45.6358 7.32C45.6358 7.13333 45.7091 6.92667 45.8558 6.7C46.0024 6.47333 46.2091 6.28 46.4758 6.12C46.7424 5.94667 47.0491 5.86 47.3958 5.86C47.8491 5.86 48.1624 6.02 48.3358 6.34C48.5224 6.64667 48.6158 7.05333 48.6158 7.56C48.8558 7.02667 49.1491 6.60667 49.4958 6.3C49.8558 5.98 50.3024 5.82 50.8358 5.82C51.1958 5.82 51.4958 5.9 51.7358 6.06C51.9758 6.22 52.0958 6.48 52.0958 6.84C52.0958 7.2 51.9758 7.54 51.7358 7.86C51.5091 8.16667 51.2758 8.32 51.0358 8.32C50.9958 8.32 50.9491 8.31333 50.8958 8.3C50.8424 8.28667 50.7958 8.25333 50.7558 8.2C50.5824 7.98667 50.3691 7.88 50.1158 7.88C49.7291 7.88 49.3891 8.13333 49.0958 8.64C48.8024 9.14667 48.6424 9.84667 48.6158 10.74C48.6291 11.0733 48.6358 11.4133 48.6358 11.76C48.6491 12.1067 48.6558 12.36 48.6558 12.52C48.6558 13.0133 48.5158 13.42 48.2358 13.74C47.9691 14.06 47.6024 14.22 47.1358 14.22Z" fill="white"/>
</svg>
