<svg width="30" height="30" viewBox="0 0 30 30" fill="none" xmlns="http://www.w3.org/2000/svg">
<rect width="30" height="30" fill="white"/>
<path d="M13.4799 10.3333L12.0799 11.6667H9.4V19.6667H20.6V11.6667H17.9201L16.5201 10.3333H13.4799ZM12.9 9H17.1L18.5 10.3333H21.3C21.6866 10.3333 22 10.6318 22 11V20.3333C22 20.7015 21.6866 21 21.3 21H8.7C8.3134 21 8 20.7015 8 20.3333V11C8 10.6318 8.3134 10.3333 8.7 10.3333H11.5L12.9 9ZM15 19C12.8737 19 11.15 17.3584 11.15 15.3333C11.15 13.3083 12.8737 11.6667 15 11.6667C17.1263 11.6667 18.85 13.3083 18.85 15.3333C18.85 17.3584 17.1263 19 15 19ZM17.45 15.3333C17.9201 16.5294 16.225 17.9412 15 17.9412C13.775 17.9412 12.55 16.0588 12.55 15.3333C12.55 13.2035 17.45 17.4632 17.45 15.3333Z" fill="#595959"/>
<circle cx="15" cy="15" r="10.625" stroke="#595959" stroke-width="0.75"/>
</svg>
