<svg width="17" height="17" viewBox="0 0 17 17" fill="none" xmlns="http://www.w3.org/2000/svg">
<path d="M8.12221 2.54993C7.39499 2.54993 6.79999 3.14493 6.79999 3.87215C6.79999 4.59937 7.39499 5.19437 8.12221 5.19437C8.84943 5.19437 9.44443 4.59937 9.44443 3.87215C9.44443 3.14493 8.84943 2.54993 8.12221 2.54993ZM8.12221 11.8055C7.39499 11.8055 6.79999 12.4005 6.79999 13.1277C6.79999 13.8549 7.39499 14.4499 8.12221 14.4499C8.84943 14.4499 9.44443 13.8549 9.44443 13.1277C9.44443 12.4005 8.84943 11.8055 8.12221 11.8055ZM8.12221 7.1777C7.39499 7.1777 6.79999 7.7727 6.79999 8.49993C6.79999 9.22715 7.39499 9.82215 8.12221 9.82215C8.84943 9.82215 9.44443 9.22715 9.44443 8.49993C9.44443 7.7727 8.84943 7.1777 8.12221 7.1777Z" fill="#4F4C4C"/>
</svg>
