<svg width="20" height="20" viewBox="0 0 20 20" fill="none" xmlns="http://www.w3.org/2000/svg">
<path d="M10.7002 10.8956L9.50629 12.0895L10.2838 12.8712L12.8177 10.3373L10.2838 7.80344L9.50629 8.581L10.7002 9.77897H7.20288V10.8956H10.7002ZM4.17437 15.242C3.85722 15.242 3.5822 15.1227 3.34931 14.8841C3.11644 14.6455 3 14.3733 3 14.0677V5.17851C3 4.87172 3.11644 4.59861 3.34931 4.35917C3.5822 4.11972 3.85722 4 4.17437 4H8.9356L10.0152 5.0837H15.8215C16.1283 5.0837 16.4014 5.20302 16.6408 5.44165C16.8803 5.68028 17 5.95243 17 6.25809V14.0677C17 14.3733 16.8803 14.6455 16.6408 14.8841C16.4014 15.1227 16.1283 15.242 15.8215 15.242H4.17437ZM4.17437 14.0677H15.8215V6.25809H9.52653L8.44696 5.17851H4.17437V14.0677Z" fill="#4F4C4C"/>
</svg>
