<svg width="18" height="18" viewBox="0 0 18 18" fill="none" xmlns="http://www.w3.org/2000/svg">
<path d="M8.9682 15.2649C7.23505 15.2649 5.7576 14.654 4.53585 13.4323C3.31412 12.2105 2.70325 10.7339 2.70325 9.00252C2.70325 7.27111 3.31412 5.7919 4.53585 4.56488C5.7576 3.33787 7.23505 2.72437 8.9682 2.72437C10.0731 2.72437 11.0446 2.94784 11.8827 3.39479C12.7208 3.84174 13.445 4.45984 14.0552 5.24909V2.72437H15.3074V7.879H10.1421V6.63742H13.2497C12.7677 5.91568 12.172 5.33239 11.4628 4.88755C10.7535 4.44272 9.92202 4.2203 8.9682 4.2203C7.6322 4.2203 6.5016 4.68271 5.5764 5.60755C4.65119 6.53239 4.18858 7.66255 4.18858 8.99804C4.18858 10.3335 4.65122 11.4643 5.57648 12.3904C6.50174 13.3165 7.63242 13.7795 8.9685 13.7795C9.97048 13.7795 10.8939 13.4915 11.7387 12.9154C12.5836 12.3393 13.1783 11.5779 13.5228 10.6312H15.0563C14.6867 12.0143 13.9388 13.1324 12.8125 13.9854C11.6863 14.8384 10.4048 15.2649 8.9682 15.2649Z" fill="#4F4C4C"/>
</svg>
