<svg width="20" height="20" viewBox="0 0 20 20" fill="none" xmlns="http://www.w3.org/2000/svg">
<path d="M16.5784 17.6187L11.0693 12.1146C10.6559 12.4655 10.1726 12.7392 9.6193 12.9358C9.06596 13.1323 8.47457 13.2306 7.84511 13.2306C6.31962 13.2306 5.0283 12.7014 3.97115 11.6432C2.914 10.5849 2.38542 9.30802 2.38542 7.81255C2.38542 6.31708 2.91456 5.04021 3.97284 3.98193C5.0311 2.92366 6.31144 2.39453 7.81386 2.39453C9.31628 2.39453 10.5932 2.92366 11.6445 3.98193C12.6958 5.04021 13.2215 6.31812 13.2215 7.81568C13.2215 8.41746 13.1267 8.99364 12.9373 9.54422C12.7478 10.0948 12.4636 10.6115 12.0847 11.0943L17.6146 16.5825L16.5784 17.6187ZM7.82605 11.8112C8.93341 11.8112 9.87292 11.4206 10.6446 10.6394C11.4163 9.85826 11.8021 8.91597 11.8021 7.81255C11.8021 6.70914 11.416 5.76684 10.6439 4.98568C9.87171 4.2045 8.93244 3.81391 7.82605 3.81391C6.70807 3.81391 5.75837 4.2045 4.97694 4.98568C4.19551 5.76684 3.8048 6.70914 3.8048 7.81255C3.8048 8.91597 4.19527 9.85826 4.97621 10.6394C5.75714 11.4206 6.70709 11.8112 7.82605 11.8112Z" fill="#4F4C4C"/>
</svg>
