<svg width="24" height="24" viewBox="0 0 24 24" fill="none" xmlns="http://www.w3.org/2000/svg">
<path d="M13.034 23H10.955C10.4649 23 9.99483 22.8053 9.64827 22.4587C9.3017 22.1122 9.107 21.6421 9.107 21.152V19.953C9.10104 19.8824 9.07513 19.8149 9.03228 19.7584C8.98944 19.7019 8.93142 19.6588 8.865 19.634C8.79769 19.5909 8.71943 19.568 8.6395 19.568C8.55956 19.568 8.4813 19.5909 8.414 19.634L7.6 20.514C7.42925 20.6859 7.22618 20.8224 7.00246 20.9155C6.77875 21.0087 6.53882 21.0566 6.2965 21.0566C6.05418 21.0566 5.81425 21.0087 5.59054 20.9155C5.36682 20.8224 5.16375 20.6859 4.993 20.514L3.486 19.04C3.31156 18.8696 3.17302 18.666 3.07856 18.4411C2.9841 18.2163 2.93562 17.9749 2.936 17.731C2.93671 17.2322 3.13438 16.7538 3.486 16.4L4.3 15.586C4.3393 15.5254 4.36021 15.4547 4.36021 15.3825C4.36021 15.3103 4.3393 15.2396 4.3 15.179C4.234 15.014 4.124 14.893 3.97 14.893H2.848C2.35687 14.8901 1.88685 14.693 1.54059 14.3446C1.19434 13.9963 0.999991 13.5251 1 13.034V10.955C1 10.4649 1.1947 9.99483 1.54127 9.64827C1.88783 9.3017 2.35788 9.107 2.848 9.107H4.047C4.11764 9.10104 4.18513 9.07513 4.24161 9.03228C4.29809 8.98944 4.34123 8.93142 4.366 8.865C4.40912 8.79769 4.43204 8.71943 4.43204 8.6395C4.43204 8.55956 4.40912 8.4813 4.366 8.414L3.486 7.6C3.31405 7.42925 3.17759 7.22618 3.08446 7.00246C2.99134 6.77875 2.94339 6.53882 2.94339 6.2965C2.94339 6.05418 2.99134 5.81425 3.08446 5.59054C3.17759 5.36682 3.31405 5.16375 3.486 4.993L4.96 3.486C5.12874 3.31239 5.3305 3.17429 5.55342 3.07983C5.77634 2.98538 6.0159 2.93647 6.258 2.936C6.50687 2.93491 6.75351 2.98293 6.98379 3.0773C7.21408 3.17168 7.42348 3.31057 7.6 3.486L8.414 4.3C8.4746 4.3393 8.54528 4.36021 8.6175 4.36021C8.68972 4.36021 8.7604 4.3393 8.821 4.3C8.986 4.234 9.107 4.124 9.107 3.97V2.848C9.10991 2.35687 9.30705 1.88685 9.65536 1.54059C10.0037 1.19434 10.4749 0.999991 10.966 1H13.1C13.5901 1 14.0602 1.1947 14.4067 1.54127C14.7533 1.88783 14.948 2.35788 14.948 2.848V4.047C14.954 4.11764 14.9799 4.18513 15.0227 4.24161C15.0656 4.29809 15.1236 4.34123 15.19 4.366C15.2573 4.40912 15.3356 4.43204 15.4155 4.43204C15.4954 4.43204 15.5737 4.40912 15.641 4.366L16.4 3.486C16.5707 3.31405 16.7738 3.17759 16.9975 3.08446C17.2213 2.99134 17.4612 2.94339 17.7035 2.94339C17.9458 2.94339 18.1857 2.99134 18.4095 3.08446C18.6332 3.17759 18.8363 3.31405 19.007 3.486L20.514 4.96C20.6879 5.13078 20.8262 5.33448 20.9206 5.55921C21.015 5.78395 21.0638 6.02523 21.064 6.269C21.0693 6.51682 21.0232 6.76306 20.9285 6.99215C20.8338 7.22124 20.6927 7.42821 20.514 7.6L19.7 8.414C19.6607 8.4746 19.6398 8.54528 19.6398 8.6175C19.6398 8.68972 19.6607 8.7604 19.7 8.821C19.766 8.986 19.876 9.107 20.03 9.107H21.229C21.7066 9.12963 22.1572 9.33544 22.487 9.68165C22.8168 10.0279 23.0005 10.4878 23 10.966V13.1C23 13.5901 22.8053 14.0602 22.4587 14.4067C22.1122 14.7533 21.6421 14.948 21.152 14.948H19.953C19.8824 14.954 19.8149 14.9799 19.7584 15.0227C19.7019 15.0656 19.6588 15.1236 19.634 15.19C19.5947 15.2506 19.5738 15.3213 19.5738 15.3935C19.5738 15.4657 19.5947 15.5364 19.634 15.597L20.481 16.444C20.6529 16.6147 20.7894 16.8178 20.8825 17.0415C20.9757 17.2652 21.0236 17.5052 21.0236 17.7475C21.0236 17.9898 20.9757 18.2297 20.8825 18.4535C20.7894 18.6772 20.6529 18.8803 20.481 19.051L19.04 20.514C18.8713 20.6876 18.6695 20.8257 18.4466 20.9202C18.2237 21.0146 17.9841 21.0635 17.742 21.064C17.2508 21.0575 16.7814 20.8603 16.433 20.514L15.586 19.7C15.5254 19.6607 15.4547 19.6398 15.3825 19.6398C15.3103 19.6398 15.2396 19.6607 15.179 19.7C15.014 19.766 14.893 19.876 14.893 20.03V21.229C14.8704 21.7066 14.6646 22.1572 14.3184 22.487C13.9721 22.8168 13.5122 23.0005 13.034 23ZM11.307 20.8H12.693V19.953C12.6977 19.4457 12.8528 18.9513 13.1387 18.5322C13.4246 18.1132 13.8284 17.7884 14.299 17.599C14.7715 17.3925 15.2949 17.3313 15.8023 17.4234C16.3097 17.5155 16.7782 17.7566 17.148 18.116L17.742 18.71L18.71 17.742L18.116 17.137C17.7589 16.7728 17.518 16.3106 17.424 15.8093C17.33 15.3079 17.3871 14.7899 17.588 14.321C17.7791 13.8525 18.1046 13.451 18.5235 13.1671C18.9424 12.8833 19.436 12.7298 19.942 12.726H20.8V11.307H19.953C19.4457 11.3023 18.9513 11.1472 18.5322 10.8613C18.1132 10.5754 17.7884 10.1716 17.599 9.701C17.3925 9.22847 17.3313 8.70513 17.4234 8.19772C17.5155 7.69031 17.7566 7.22182 18.116 6.852L18.71 6.258L17.742 5.29L17.137 5.884C16.7671 6.22188 16.3084 6.44703 15.8148 6.53295C15.3212 6.61886 14.8134 6.56196 14.3511 6.36894C13.8887 6.17593 13.4912 5.85483 13.2053 5.44347C12.9193 5.0321 12.7568 4.5476 12.737 4.047V3.2H11.307V4.047C11.3023 4.55426 11.1472 5.04872 10.8613 5.46777C10.5754 5.88682 10.1716 6.21161 9.701 6.401C9.22847 6.60755 8.70513 6.66868 8.19772 6.5766C7.69031 6.48452 7.22182 6.24341 6.852 5.884L6.258 5.29L5.29 6.258L5.884 6.863C6.22188 7.2329 6.44703 7.69165 6.53295 8.18521C6.61886 8.67878 6.56196 9.18662 6.36894 9.64894C6.17593 10.1113 5.85483 10.5088 5.44347 10.7947C5.0321 11.0807 4.5476 11.2432 4.047 11.263H3.2V12.649H4.047C4.55426 12.6537 5.04872 12.8088 5.46777 13.0947C5.88682 13.3806 6.21161 13.7844 6.401 14.255C6.60755 14.7275 6.66868 15.2509 6.5766 15.7583C6.48452 16.2657 6.24341 16.7342 5.884 17.104L5.29 17.698L6.258 18.666L6.863 18.072C7.2329 17.7341 7.69165 17.509 8.18521 17.4231C8.67878 17.3371 9.18662 17.394 9.64894 17.5871C10.1113 17.7801 10.5088 18.1012 10.7947 18.5125C11.0807 18.9239 11.2432 19.4084 11.263 19.909L11.307 20.8Z" fill="white"/>
<rect x="8.5" y="8.5" width="7" height="7" rx="3.5" fill="white"/>
</svg>
