<svg width="24" height="24" viewBox="0 0 24 24" fill="none" xmlns="http://www.w3.org/2000/svg">
<path d="M10.2439 22.3532C9.75172 22.3532 9.33271 21.9951 9.2561 21.5089L8.96903 19.687C8.9112 19.32 8.6515 19.0206 8.31988 18.8531C8.22362 18.8045 8.12478 18.7511 8.02337 18.6929C7.92447 18.6362 7.83013 18.5794 7.74033 18.5224C7.4178 18.3177 7.01264 18.2613 6.66576 18.4213L5.0193 19.1808C4.54701 19.3987 3.98656 19.2182 3.73025 18.7656L1.97284 15.6624C1.72256 15.2204 1.84332 14.661 2.25364 14.3617L3.97045 13.1093C4.18275 12.9544 4.2835 12.6901 4.27012 12.4277V12.4277C4.26178 12.2643 4.25762 12.1217 4.25762 12C4.25762 11.8782 4.26178 11.7357 4.27012 11.5722V11.5722C4.28351 11.3096 4.1832 11.0452 3.97129 10.8895L2.25139 9.62611C1.84228 9.32558 1.72325 8.7662 1.97455 8.32514L3.73268 5.2394C3.98828 4.79078 4.54339 4.61052 5.0138 4.82337L6.69987 5.58631C7.04389 5.74197 7.4439 5.68601 7.76432 5.48624C7.84865 5.43367 7.93736 5.38099 8.03044 5.32822C8.12193 5.27635 8.21146 5.22861 8.29905 5.185C8.6405 5.015 8.91202 4.71001 8.97046 4.33307L9.25786 2.47936C9.33341 1.99205 9.75292 1.63257 10.2461 1.63257H13.755C14.2477 1.63257 14.667 1.99143 14.743 2.47823L15.035 4.34755C15.0906 4.70368 15.3355 4.99879 15.6607 5.15428C15.7646 5.20397 15.8717 5.25779 15.9821 5.31572C16.0738 5.36386 16.1612 5.41299 16.2443 5.46311C16.5809 5.66611 16.9974 5.73562 17.3552 5.57296L18.9977 4.82634C19.4691 4.61203 20.0262 4.7931 20.2815 5.24365L22.022 8.31482C22.2745 8.76041 22.1496 9.32476 21.7325 9.6221L20.0389 10.8297C19.8118 10.9916 19.7007 11.2692 19.7229 11.5472V11.5472C19.7359 11.7107 19.7424 11.8616 19.7424 12C19.7424 12.1384 19.7359 12.2851 19.7229 12.4402V12.4402C19.7001 12.7107 19.8075 12.9808 20.0281 13.139L21.736 14.3633C22.1514 14.6611 22.2754 15.2242 22.0235 15.6689L20.269 18.767C20.013 19.219 19.4536 19.3997 18.9815 19.183L17.3195 18.4198C16.9729 18.2606 16.5684 18.3166 16.2506 18.5275C16.1648 18.5844 16.0754 18.6413 15.9821 18.6983C15.8908 18.7542 15.8004 18.8052 15.7108 18.8515C15.3672 19.0291 15.0866 19.3339 15.0264 19.7159L14.7439 21.5089C14.6673 21.9951 14.2483 22.3532 13.7561 22.3532H10.2439ZM11.9718 15.25C12.8718 15.25 13.6384 14.9333 14.2718 14.3C14.9051 13.6666 15.2218 12.9 15.2218 12C15.2218 11.1 14.9051 10.3333 14.2718 9.69997C13.6384 9.06663 12.8718 8.74997 11.9718 8.74997C11.0718 8.74997 10.3051 9.06663 9.67177 9.69997C9.03843 10.3333 8.72177 11.1 8.72177 12C8.72177 12.9 9.03843 13.6666 9.67177 14.3C10.3051 14.9333 11.0718 15.25 11.9718 15.25ZM11.9718 13.75C11.479 13.75 11.0641 13.5791 10.7272 13.2375C10.3902 12.8958 10.2218 12.4833 10.2218 12C10.2218 11.5166 10.3902 11.1041 10.7272 10.7625C11.0641 10.4208 11.479 10.25 11.9718 10.25C12.4551 10.25 12.8676 10.4208 13.2093 10.7625C13.5509 11.1041 13.7218 11.5166 13.7218 12C13.7218 12.4833 13.5509 12.8958 13.2093 13.2375C12.8676 13.5791 12.4551 13.75 11.9718 13.75ZM10.9065 19.4931C10.9673 19.9952 11.3934 20.3728 11.8992 20.3728H12.095C12.5972 20.3728 13.0215 20.0003 13.0866 19.5024L13.2476 18.2703C13.3014 17.8588 13.6067 17.5307 13.9971 17.3903C14.3193 17.2744 14.6319 17.1316 14.9348 16.9619C15.2357 16.7934 15.5179 16.5991 15.7814 16.3793C16.1062 16.1082 16.5527 16.007 16.9408 16.1754L18.1016 16.6792C18.5778 16.8858 19.1329 16.6937 19.3796 16.237L19.4017 16.1959C19.6393 15.7561 19.5155 15.2084 19.1119 14.9134L18.0256 14.1196C17.7033 13.884 17.5554 13.48 17.6261 13.0871C17.6395 13.013 17.6522 12.9392 17.6641 12.8657C17.7105 12.5813 17.7337 12.2927 17.7337 12C17.7337 11.7072 17.7147 11.4186 17.6766 11.1342C17.6684 11.0729 17.6592 11.0114 17.6489 10.9497C17.5797 10.5357 17.7204 10.1044 18.06 9.85773L19.1176 9.0895C19.525 8.79355 19.6489 8.24081 19.4066 7.79934L19.3829 7.75615C19.134 7.30267 18.5804 7.11381 18.1063 7.32066L16.9893 7.80799C16.5847 7.98454 16.1184 7.86723 15.7903 7.5718C15.5398 7.34625 15.2695 7.14513 14.9794 6.96844C14.6987 6.79755 14.404 6.66287 14.095 6.5644C13.6595 6.42557 13.2969 6.08151 13.2396 5.62798L13.0974 4.50186C13.0343 4.00199 12.6091 3.62714 12.1053 3.62714H11.8992C11.3934 3.62714 10.9673 4.00476 10.9065 4.50684L10.7657 5.66816C10.7131 6.10279 10.38 6.44281 9.965 6.58242C9.64163 6.69122 9.33102 6.83239 9.03317 7.00594C8.73327 7.18069 8.45369 7.37926 8.19442 7.60165C7.86736 7.8822 7.41193 7.98859 7.01732 7.8155L5.89464 7.32304C5.42025 7.11496 4.86548 7.3036 4.61627 7.75774L4.59266 7.80075C4.35074 8.24162 4.47384 8.79356 4.88017 9.08984L5.9451 9.86634C6.26797 10.1018 6.41625 10.5062 6.34616 10.8996C6.33262 10.9756 6.31978 11.0514 6.30764 11.1271C6.26126 11.4163 6.23807 11.7072 6.23807 12C6.23807 12.2927 6.26126 12.586 6.30764 12.8799C6.31904 12.9521 6.33105 13.024 6.34367 13.0956C6.41352 13.4917 6.26591 13.8997 5.94093 14.1366L4.88017 14.9101C4.47384 15.2064 4.35074 15.7583 4.59266 16.1992L4.61627 16.2422C4.86548 16.6963 5.42025 16.885 5.89464 16.6769L7.04492 16.1723C7.42602 16.0052 7.86603 16.0977 8.18766 16.3618C8.45936 16.5849 8.74953 16.7849 9.05817 16.9619C9.36415 17.1374 9.6806 17.2842 10.0075 17.4024C10.4023 17.5451 10.7108 17.8782 10.7613 18.2949L10.9065 19.4931Z" fill="#FEFEFE"/>
<path d="M15 12C15 10.3431 13.6569 9 12 9C10.3431 9 9 10.3431 9 12C9 13.6569 10.3431 15 12 15C13.6569 15 15 13.6569 15 12Z" fill="#FEFEFE"/>
</svg>
