<svg width="20" height="20" viewBox="0 0 20 20" fill="none" xmlns="http://www.w3.org/2000/svg">
<path d="M12.4865 13.3453L13.3322 12.5078L10.6121 9.76954V6.34704H9.48719V10.2236L12.4865 13.3453ZM9.9985 17C9.03933 17 8.1343 16.8164 7.2834 16.4493C6.4325 16.0822 5.68946 15.5811 5.05428 14.9461C4.4191 14.311 3.91792 13.5681 3.55075 12.7173C3.18358 11.8665 3 10.9616 3 10.0025C3 9.04343 3.18385 8.13828 3.55156 7.28707C3.91926 6.43586 4.42028 5.69309 5.05462 5.05876C5.68895 4.42442 6.4316 3.92271 7.28255 3.55363C8.1335 3.18454 9.03862 3 9.99793 3C10.9572 3 11.8624 3.18454 12.7133 3.55363C13.5643 3.92271 14.3069 4.42442 14.9412 5.05876C15.5756 5.69309 16.0773 6.43573 16.4464 7.28669C16.8155 8.13763 17 9.04276 17 10.0021C17 10.9614 16.8155 11.8665 16.4464 12.7174C16.0773 13.5684 15.5756 14.311 14.9412 14.9454C14.3069 15.5797 13.5643 16.0807 12.7135 16.4484C11.8627 16.8161 10.9577 17 9.9985 17ZM9.99583 15.8256C11.595 15.8256 12.9658 15.2559 14.1081 14.1163C15.2504 12.9768 15.8215 11.6061 15.8215 10.0041C15.8215 8.40219 15.2505 7.03077 14.1086 5.88987C12.9667 4.74896 11.5965 4.17851 9.99797 4.17851C8.39738 4.17851 7.02663 4.74879 5.88573 5.88936C4.74483 7.02992 4.17437 8.40082 4.17437 10.0021C4.17437 11.6054 4.74481 12.9768 5.8857 14.1163C7.02657 15.2559 8.39662 15.8256 9.99583 15.8256Z" fill="#4F4C4C"/>
</svg>
