<svg width="20" height="20" viewBox="0 0 20 20" fill="none" xmlns="http://www.w3.org/2000/svg">
<path d="M4.17437 15.242C3.85722 15.242 3.5822 15.1256 3.34931 14.8927C3.11644 14.6598 3 14.3848 3 14.0677V5.17851C3 4.86023 3.11644 4.58424 3.34931 4.35055C3.5822 4.11685 3.85722 4 4.17437 4H15.8215C16.1398 4 16.4158 4.11685 16.6494 4.35055C16.8831 4.58424 17 4.86023 17 5.17851V14.0677C17 14.3848 16.8831 14.6598 16.6494 14.8927C16.4158 15.1256 16.1398 15.242 15.8215 15.242H4.17437ZM9.99793 10.0653L4.17437 6.22136V14.0677H15.8215V6.22136L9.99793 10.0653ZM9.99793 8.93622L15.7525 5.17851H4.26056L9.99793 8.93622ZM4.17437 6.22136V5.17851V14.0677V6.22136Z" fill="#4F4C4C"/>
</svg>
