<svg width="20" height="20" viewBox="0 0 20 20" fill="none" xmlns="http://www.w3.org/2000/svg">
<path d="M9.55556 3C8.7 3 8 3.7 8 4.55556C8 5.41111 8.7 6.11111 9.55556 6.11111C10.4111 6.11111 11.1111 5.41111 11.1111 4.55556C11.1111 3.7 10.4111 3 9.55556 3ZM9.55556 13.8889C8.7 13.8889 8 14.5889 8 15.4444C8 16.3 8.7 17 9.55556 17C10.4111 17 11.1111 16.3 11.1111 15.4444C11.1111 14.5889 10.4111 13.8889 9.55556 13.8889ZM9.55556 8.44444C8.7 8.44444 8 9.14444 8 10C8 10.8556 8.7 11.5556 9.55556 11.5556C10.4111 11.5556 11.1111 10.8556 11.1111 10C11.1111 9.14444 10.4111 8.44444 9.55556 8.44444Z" fill="black"/>
</svg>
