<svg width="20" height="20" viewBox="0 0 20 20" fill="none" xmlns="http://www.w3.org/2000/svg">
<path d="M10 17C8.06042 17 6.40885 16.3182 5.04531 14.9547C3.68177 13.5911 3 11.9396 3 10C3 8.06042 3.68177 6.40885 5.04531 5.04531C6.40885 3.68177 8.06042 3 10 3C11.2396 3 12.326 3.25156 13.2594 3.75469C14.1927 4.25781 15.0021 4.94687 15.6875 5.82187V3H17V8.55625H11.4437V7.24375H15.1187C14.5646 6.36875 13.8573 5.66146 12.9969 5.12187C12.1365 4.58229 11.1375 4.3125 10 4.3125C8.41042 4.3125 7.0651 4.86302 5.96406 5.96406C4.86302 7.0651 4.3125 8.41042 4.3125 10C4.3125 11.5896 4.86302 12.9349 5.96406 14.0359C7.0651 15.137 8.41042 15.6875 10 15.6875C11.2104 15.6875 12.3187 15.3411 13.325 14.6484C14.3312 13.9557 15.0312 13.0406 15.425 11.9031H16.7812C16.3583 13.4344 15.5198 14.6667 14.2656 15.6C13.0115 16.5333 11.5896 17 10 17Z" fill="#4F4C4C"/>
</svg>
