<svg width="20" height="20" viewBox="0 0 20 20" fill="none" xmlns="http://www.w3.org/2000/svg">
<path d="M5.4238 4.70283C6.65089 3.64182 8.25049 3 10 3C13.866 3 17 6.134 17 10C17 11.4953 16.5311 12.8811 15.7324 14.0184L13.5 10H15.6C15.6 6.9072 13.0928 4.4 10 4.4C8.49487 4.4 7.12844 4.99379 6.12216 5.95989L5.4238 4.70283ZM14.5762 15.2972C13.3491 16.3582 11.7495 17 10 17C6.134 17 3 13.866 3 10C3 8.5047 3.46885 7.11891 4.26756 5.98161L6.5 10H4.4C4.4 13.0928 6.9072 15.6 10 15.6C11.5051 15.6 12.8715 15.0062 13.8779 14.0401L14.5762 15.2972Z" fill="black"/>
</svg>
