<svg width="20" height="20" viewBox="0 0 20 20" fill="none" xmlns="http://www.w3.org/2000/svg">
<g clip-path="url(#clip0_534_25)">
<path d="M13.3333 8.33335H5.89999L8.14999 5.51668C8.2292 5.43277 8.29012 5.33331 8.32889 5.22463C8.36765 5.11594 8.38343 5.00038 8.3752 4.88528C8.36698 4.77018 8.33494 4.65804 8.28112 4.55597C8.2273 4.45389 8.15286 4.36411 8.06253 4.29231C7.97219 4.2205 7.86793 4.16824 7.75634 4.13884C7.64476 4.10943 7.52828 4.10352 7.41429 4.12148C7.30031 4.13944 7.19129 4.18088 7.09415 4.24317C6.99701 4.30546 6.91387 4.38725 6.84999 4.48335L3.51666 8.65002C3.4004 8.79714 3.33716 8.97917 3.33716 9.16668C3.33716 9.35419 3.4004 9.53623 3.51666 9.68335L6.84999 13.85C6.9276 13.9482 7.02633 14.0277 7.13886 14.0825C7.25139 14.1373 7.37482 14.1661 7.49999 14.1667C7.68796 14.1656 7.87004 14.101 8.01666 13.9833C8.18836 13.8459 8.29874 13.646 8.32372 13.4275C8.3487 13.2089 8.28625 12.9894 8.14999 12.8167L5.89999 10H13.3333C13.5543 10 13.7663 10.0878 13.9226 10.2441C14.0789 10.4004 14.1667 10.6123 14.1667 10.8333V15C14.1667 15.221 14.2545 15.433 14.4107 15.5893C14.567 15.7456 14.779 15.8333 15 15.8333C15.221 15.8333 15.433 15.7456 15.5892 15.5893C15.7455 15.433 15.8333 15.221 15.8333 15V10.8333C15.8333 10.1703 15.5699 9.53442 15.1011 9.06558C14.6322 8.59674 13.9964 8.33335 13.3333 8.33335Z" fill="black"/>
</g>
<defs>
<clipPath id="clip0_534_25">
<rect width="20" height="20" fill="white"/>
</clipPath>
</defs>
</svg>
