<svg width="23" height="24" viewBox="0 0 23 24" fill="none" xmlns="http://www.w3.org/2000/svg">
<path d="M19.4917 14.7583L17.8001 13.0573V8.86583C17.8226 7.30937 17.2812 5.79732 16.2758 4.60888C15.2705 3.42044 13.8691 2.63588 12.3305 2.40005C11.4375 2.28245 10.5297 2.35664 9.66766 2.61768C8.80563 2.87872 8.00917 3.3206 7.33145 3.91383C6.65372 4.50707 6.1103 5.23802 5.73744 6.05791C5.36459 6.87781 5.17088 7.76779 5.16924 8.66848V13.0573L3.47761 14.7583C3.26513 14.9744 3.12103 15.2482 3.06335 15.5457C3.00566 15.8432 3.03693 16.151 3.15326 16.4308C3.26959 16.7106 3.46581 16.9499 3.7174 17.1188C3.96898 17.2877 4.26476 17.3787 4.56777 17.3804H7.72548V17.6999C7.76938 18.654 8.18969 19.5518 8.89432 20.1965C9.59896 20.8412 10.5304 21.1804 11.4847 21.1396C12.4389 21.1804 13.3704 20.8412 14.075 20.1965C14.7796 19.5518 15.1999 18.654 15.2438 17.6999V17.3804H18.4015C18.7045 17.3787 19.0003 17.2877 19.2519 17.1188C19.5035 16.9499 19.6997 16.7106 19.816 16.4308C19.9324 16.151 19.9637 15.8432 19.906 15.5457C19.8483 15.2482 19.7042 14.9744 19.4917 14.7583ZM13.3642 17.6999C13.3121 18.1519 13.0876 18.5664 12.7375 18.8571C12.3873 19.1477 11.9386 19.292 11.4847 19.26C11.0308 19.292 10.582 19.1477 10.2318 18.8571C9.8817 18.5664 9.65719 18.1519 9.60507 17.6999V17.3804H13.3642V17.6999ZM5.38539 15.5008L6.49435 14.3918C6.67025 14.217 6.8098 14.009 6.90497 13.78C7.00013 13.551 7.04902 13.3053 7.04883 13.0573V8.66848C7.04934 8.03449 7.18546 7.40795 7.44805 6.83091C7.71063 6.25386 8.09362 5.73966 8.57129 5.32281C9.04252 4.89584 9.60091 4.57638 10.2078 4.38652C10.8147 4.19667 11.4556 4.14096 12.0861 4.22325C13.173 4.39972 14.1595 4.96288 14.8641 5.80904C15.5686 6.6552 15.9438 7.7274 15.9205 8.82824V13.0573C15.9191 13.3047 15.9665 13.5499 16.06 13.7789C16.1535 14.0079 16.2914 14.2162 16.4656 14.3918L17.5839 15.5008H5.38539Z" fill="#181818"/>
</svg>
