<svg width="23" height="24" viewBox="0 0 23 24" fill="none" xmlns="http://www.w3.org/2000/svg">
<path d="M5.93016 20.4162C5.68091 20.4162 5.44187 20.3172 5.26562 20.1409C5.08937 19.9647 4.99036 19.7256 4.99036 19.4764L4.84939 5.69899C4.83808 5.41925 4.88218 5.14004 4.97915 4.87741C5.07613 4.61478 5.22408 4.37391 5.41448 4.16866C5.60488 3.96342 5.83398 3.79783 6.0886 3.68144C6.34323 3.56505 6.61835 3.50015 6.89814 3.49047L15.9108 3.44348C16.1909 3.44837 16.4674 3.50841 16.7244 3.62017C16.9813 3.73193 17.2137 3.89321 17.4084 4.09481C17.603 4.2964 17.756 4.53437 17.8586 4.7951C17.9612 5.05584 18.0115 5.33424 18.0065 5.61441L18.1381 19.3918C18.1397 19.5565 18.098 19.7187 18.0172 19.8622C17.9364 20.0057 17.8193 20.1254 17.6776 20.2094C17.5347 20.2919 17.3727 20.3353 17.2077 20.3353C17.0427 20.3353 16.8807 20.2919 16.7378 20.2094L11.381 17.2397L6.40945 20.2752C6.26223 20.3574 6.09845 20.4056 5.93016 20.4162ZM11.3434 15.2003C11.5067 15.2006 11.6676 15.2392 11.8133 15.3131L16.2397 17.7659L16.1269 5.59561C16.1269 5.40765 16.0048 5.27608 15.9296 5.28548L6.90754 5.37006C6.83236 5.37006 6.72898 5.49223 6.72898 5.68019L6.84176 17.8035L10.8641 15.3319C11.0102 15.2482 11.1751 15.203 11.3434 15.2003Z" fill="#181818"/>
</svg>
