<svg width="31" height="31" viewBox="0 0 31 31" fill="none" xmlns="http://www.w3.org/2000/svg">
<path d="M6.29188 29.0952C5.8793 29.0952 5.48361 28.9313 5.19187 28.6396C4.90012 28.3479 4.73622 27.9522 4.73622 27.5396L4.50287 4.73359C4.48414 4.27054 4.55714 3.80835 4.71767 3.37361C4.8782 2.93888 5.1231 2.54016 5.43827 2.20041C5.75345 1.86066 6.13268 1.58657 6.55417 1.39391C6.97565 1.20124 7.43106 1.09381 7.89421 1.07778L22.813 1C23.2768 1.0081 23.7344 1.10748 24.1597 1.29248C24.5851 1.47747 24.9698 1.74444 25.292 2.07815C25.6141 2.41186 25.8674 2.80577 26.0373 3.23737C26.2072 3.66897 26.2904 4.12981 26.2821 4.59358L26.4999 27.3996C26.5026 27.6722 26.4336 27.9407 26.2998 28.1782C26.166 28.4158 25.9722 28.614 25.7377 28.753C25.5012 28.8895 25.2329 28.9614 24.9598 28.9614C24.6867 28.9614 24.4185 28.8895 24.182 28.753L15.3147 23.8371L7.08527 28.8619C6.84158 28.998 6.57047 29.0778 6.29188 29.0952ZM15.2525 20.4613C15.5228 20.4618 15.7892 20.5258 16.0303 20.648L23.3575 24.7083L23.1708 4.56246C23.1708 4.25133 22.9686 4.03354 22.8441 4.0491L7.90977 4.18911C7.78532 4.18911 7.6142 4.39134 7.6142 4.70247L7.80088 24.7705L14.4591 20.6791C14.7009 20.5406 14.9739 20.4657 15.2525 20.4613Z" fill="black"/>
</svg>
