<svg width="16" height="17" viewBox="0 0 16 17" fill="none" xmlns="http://www.w3.org/2000/svg">
<path d="M12.8558 2.32841H12.0567V1.54525C12.0567 1.33754 11.9726 1.13834 11.8227 0.991468C11.6728 0.844596 11.4696 0.762085 11.2577 0.762085C11.0457 0.762085 10.8425 0.844596 10.6926 0.991468C10.5428 1.13834 10.4586 1.33754 10.4586 1.54525V2.32841H5.66411V1.54525C5.66411 1.33754 5.57992 1.13834 5.43006 0.991468C5.28021 0.844596 5.07696 0.762085 4.86503 0.762085C4.6531 0.762085 4.44985 0.844596 4.29999 0.991468C4.15014 1.13834 4.06595 1.33754 4.06595 1.54525V2.32841H3.26687C2.63108 2.32841 2.02133 2.57594 1.57176 3.01656C1.12219 3.45717 0.869629 4.05477 0.869629 4.6779V14.0758C0.869629 14.699 1.12219 15.2966 1.57176 15.7372C2.02133 16.1778 2.63108 16.4253 3.26687 16.4253H12.8558C13.4916 16.4253 14.1014 16.1778 14.5509 15.7372C15.0005 15.2966 15.2531 14.699 15.2531 14.0758V4.6779C15.2531 4.05477 15.0005 3.45717 14.5509 3.01656C14.1014 2.57594 13.4916 2.32841 12.8558 2.32841ZM3.26687 3.89473H4.06595V4.6779C4.06595 4.8856 4.15014 5.0848 4.29999 5.23167C4.44985 5.37855 4.6531 5.46106 4.86503 5.46106C5.07696 5.46106 5.28021 5.37855 5.43006 5.23167C5.57992 5.0848 5.66411 4.8856 5.66411 4.6779V3.89473H10.4586V4.6779C10.4586 4.8856 10.5428 5.0848 10.6926 5.23167C10.8425 5.37855 11.0457 5.46106 11.2577 5.46106C11.4696 5.46106 11.6728 5.37855 11.8227 5.23167C11.9726 5.0848 12.0567 4.8856 12.0567 4.6779V3.89473H12.8558C13.0678 3.89473 13.271 3.97724 13.4209 4.12412C13.5707 4.27099 13.6549 4.47019 13.6549 4.6779V7.81054H2.46779V4.6779C2.46779 4.47019 2.55198 4.27099 2.70183 4.12412C2.85169 3.97724 3.05494 3.89473 3.26687 3.89473ZM12.8558 14.859H3.26687C3.05494 14.859 2.85169 14.7765 2.70183 14.6296C2.55198 14.4827 2.46779 14.2835 2.46779 14.0758V9.37687H13.6549V14.0758C13.6549 14.2835 13.5707 14.4827 13.4209 14.6296C13.271 14.7765 13.0678 14.859 12.8558 14.859Z" fill="black"/>
<path d="M4.865 12.5096C5.30632 12.5096 5.66408 12.1589 5.66408 11.7264C5.66408 11.2939 5.30632 10.9432 4.865 10.9432C4.42368 10.9432 4.06592 11.2939 4.06592 11.7264C4.06592 12.1589 4.42368 12.5096 4.865 12.5096Z" fill="black"/>
<path d="M11.2581 10.9432H8.06178C7.84985 10.9432 7.6466 11.0257 7.49674 11.1726C7.34688 11.3195 7.2627 11.5187 7.2627 11.7264C7.2627 11.9341 7.34688 12.1333 7.49674 12.2802C7.6466 12.4271 7.84985 12.5096 8.06178 12.5096H11.2581C11.47 12.5096 11.6733 12.4271 11.8231 12.2802C11.973 12.1333 12.0572 11.9341 12.0572 11.7264C12.0572 11.5187 11.973 11.3195 11.8231 11.1726C11.6733 11.0257 11.47 10.9432 11.2581 10.9432Z" fill="black"/>
</svg>
