<svg width="31" height="31" viewBox="0 0 31 31" fill="none" xmlns="http://www.w3.org/2000/svg">
<path d="M26.0926 10.0514C26.0926 9.96395 25.9676 9.87645 25.9051 9.78895L25.7926 9.66395C25.5016 9.30456 25.1344 9.01425 24.7176 8.81395L16.7176 5.06395C16.2747 4.85984 15.7928 4.75415 15.3051 4.75415C14.8174 4.75415 14.3355 4.85984 13.8926 5.06395L5.89258 8.81395C5.4779 9.01765 5.11142 9.30743 4.81758 9.66395L4.66758 9.72645C4.59487 9.80161 4.53187 9.8856 4.48008 9.97645C4.18187 10.448 4.02166 10.9936 4.01758 11.5514V20.3764C4.01925 20.9727 4.19213 21.5559 4.51566 22.0567C4.83919 22.5575 5.29976 22.9548 5.84258 23.2014L13.8426 26.9515C14.2872 27.1574 14.7713 27.2641 15.2613 27.2641C15.7513 27.2641 16.2355 27.1574 16.6801 26.9515L24.6801 23.2014C25.2214 22.9584 25.682 22.5657 26.0075 22.0697C26.3331 21.5736 26.5101 20.9948 26.5176 20.4014V11.5514C26.5112 11.0226 26.3645 10.505 26.0926 10.0514ZM14.9051 7.30145C15.0195 7.25191 15.1429 7.22635 15.2676 7.22635C15.3923 7.22635 15.5156 7.25191 15.6301 7.30145L22.2926 10.4014L15.2676 13.6639L8.24258 10.4014L14.9051 7.30145ZM6.89258 20.9764C6.78375 20.9342 6.68995 20.8606 6.62316 20.7648C6.55637 20.6691 6.51962 20.5557 6.51758 20.4389V12.3514L14.0176 15.8389V24.2389L6.89258 20.9764ZM23.6301 20.9764L16.5176 24.2389V15.8389L24.0176 12.3514V20.4014C24.0204 20.5256 23.9847 20.6476 23.9153 20.7506C23.8459 20.8536 23.7462 20.9325 23.6301 20.9764Z" fill="#181818"/>
</svg>
