<svg width="23" height="24" viewBox="0 0 23 24" fill="none" xmlns="http://www.w3.org/2000/svg">
<path d="M18.9428 13.7519H14.9017L15.5877 9.99269H18.9428C19.1921 9.99269 19.4311 9.89368 19.6073 9.71743C19.7836 9.54119 19.8826 9.30215 19.8826 9.0529C19.8826 8.80365 19.7836 8.56461 19.6073 8.38836C19.4311 8.21212 19.1921 8.1131 18.9428 8.1131H15.9261L16.5745 4.53249C16.6002 4.40684 16.5998 4.27728 16.5735 4.15178C16.5471 4.02628 16.4954 3.90749 16.4215 3.80273C16.3475 3.69797 16.2529 3.60945 16.1435 3.54262C16.034 3.47579 15.9121 3.43206 15.7851 3.41413C15.6589 3.38406 15.5277 3.38046 15.4 3.40356C15.2723 3.42666 15.1508 3.47596 15.0431 3.54836C14.9354 3.62076 14.8438 3.71468 14.7742 3.82421C14.7046 3.93374 14.6584 4.0565 14.6386 4.18476L13.9337 8.1131H10.2873L10.9358 4.53249C10.9614 4.40684 10.961 4.27728 10.9347 4.15178C10.9084 4.02628 10.8567 3.90749 10.7827 3.80273C10.7088 3.69797 10.6142 3.60945 10.5047 3.54262C10.3953 3.47579 10.2733 3.43206 10.1463 3.41413C10.0201 3.38406 9.88898 3.38046 9.76127 3.40356C9.63355 3.42666 9.51201 3.47596 9.4043 3.54836C9.29659 3.62076 9.20503 3.71468 9.13542 3.82421C9.0658 3.93374 9.01962 4.0565 8.99979 4.18476L8.29494 8.1131H3.9061C3.65685 8.1131 3.41781 8.21212 3.24157 8.38836C3.06532 8.56461 2.96631 8.80365 2.96631 9.0529C2.96631 9.30215 3.06532 9.54119 3.24157 9.71743C3.41781 9.89368 3.65685 9.99269 3.9061 9.99269H7.94722L7.26117 13.7519H3.9061C3.65685 13.7519 3.41781 13.8509 3.24157 14.0271C3.06532 14.2034 2.96631 14.4424 2.96631 14.6917C2.96631 14.9409 3.06532 15.18 3.24157 15.3562C3.41781 15.5324 3.65685 15.6315 3.9061 15.6315H6.92284L6.27438 19.2121C6.24876 19.3377 6.24912 19.4673 6.27544 19.5928C6.30177 19.7183 6.35349 19.8371 6.42744 19.9418C6.50139 20.0466 6.596 20.1351 6.70544 20.2019C6.81488 20.2688 6.93684 20.3125 7.06381 20.3304C7.19006 20.3605 7.32117 20.3641 7.44888 20.341C7.5766 20.3179 7.69814 20.2686 7.80585 20.1962C7.91356 20.1238 8.00512 20.0299 8.07474 19.9204C8.14435 19.8108 8.19053 19.6881 8.21036 19.5598L8.91521 15.6315H12.5616L11.9132 19.2121C11.8875 19.3377 11.8879 19.4673 11.9142 19.5928C11.9405 19.7183 11.9923 19.8371 12.0662 19.9418C12.1402 20.0466 12.2348 20.1351 12.3442 20.2019C12.4536 20.2688 12.5756 20.3125 12.7026 20.3304C12.8288 20.3605 12.9599 20.3641 13.0877 20.341C13.2154 20.3179 13.3369 20.2686 13.4446 20.1962C13.5523 20.1238 13.6439 20.0299 13.7135 19.9204C13.7831 19.8108 13.8293 19.6881 13.8491 19.5598L14.554 15.6315H18.9428C19.1921 15.6315 19.4311 15.5324 19.6073 15.3562C19.7836 15.18 19.8826 14.9409 19.8826 14.6917C19.8826 14.4424 19.7836 14.2034 19.6073 14.0271C19.4311 13.8509 19.1921 13.7519 18.9428 13.7519ZM9.26293 13.7519L9.94898 9.99269H13.586L12.8999 13.7519H9.26293Z" fill="#181818"/>
</svg>
