<svg width="31" height="31" viewBox="0 0 31 31" fill="none" xmlns="http://www.w3.org/2000/svg">
<path d="M26.6111 17.9598H20.6389L21.6528 12.896H26.6111C26.9795 12.896 27.3327 12.7626 27.5932 12.5252C27.8537 12.2878 28 11.9658 28 11.6301C28 11.2943 27.8537 10.9723 27.5932 10.7349C27.3327 10.4975 26.9795 10.3641 26.6111 10.3641H22.1528L23.1111 5.54093C23.149 5.37168 23.1484 5.19715 23.1095 5.0281C23.0706 4.85904 22.9942 4.69903 22.8849 4.55792C22.7756 4.4168 22.6358 4.29756 22.4741 4.20754C22.3123 4.11752 22.1321 4.05861 21.9444 4.03446C21.7579 3.99395 21.5641 3.9891 21.3754 4.02022C21.1866 4.05134 21.007 4.11775 20.8478 4.21527C20.6886 4.31279 20.5533 4.43931 20.4504 4.58685C20.3475 4.73439 20.2793 4.89976 20.25 5.07253L19.2083 10.3641H13.8194L14.7778 5.54093C14.8156 5.37168 14.8151 5.19715 14.7762 5.0281C14.7373 4.85904 14.6609 4.69903 14.5516 4.55792C14.4423 4.4168 14.3025 4.29756 14.1407 4.20754C13.979 4.11752 13.7988 4.05861 13.6111 4.03446C13.4245 3.99395 13.2308 3.9891 13.042 4.02022C12.8533 4.05134 12.6737 4.11775 12.5145 4.21527C12.3553 4.31279 12.22 4.43931 12.1171 4.58685C12.0142 4.73439 11.946 4.89976 11.9167 5.07253L10.875 10.3641H4.38889C4.02053 10.3641 3.66726 10.4975 3.4068 10.7349C3.14633 10.9723 3 11.2943 3 11.6301C3 11.9658 3.14633 12.2878 3.4068 12.5252C3.66726 12.7626 4.02053 12.896 4.38889 12.896H10.3611L9.34722 17.9598H4.38889C4.02053 17.9598 3.66726 18.0931 3.4068 18.3305C3.14633 18.568 3 18.89 3 19.2257C3 19.5614 3.14633 19.8834 3.4068 20.1208C3.66726 20.3583 4.02053 20.4916 4.38889 20.4916H8.84722L7.88889 25.3148C7.85102 25.4841 7.85155 25.6586 7.89045 25.8277C7.92936 25.9967 8.0058 26.1567 8.11509 26.2979C8.22438 26.439 8.36419 26.5582 8.52593 26.6482C8.68767 26.7383 8.86791 26.7972 9.05556 26.8213C9.24214 26.8618 9.4359 26.8667 9.62464 26.8356C9.81338 26.8044 9.993 26.738 10.1522 26.6405C10.3114 26.543 10.4467 26.4165 10.5496 26.2689C10.6525 26.1214 10.7207 25.956 10.75 25.7832L11.7917 20.4916H17.1806L16.2222 25.3148C16.1844 25.4841 16.1849 25.6586 16.2238 25.8277C16.2627 25.9967 16.3391 26.1567 16.4484 26.2979C16.5577 26.439 16.6975 26.5582 16.8593 26.6482C17.021 26.7383 17.2012 26.7972 17.3889 26.8213C17.5755 26.8618 17.7692 26.8667 17.958 26.8356C18.1467 26.8044 18.3263 26.738 18.4855 26.6405C18.6447 26.543 18.78 26.4165 18.8829 26.2689C18.9858 26.1214 19.054 25.956 19.0833 25.7832L20.125 20.4916H26.6111C26.9795 20.4916 27.3327 20.3583 27.5932 20.1208C27.8537 19.8834 28 19.5614 28 19.2257C28 18.89 27.8537 18.568 27.5932 18.3305C27.3327 18.0931 26.9795 17.9598 26.6111 17.9598ZM12.3056 17.9598L13.3194 12.896H18.6944L17.6806 17.9598H12.3056Z" fill="black"/>
</svg>
