<svg width="23" height="24" viewBox="0 0 23 24" fill="none" xmlns="http://www.w3.org/2000/svg">
<path d="M19.2776 10.2925L12.0318 2.88688C11.9444 2.79879 11.8405 2.72888 11.7259 2.68116C11.6114 2.63345 11.4886 2.60889 11.3645 2.60889C11.2404 2.60889 11.1176 2.63345 11.0031 2.68116C10.8886 2.72888 10.7846 2.79879 10.6973 2.88688L3.45144 10.3019C3.27611 10.4786 3.13764 10.6884 3.04406 10.9191C2.95049 11.1498 2.90368 11.3968 2.90636 11.6458V19.5212C2.90563 20.0023 3.08941 20.4654 3.41984 20.8151C3.75027 21.1647 4.2022 21.3744 4.68257 21.4008H18.0464C18.5268 21.3744 18.9787 21.1647 19.3092 20.8151C19.6396 20.4654 19.8234 20.0023 19.8227 19.5212V11.6458C19.8234 11.141 19.6279 10.6558 19.2776 10.2925ZM9.48492 19.5212V13.8825H13.2441V19.5212H9.48492ZM17.9431 19.5212H15.1237V12.9427C15.1237 12.6934 15.0247 12.4544 14.8484 12.2781C14.6722 12.1019 14.4331 12.0029 14.1839 12.0029H8.54512C8.29588 12.0029 8.05684 12.1019 7.88059 12.2781C7.70434 12.4544 7.60533 12.6934 7.60533 12.9427V19.5212H4.78595V11.6082L11.3645 4.88864L17.9431 11.6458V19.5212Z" fill="#181818"/>
</svg>
