<svg width="30" height="31" viewBox="0 0 30 31" fill="none" xmlns="http://www.w3.org/2000/svg">
<path d="M4 16.097L13.6947 6.01968C14.4893 5.19371 15.8142 5.20314 16.5969 6.04033L26 16.097" stroke="black" stroke-width="7" stroke-linecap="round"/>
<path d="M7.63281 24.8135V14.9031C7.63281 14.3508 8.08053 13.9031 8.63281 13.9031H21.6776C22.2299 13.9031 22.6776 14.3508 22.6776 14.9031V24.8135C22.6776 25.3658 22.2299 25.8135 21.6776 25.8135H8.63281C8.08053 25.8135 7.63281 25.3658 7.63281 24.8135Z" fill="black"/>
<path d="M7.63281 24.8135V14.9031C7.63281 14.3508 8.08053 13.9031 8.63281 13.9031H21.6776C22.2299 13.9031 22.6776 14.3508 22.6776 14.9031V24.8135C22.6776 25.3658 22.2299 25.8135 21.6776 25.8135H8.63281C8.08053 25.8135 7.63281 25.3658 7.63281 24.8135Z" fill="black"/>
<path d="M7.63281 24.8135V14.9031C7.63281 14.3508 8.08053 13.9031 8.63281 13.9031H21.6776C22.2299 13.9031 22.6776 14.3508 22.6776 14.9031V24.8135C22.6776 25.3658 22.2299 25.8135 21.6776 25.8135H8.63281C8.08053 25.8135 7.63281 25.3658 7.63281 24.8135Z" stroke="black" stroke-width="7" stroke-linecap="round"/>
<path d="M8.36206 14.4592L14.5292 7.00724C14.8754 6.66103 15.4367 6.66103 15.783 7.00724L23.1654 14.3897C23.7954 15.0196 23.3492 16.0968 22.4583 16.0968H9.13246C8.28621 16.0968 7.82252 15.1112 8.36206 14.4592Z" fill="black"/>
<path d="M8.36206 14.4592L14.5292 7.00724C14.8754 6.66103 15.4367 6.66103 15.783 7.00724L23.1654 14.3897C23.7954 15.0196 23.3492 16.0968 22.4583 16.0968H9.13246C8.28621 16.0968 7.82252 15.1112 8.36206 14.4592Z" fill="black"/>
<rect x="9.5" y="19.5" width="8" height="8" rx="1" transform="rotate(-45 9.5 19.5)" fill="white"/>
</svg>
