<svg width="23" height="23" viewBox="0 0 23 23" fill="none" xmlns="http://www.w3.org/2000/svg">
<path d="M18.0799 20.15H4.47988C4.25445 20.15 4.03825 20.0605 3.87884 19.9011C3.71944 19.7417 3.62988 19.5255 3.62988 19.3V4.00002C3.62988 3.77459 3.71944 3.55839 3.87884 3.39898C4.03825 3.23958 4.25445 3.15002 4.47988 3.15002H18.0799C18.3053 3.15002 18.5215 3.23958 18.6809 3.39898C18.8403 3.55839 18.9299 3.77459 18.9299 4.00002V19.3C18.9299 19.5255 18.8403 19.7417 18.6809 19.9011C18.5215 20.0605 18.3053 20.15 18.0799 20.15ZM17.2299 18.45V4.85002H5.32988V18.45H17.2299ZM7.87988 9.10002H14.6799V10.8H7.87988V9.10002ZM7.87988 12.5H14.6799V14.2H7.87988V12.5Z" fill="#181818"/>
</svg>
