<svg width="17" height="20" viewBox="0 0 17 20" fill="none" xmlns="http://www.w3.org/2000/svg">
<path d="M16.0029 19.1688H0.966162C0.716913 19.1688 0.477872 19.0698 0.301627 18.8936C0.125381 18.7173 0.0263672 18.4783 0.0263672 18.229V1.31272C0.0263672 1.06347 0.125381 0.82443 0.301627 0.648184C0.477872 0.471939 0.716913 0.372925 0.966162 0.372925H16.0029C16.2521 0.372925 16.4912 0.471939 16.6674 0.648184C16.8437 0.82443 16.9427 1.06347 16.9427 1.31272V18.229C16.9427 18.4783 16.8437 18.7173 16.6674 18.8936C16.4912 19.0698 16.2521 19.1688 16.0029 19.1688ZM15.0631 17.2892V2.25251H1.90596V17.2892H15.0631ZM4.72534 6.95149H12.2437V8.83107H4.72534V6.95149ZM4.72534 10.7107H12.2437V12.5903H4.72534V10.7107Z" fill="#181818"/>
</svg>
