<svg width="17" height="16" viewBox="0 0 17 16" fill="none" xmlns="http://www.w3.org/2000/svg">
<path d="M13.5739 0.762085H3.34563C2.66746 0.762085 2.01706 1.02612 1.53752 1.49611C1.05798 1.9661 0.788574 2.60354 0.788574 3.2682V13.2927C0.788574 13.9573 1.05798 14.5948 1.53752 15.0648C2.01706 15.5348 2.66746 15.7988 3.34563 15.7988H13.5739C14.252 15.7988 14.9024 15.5348 15.382 15.0648C15.8615 14.5948 16.1309 13.9573 16.1309 13.2927V3.2682C16.1309 2.60354 15.8615 1.9661 15.382 1.49611C14.9024 1.02612 14.252 0.762085 13.5739 0.762085ZM3.34563 2.43283H13.5739C13.7999 2.43283 14.0167 2.52084 14.1766 2.67751C14.3364 2.83417 14.4262 3.04665 14.4262 3.2682V10.2519L11.6987 7.97135C11.2761 7.63056 10.7458 7.44423 10.1985 7.44423C9.65127 7.44423 9.121 7.63056 8.6984 7.97135L2.49328 13.0421V3.2682C2.49328 3.04665 2.58308 2.83417 2.74293 2.67751C2.90277 2.52084 3.11957 2.43283 3.34563 2.43283ZM13.5739 14.128H3.82295L9.78941 9.24947C9.90403 9.16606 10.043 9.12103 10.1858 9.12103C10.3285 9.12103 10.4675 9.16606 10.5821 9.24947L14.4262 12.4573V13.2927C14.4262 13.5142 14.3364 13.7267 14.1766 13.8834C14.0167 14.04 13.7999 14.128 13.5739 14.128Z" fill="black"/>
<ellipse cx="5.75882" cy="6.15" rx="1.17337" ry="1.15" fill="black"/>
</svg>
