<svg width="31" height="31" viewBox="0 0 31 31" fill="none" xmlns="http://www.w3.org/2000/svg">
<path d="M15.6545 16.8267C16.5579 16.8267 17.2904 16.1232 17.2904 15.2555C17.2904 14.3877 16.5579 13.6842 15.6545 13.6842C14.751 13.6842 14.0186 14.3877 14.0186 15.2555C14.0186 16.1232 14.751 16.8267 15.6545 16.8267Z" fill="black"/>
<path d="M21.38 16.8267C22.2835 16.8267 23.0159 16.1232 23.0159 15.2555C23.0159 14.3877 22.2835 13.6842 21.38 13.6842C20.4766 13.6842 19.7441 14.3877 19.7441 15.2555C19.7441 16.1232 20.4766 16.8267 21.38 16.8267Z" fill="black"/>
<path d="M9.92936 16.8267C10.8328 16.8267 11.5653 16.1232 11.5653 15.2555C11.5653 14.3877 10.8328 13.6842 9.92936 13.6842C9.02588 13.6842 8.29346 14.3877 8.29346 15.2555C8.29346 16.1232 9.02588 16.8267 9.92936 16.8267Z" fill="black"/>
<rect x="1.42843" width="19.7022" height="19.7022" rx="4" transform="matrix(0.714213 -0.699929 0.714213 0.699929 0.408226 16.1897)" stroke="black" stroke-width="2"/>
</svg>
