<svg width="20" height="20" viewBox="0 0 20 20" fill="none" xmlns="http://www.w3.org/2000/svg">
<path d="M10.0002 11.6667C10.9206 11.6667 11.6668 10.9205 11.6668 10C11.6668 9.07957 10.9206 8.33337 10.0002 8.33337C9.07969 8.33337 8.3335 9.07957 8.3335 10C8.3335 10.9205 9.07969 11.6667 10.0002 11.6667Z" fill="black"/>
<path d="M15.8332 11.6667C16.7536 11.6667 17.4998 10.9205 17.4998 10C17.4998 9.07957 16.7536 8.33337 15.8332 8.33337C14.9127 8.33337 14.1665 9.07957 14.1665 10C14.1665 10.9205 14.9127 11.6667 15.8332 11.6667Z" fill="black"/>
<path d="M4.16667 11.6667C5.08714 11.6667 5.83333 10.9205 5.83333 10C5.83333 9.07957 5.08714 8.33337 4.16667 8.33337C3.24619 8.33337 2.5 9.07957 2.5 10C2.5 10.9205 3.24619 11.6667 4.16667 11.6667Z" fill="black"/>
</svg>
