<svg width="23" height="23" viewBox="0 0 23 23" fill="none" xmlns="http://www.w3.org/2000/svg">
<path d="M11.4844 21.088C9.62564 21.088 7.80864 20.5368 6.26316 19.5042C4.71767 18.4715 3.51311 17.0038 2.80181 15.2865C2.0905 13.5693 1.90439 11.6796 2.26701 9.85662C2.62963 8.03359 3.5247 6.35904 4.83902 5.04471C6.15335 3.73039 7.8279 2.83532 9.65093 2.4727C11.474 2.11008 13.3636 2.29619 15.0808 3.00749C16.7981 3.7188 18.2658 4.92336 19.2985 6.46884C20.3311 8.01433 20.8823 9.83133 20.8823 11.6901C20.8823 14.1826 19.8922 16.573 18.1297 18.3354C16.3673 20.0979 13.9769 21.088 11.4844 21.088ZM11.4844 4.17171C9.99739 4.17171 8.54379 4.61265 7.3074 5.43878C6.07101 6.26491 5.10737 7.43911 4.53832 8.81291C3.96927 10.1867 3.82038 11.6984 4.11048 13.1568C4.40058 14.6152 5.11663 15.9549 6.16809 17.0063C7.21956 18.0578 8.5592 18.7739 10.0176 19.064C11.476 19.3541 12.9877 19.2052 14.3615 18.6361C15.7353 18.0671 16.9095 17.1034 17.7357 15.867C18.5618 14.6307 19.0027 13.1771 19.0027 11.6901C19.0027 9.69607 18.2106 7.78375 16.8007 6.37378C15.3907 4.96382 13.4784 4.17171 11.4844 4.17171Z" fill="#181818"/>
<path d="M11.0147 13.4652C11.7644 13.4652 12.3722 12.8574 12.3722 12.1077C12.3722 11.358 11.7644 10.7502 11.0147 10.7502C10.265 10.7502 9.65723 11.358 9.65723 12.1077C9.65723 12.8574 10.265 13.4652 11.0147 13.4652Z" fill="#181818"/>
<path d="M15.7657 13.4652C16.5154 13.4652 17.1232 12.8574 17.1232 12.1077C17.1232 11.358 16.5154 10.7502 15.7657 10.7502C15.016 10.7502 14.4082 11.358 14.4082 12.1077C14.4082 12.8574 15.016 13.4652 15.7657 13.4652Z" fill="#181818"/>
<path d="M6.26373 13.4652C7.01345 13.4652 7.62121 12.8574 7.62121 12.1077C7.62121 11.358 7.01345 10.7502 6.26373 10.7502C5.51401 10.7502 4.90625 11.358 4.90625 12.1077C4.90625 12.8574 5.51401 13.4652 6.26373 13.4652Z" fill="#181818"/>
</svg>
