<svg width="31" height="31" viewBox="0 0 31 31" fill="none" xmlns="http://www.w3.org/2000/svg">
<path d="M29.4995 2.88846C29.4849 2.76234 29.4568 2.63808 29.4155 2.51777V2.39421C29.3483 2.24141 29.2534 2.10185 29.1353 1.98233C29.0164 1.87286 28.879 1.78458 28.7291 1.72147H28.603C28.4739 1.62483 28.3262 1.55478 28.1687 1.51553H28.0987C27.9594 1.49482 27.8177 1.49482 27.6785 1.51553L2.46342 9.75311C2.18316 9.8434 1.93914 10.0181 1.76614 10.2523C1.59314 10.4865 1.5 10.7683 1.5 11.0574C1.5 11.3465 1.59314 11.6283 1.76614 11.8625C1.93914 12.0967 2.18316 12.2714 2.46342 12.3617L14.4125 16.2608L18.3909 27.9719C18.483 28.2466 18.6613 28.4857 18.9002 28.6553C19.1392 28.8248 19.4267 28.9161 19.7217 28.9161C20.0167 28.9161 20.3042 28.8248 20.5432 28.6553C20.7821 28.4857 20.9604 28.2466 21.0525 27.9719L29.4575 3.25915C29.4887 3.13804 29.5028 3.01333 29.4995 2.88846ZM22.9156 6.03247L15.113 13.6797L7.31031 11.126L22.9156 6.03247ZM19.6937 23.2627L17.0881 15.6155L24.8908 7.96831L19.6937 23.2627Z" fill="black"/>
</svg>
