<svg width="23" height="24" viewBox="0 0 23 24" fill="none" xmlns="http://www.w3.org/2000/svg">
<path d="M19.9426 4.27306C19.9328 4.18672 19.9139 4.10167 19.8862 4.01931V3.93473C19.8411 3.83014 19.7774 3.73461 19.6982 3.65279C19.6185 3.57786 19.5262 3.51743 19.4257 3.47423H19.3411C19.2545 3.40808 19.1554 3.36013 19.0498 3.33326H19.0028C18.9093 3.31909 18.8143 3.31909 18.7208 3.33326L1.80455 8.97203C1.61652 9.03383 1.45281 9.15341 1.33675 9.31373C1.22069 9.47405 1.1582 9.66692 1.1582 9.86484C1.1582 10.0628 1.22069 10.2556 1.33675 10.4159C1.45281 10.5763 1.61652 10.6958 1.80455 10.7576L9.82099 13.4267L12.49 21.4431C12.5518 21.6311 12.6714 21.7948 12.8317 21.9109C12.992 22.027 13.1849 22.0894 13.3828 22.0894C13.5807 22.0894 13.7736 22.027 13.9339 21.9109C14.0942 21.7948 14.2138 21.6311 14.2756 21.4431L19.9144 4.5268C19.9353 4.4439 19.9448 4.35853 19.9426 4.27306ZM15.5255 6.42519L10.2909 11.6598L5.05624 9.91183L15.5255 6.42519ZM13.364 18.2196L11.616 12.985L16.8507 7.7503L13.364 18.2196Z" fill="#181818"/>
</svg>
