<svg width="23" height="24" viewBox="0 0 23 24" fill="none" xmlns="http://www.w3.org/2000/svg">
<path d="M11.4848 10.8208C12.2283 10.8208 12.9551 10.6004 13.5733 10.1873C14.1914 9.77425 14.6733 9.18714 14.9578 8.50025C15.2423 7.81335 15.3168 7.0575 15.1717 6.32829C15.0267 5.59908 14.6686 4.92926 14.1429 4.40353C13.6172 3.8778 12.9474 3.51977 12.2181 3.37472C11.4889 3.22967 10.7331 3.30412 10.0462 3.58864C9.35929 3.87317 8.77219 4.35499 8.35912 4.97318C7.94606 5.59138 7.72559 6.31817 7.72559 7.06167C7.72559 8.05867 8.12164 9.01483 8.82662 9.71981C9.53161 10.4248 10.4878 10.8208 11.4848 10.8208ZM11.4848 5.18208C11.8565 5.18208 12.2199 5.29232 12.529 5.49885C12.8381 5.70538 13.079 5.99893 13.2213 6.34238C13.3635 6.68583 13.4008 7.06375 13.3282 7.42836C13.2557 7.79296 13.0767 8.12787 12.8138 8.39074C12.551 8.6536 12.2161 8.83262 11.8515 8.90514C11.4868 8.97767 11.1089 8.94045 10.7655 8.79818C10.422 8.65592 10.1285 8.41501 9.92194 8.10591C9.71541 7.79682 9.60517 7.43342 9.60517 7.06167C9.60517 6.56317 9.8032 6.08509 10.1557 5.7326C10.5082 5.38011 10.9863 5.18208 11.4848 5.18208Z" fill="#181818"/>
<path d="M11.4848 12.7004C9.74007 12.7004 8.06679 13.3935 6.83307 14.6273C5.59935 15.861 4.90625 17.5343 4.90625 19.279C4.90625 19.5282 5.00526 19.7673 5.18151 19.9435C5.35776 20.1198 5.5968 20.2188 5.84604 20.2188C6.09529 20.2188 6.33433 20.1198 6.51058 19.9435C6.68682 19.7673 6.78584 19.5282 6.78584 19.279C6.78584 18.0328 7.28091 16.8376 8.16214 15.9563C9.04336 15.0751 10.2386 14.58 11.4848 14.58C12.7311 14.58 13.9263 15.0751 14.8075 15.9563C15.6887 16.8376 16.1838 18.0328 16.1838 19.279C16.1838 19.5282 16.2828 19.7673 16.459 19.9435C16.6353 20.1198 16.8743 20.2188 17.1236 20.2188C17.3728 20.2188 17.6119 20.1198 17.7881 19.9435C17.9644 19.7673 18.0634 19.5282 18.0634 19.279C18.0634 17.5343 17.3703 15.861 16.1366 14.6273C14.9028 13.3935 13.2296 12.7004 11.4848 12.7004Z" fill="#181818"/>
</svg>
