<svg width="19" height="15" viewBox="0 0 19 15" fill="none" xmlns="http://www.w3.org/2000/svg">
<path d="M6.91856 4.05137C6.91856 5.46541 5.74497 6.6358 4.26727 6.6358C2.78956 6.6358 1.61598 5.46541 1.61598 4.05137C1.61598 2.63732 2.78956 1.46693 4.26727 1.46693C5.74497 1.46693 6.91856 2.63732 6.91856 4.05137Z" stroke="black" stroke-width="1.40969"/>
<line x1="10.4813" y1="4.52127" x2="17.2318" y2="4.52127" stroke="black" stroke-width="1.87959" stroke-linecap="round"/>
<path d="M6.91856 11.5697C6.91856 12.9837 5.74497 14.1541 4.26727 14.1541C2.78956 14.1541 1.61598 12.9837 1.61598 11.5697C1.61598 10.1556 2.78956 8.98524 4.26727 8.98524C5.74497 8.98524 6.91856 10.1556 6.91856 11.5697Z" stroke="black" stroke-width="1.40969"/>
<line x1="10.4813" y1="12.0396" x2="17.2318" y2="12.0396" stroke="black" stroke-width="1.87959" stroke-linecap="round"/>
</svg>
