<svg width="27" height="26" viewBox="0 0 27 26" fill="none" xmlns="http://www.w3.org/2000/svg">
<g clip-path="url(#clip0_1_23)">
<path d="M7.2686 18.8396C7.2686 19.4152 7.73959 19.8862 8.31524 19.8862H9.36189V23.5495C9.36189 24.4182 10.0631 25.1194 10.9318 25.1194C11.8006 25.1194 12.5018 24.4182 12.5018 23.5495V19.8862H14.5951V23.5495C14.5951 24.4182 15.2963 25.1194 16.1651 25.1194C17.0338 25.1194 17.735 24.4182 17.735 23.5495V19.8862H18.7817C19.3573 19.8862 19.8283 19.4152 19.8283 18.8396V8.37314H7.2686V18.8396ZM4.65199 8.37314C3.78328 8.37314 3.08203 9.07439 3.08203 9.9431V17.2696C3.08203 18.1383 3.78328 18.8396 4.65199 18.8396C5.52071 18.8396 6.22196 18.1383 6.22196 17.2696V9.9431C6.22196 9.07439 5.52071 8.37314 4.65199 8.37314ZM22.4449 8.37314C21.5762 8.37314 20.875 9.07439 20.875 9.9431V17.2696C20.875 18.1383 21.5762 18.8396 22.4449 18.8396C23.3136 18.8396 24.0149 18.1383 24.0149 17.2696V9.9431C24.0149 9.07439 23.3136 8.37314 22.4449 8.37314ZM17.2431 2.26075L18.6037 0.900114C18.8131 0.690786 18.8131 0.366327 18.6037 0.156998C18.3944 -0.0523302 18.07 -0.0523302 17.8606 0.156998L16.3116 1.70603C15.4847 1.28737 14.5428 1.04664 13.5485 1.04664C12.5437 1.04664 11.6017 1.28737 10.7644 1.70603L9.20489 0.156998C8.99556 -0.0523302 8.6711 -0.0523302 8.46177 0.156998C8.25244 0.366327 8.25244 0.690786 8.46177 0.900114L9.83287 2.27122C8.28384 3.41206 7.2686 5.24368 7.2686 7.3265H19.8283C19.8283 5.24368 18.8131 3.40159 17.2431 2.26075ZM11.4552 5.23321H10.4085V4.18657H11.4552V5.23321ZM16.6884 5.23321H15.6417V4.18657H16.6884V5.23321Z" fill="#FBBC04"/>
</g>
<defs>
<clipPath id="clip0_1_23">
<rect width="25.1194" height="25.1194" fill="white" transform="translate(0.98877)"/>
</clipPath>
</defs>
</svg>
