<svg width="19" height="20" viewBox="0 0 19 20" fill="none" xmlns="http://www.w3.org/2000/svg">
<path d="M8.29736 13.4539L14.0205 7.72611L13.0828 6.7837L8.29736 11.5691L6.00427 9.27602L5.06655 10.2184L8.29736 13.4539ZM3.65871 17.4266C3.29763 17.4266 2.98452 17.294 2.71938 17.0289C2.45425 16.7638 2.32169 16.4507 2.32169 16.0896V4.39932C2.32169 4.03696 2.45425 3.72275 2.71938 3.45669C2.98452 3.19062 3.29763 3.05759 3.65871 3.05759H15.349C15.7113 3.05759 16.0255 3.19062 16.2916 3.45669C16.5577 3.72275 16.6907 4.03696 16.6907 4.39932V16.0896C16.6907 16.4507 16.5577 16.7638 16.2916 17.0289C16.0255 17.294 15.7113 17.4266 15.349 17.4266H3.65871ZM3.65871 16.0896H15.349V4.39932H3.65871V16.0896Z" fill="#757575"/>
</svg>
