<svg width="18" height="18" viewBox="0 0 18 18" fill="none" xmlns="http://www.w3.org/2000/svg">
<path d="M3.41535 15.8621C3.07036 15.8621 2.7712 15.7354 2.51788 15.4821C2.26457 15.2288 2.13791 14.9296 2.13791 14.5846V3.41535C2.13791 3.06913 2.26457 2.76893 2.51788 2.51473C2.7712 2.26051 3.07036 2.13341 3.41535 2.13341H14.5846C14.9309 2.13341 15.2311 2.26051 15.4853 2.51473C15.7395 2.76893 15.8666 3.06913 15.8666 3.41535V14.5846C15.8666 14.9296 15.7395 15.2288 15.4853 15.4821C15.2311 15.7354 14.9309 15.8621 14.5846 15.8621H3.41535ZM3.41535 14.5846H14.5846V3.41535H3.41535V14.5846Z" fill="#757575"/>
</svg>
