<svg width="19" height="19" viewBox="0 0 19 19" fill="none" xmlns="http://www.w3.org/2000/svg">
<path d="M8.2133 12.6293L13.9364 6.90145L12.9987 5.95904L8.2133 10.7444L5.92021 8.45135L4.98249 9.39377L8.2133 12.6293ZM3.57465 16.6019C3.21357 16.6019 2.90046 16.4694 2.63532 16.2042C2.37019 15.9391 2.23763 15.626 2.23763 15.2649V3.57466C2.23763 3.21229 2.37019 2.89809 2.63532 2.63203C2.90046 2.36596 3.21357 2.23293 3.57465 2.23293H15.2649C15.6273 2.23293 15.9415 2.36596 16.2075 2.63203C16.4736 2.89809 16.6066 3.21229 16.6066 3.57466V15.2649C16.6066 15.626 16.4736 15.9391 16.2075 16.2042C15.9415 16.4694 15.6273 16.6019 15.2649 16.6019H3.57465ZM3.57465 15.2649H15.2649V3.57466H3.57465V15.2649Z" fill="#212121"/>
</svg>
