<svg width="20" height="20" viewBox="0 0 20 20" fill="none" xmlns="http://www.w3.org/2000/svg">
<path d="M8.71921 13.4072L14.7948 7.32654L13.7994 6.32608L8.71921 11.4062L6.28487 8.97191L5.2894 9.97237L8.71921 13.4072ZM3.79483 17.6245C3.41151 17.6245 3.07912 17.4838 2.79765 17.2023C2.51619 16.9209 2.37546 16.5885 2.37546 16.2052V3.79483C2.37546 3.41015 2.51619 3.07659 2.79765 2.79414C3.07912 2.51168 3.41151 2.37045 3.79483 2.37045H16.2052C16.5898 2.37045 16.9234 2.51168 17.2059 2.79414C17.4883 3.07659 17.6295 3.41015 17.6295 3.79483V16.2052C17.6295 16.5885 17.4883 16.9209 17.2059 17.2023C16.9234 17.4838 16.5898 17.6245 16.2052 17.6245H3.79483ZM3.79483 16.2052H16.2052V3.79483H3.79483V16.2052Z" fill="#757575"/>
</svg>
