<svg width="22" height="22" viewBox="0 0 22 22" fill="none" xmlns="http://www.w3.org/2000/svg">
<path d="M7.5625 15.4L11 11.9625L14.4375 15.4L15.4 14.4375L11.9625 11L15.4 7.5625L14.4375 6.6L11 10.0375L7.5625 6.6L6.6 7.5625L10.0375 11L6.6 14.4375L7.5625 15.4ZM11 20.1667C9.74722 20.1667 8.56319 19.926 7.44791 19.4448C6.33263 18.9635 5.35868 18.3066 4.52604 17.474C3.6934 16.6413 3.03645 15.6674 2.5552 14.5521C2.07395 13.4368 1.83333 12.2528 1.83333 11C1.83333 9.73194 2.07395 8.54027 2.5552 7.425C3.03645 6.30972 3.6934 5.33958 4.52604 4.51458C5.35868 3.68958 6.33263 3.03645 7.44791 2.5552C8.56319 2.07395 9.74722 1.83333 11 1.83333C12.2681 1.83333 13.4597 2.07395 14.575 2.5552C15.6903 3.03645 16.6604 3.68958 17.4854 4.51458C18.3104 5.33958 18.9635 6.30972 19.4448 7.425C19.926 8.54027 20.1667 9.73194 20.1667 11C20.1667 12.2528 19.926 13.4368 19.4448 14.5521C18.9635 15.6674 18.3104 16.6413 17.4854 17.474C16.6604 18.3066 15.6903 18.9635 14.575 19.4448C13.4597 19.926 12.2681 20.1667 11 20.1667Z" fill="#757575"/>
</svg>
