<svg width="27" height="26" viewBox="0 0 27 26" fill="none" xmlns="http://www.w3.org/2000/svg">
<g clip-path="url(#clip0_1_20)">
<path d="M5.17535 9.65331H7.26864V7.56002H5.17535V9.65331ZM5.17535 18.0264H7.26864V11.7466H5.17535V18.0264ZM12.5019 7.56002H10.4086C9.25726 7.56002 8.31528 8.502 8.31528 9.65331V15.9332C8.31528 17.0845 9.25726 18.0264 10.4086 18.0264H12.5019C13.6532 18.0264 14.5951 17.0845 14.5951 15.9332V9.65331C14.5951 8.502 13.6532 7.56002 12.5019 7.56002ZM12.5019 15.9332H10.4086V9.65331H12.5019V15.9332ZM21.9216 9.65331V7.56002H17.7351C16.5838 7.56002 15.6418 8.502 15.6418 9.65331V11.7466C15.6418 12.8979 16.5838 13.8399 17.7351 13.8399H19.8283V15.9332H15.6418V18.0264H19.8283C20.9797 18.0264 21.9216 17.0845 21.9216 15.9332V13.8399C21.9216 12.6886 20.9797 11.7466 19.8283 11.7466H17.7351V9.65331H21.9216Z" fill="#FBBC04"/>
</g>
<defs>
<clipPath id="clip0_1_20">
<rect width="25.1194" height="25.1194" fill="white" transform="translate(0.98877 0.233543)"/>
</clipPath>
</defs>
</svg>
