<svg width="21" height="21" viewBox="0 0 21 21" fill="none" xmlns="http://www.w3.org/2000/svg">
<path d="M4.43292 18.604C4.04961 18.604 3.71721 18.4633 3.43574 18.1818C3.15428 17.9004 3.01355 17.568 3.01355 17.1847V4.77432C3.01355 4.38964 3.15428 4.05608 3.43574 3.77363C3.71721 3.49118 4.04961 3.34995 4.43292 3.34995H10.2006V4.77432H4.43292V17.1847H16.8433V11.417H18.2676V17.1847C18.2676 17.568 18.1264 17.9004 17.8439 18.1818C17.5615 18.4633 17.2279 18.604 16.8433 18.604H4.43292ZM8.71101 13.917L7.72142 12.9066L15.8537 4.77432H11.4506V3.34995H18.2676V10.167H16.8433V5.78474L8.71101 13.917Z" fill="#757575"/>
</svg>
