<svg width="20" height="20" viewBox="0 0 20 20" fill="none" xmlns="http://www.w3.org/2000/svg">
<path d="M16.5784 17.6187L11.0693 12.1146C10.656 12.4655 10.1726 12.7392 9.61931 12.9357C9.06598 13.1322 8.47458 13.2305 7.84512 13.2305C6.31964 13.2305 5.02832 12.7014 3.97117 11.6431C2.91401 10.5848 2.38544 9.30796 2.38544 7.81249C2.38544 6.31702 2.91458 5.04014 3.97285 3.98187C5.03112 2.9236 6.31146 2.39447 7.81387 2.39447C9.31629 2.39447 10.5932 2.9236 11.6445 3.98187C12.6958 5.04014 13.2215 6.31806 13.2215 7.81562C13.2215 8.41739 13.1267 8.99357 12.9373 9.54416C12.7478 10.0947 12.4636 10.6114 12.0847 11.0942L17.6146 16.5824L16.5784 17.6187ZM7.82606 11.8111C8.93342 11.8111 9.87294 11.4205 10.6446 10.6394C11.4163 9.8582 11.8021 8.91591 11.8021 7.81249C11.8021 6.70907 11.416 5.76678 10.6439 4.98562C9.87172 4.20444 8.93245 3.81385 7.82606 3.81385C6.70809 3.81385 5.75839 4.20444 4.97696 4.98562C4.19553 5.76678 3.80481 6.70907 3.80481 7.81249C3.80481 8.91591 4.19528 9.8582 4.97623 10.6394C5.75716 11.4205 6.7071 11.8111 7.82606 11.8111Z" fill="#757575"/>
</svg>
