<svg width="21" height="21" viewBox="0 0 21 21" fill="none" xmlns="http://www.w3.org/2000/svg">
<path d="M17.5374 18.5982L12.0283 13.0941C11.6149 13.445 11.1316 13.7187 10.5783 13.9152C10.025 14.1117 9.43357 14.21 8.80411 14.21C7.27862 14.21 5.9873 13.6809 4.93015 12.6226C3.873 11.5643 3.34442 10.2875 3.34442 8.79198C3.34442 7.29651 3.87356 6.01964 4.93184 4.96136C5.9901 3.90309 7.27044 3.37396 8.77286 3.37396C10.2753 3.37396 11.5521 3.90309 12.6035 4.96136C13.6548 6.01964 14.1805 7.29755 14.1805 8.79511C14.1805 9.39689 14.0857 9.97307 13.8963 10.5237C13.7068 11.0742 13.4226 11.5909 13.0437 12.0737L18.5736 17.5619L17.5374 18.5982ZM8.78505 12.7906C9.89241 12.7906 10.8319 12.4 11.6036 11.6189C12.3753 10.8377 12.7611 9.8954 12.7611 8.79198C12.7611 7.68857 12.375 6.74627 11.6029 5.96511C10.8307 5.18393 9.89143 4.79334 8.78505 4.79334C7.66707 4.79334 6.71737 5.18393 5.93594 5.96511C5.15451 6.74627 4.7638 7.68857 4.7638 8.79198C4.7638 9.8954 5.15427 10.8377 5.93521 11.6189C6.71614 12.4 7.66609 12.7906 8.78505 12.7906Z" fill="#757575"/>
</svg>
